<?xml version="1.0" encoding="UTF-8" standalone="no"?>
<!DOCTYPE svg PUBLIC "-//W3C//DTD SVG 1.1//EN" "http://www.w3.org/Graphics/SVG/1.1/DTD/svg11.dtd">
<svg width="420" height="196" viewBox="0 0 420 196" version="1.1" xmlns="http://www.w3.org/2000/svg" xmlns:xlink="http://www.w3.org/1999/xlink" xml:space="preserve" xmlns:serif="http://www.serif.com/" style="fill-rule:evenodd;clip-rule:evenodd;stroke-linejoin:round;stroke-miterlimit:2;">
    <g id="Artboard1" transform="matrix(0.468212,0,0,0.456513,0,0)">
        <rect x="0" y="0" width="895.833" height="429.167" style="fill:white;"/>
        <clipPath id="_clip1">
            <rect x="0" y="0" width="895.833" height="429.167"/>
        </clipPath>
        <g clip-path="url(#_clip1)">
            <g transform="matrix(4.271568,0,0,4.38104,-8.201411,-14.895512)">
                <rect x="0" y="-0" width="215" height="104" style="fill:white;"/>
            </g>
            <g transform="matrix(-3.820583,1.95931,1.910352,3.918496,-74.009809,60.182433)">
                <path d="M5.435,51.69L6.105,51.69L-0.469,38.542L-0.849,39.123L5.435,51.69Z" style="fill-rule:nonzero;"/>
            </g>
            <g transform="matrix(-4.271568,0,0,4.38104,35.368608,44.248503)">
                <rect x="4.8" y="39.55" width="0.6" height="11.4"/>
            </g>
            <g transform="matrix(0,4.38104,4.271568,0,-118.087484,252.457441)">
                <path d="M11.775,40.725L12.475,40.725L5.075,27.975L4.775,28.575L11.775,40.725Z" style="fill-rule:nonzero;"/>
            </g>
            <g transform="matrix(3.820581,1.959313,1.910354,-3.918495,-64.18223,382.963888)">
                <path d="M24.818,40.376L25.489,40.376L17.395,28.055L17.082,28.682L24.818,40.376Z" style="fill-rule:nonzero;"/>
            </g>
            <g transform="matrix(2.197704,3.756711,3.66284,-2.254026,-101.254012,287.72485)">
                <path d="M19.761,42.411L20.344,42.411L20.139,30.989L19.556,30.989L19.761,42.411Z" style="fill-rule:nonzero;"/>
            </g>
            <g transform="matrix(4.271568,0,0,4.38104,-8.201411,44.905703)">
                <path d="M27.15,38.1L27.45,37.9L27.75,38.1L27.75,52.45L27.15,52.15L27.15,38.1Z" style="fill-rule:nonzero;"/>
            </g>
            <g transform="matrix(4.271568,0,0,4.38104,-8.201411,-51.039115)">
                <path d="M15,52.95L15,52.25L27.45,59.45L27.45,59.8L27.15,60L15,52.95Z" style="fill-rule:nonzero;"/>
            </g>
            <g transform="matrix(2.197704,-3.756711,-3.66284,-2.254026,230.232946,401.245677)">
                <path d="M19.556,59.511L20.139,59.511L20.344,48.089L19.761,48.089L19.556,59.511Z" style="fill-rule:nonzero;"/>
            </g>
            <g transform="matrix(-3.689719,-2.207429,-2.152271,3.784279,181.260911,1.493177)">
                <path d="M11.661,62.382L12.356,62.382L5.071,49.566L4.718,50.17L11.661,62.382Z" style="fill-rule:nonzero;"/>
            </g>
            <g transform="matrix(4.271568,0,0,4.38104,-8.201411,-50.162907)">
                <path d="M39.6,52.25L39.95,52.4L39.95,52.75L27.75,59.8L27.45,59.6L27.45,59.25L39.6,52.25Z" style="fill-rule:nonzero;"/>
            </g>
            <g transform="matrix(2.135784,0,0,2.19052,95.999827,92.389907)">
                <text x="48.788px" y="61.323px" style="font-family:'Helvetica';font-size:20px;">NH</text>
                <g transform="matrix(15,0,0,15,87.171985,65.922462)">
                </g>
                <text x="78.83px" y="65.922px" style="font-family:'Helvetica';font-size:15px;">2</text>
            </g>
            <g transform="matrix(2.135784,0,0,2.19052,285.871087,92.389907)">
                <text x="137.688px" y="61.323px" style="font-family:'Helvetica';font-size:20px;">NH</text>
                <g transform="matrix(15,0,0,15,176.071985,65.922462)">
                </g>
                <text x="167.73px" y="65.922px" style="font-family:'Helvetica';font-size:15px;">2</text>
            </g>
            <g transform="matrix(2.135784,0,0,2.19052,375.5123,-4.650127)">
                <g transform="matrix(20,0,0,20,244.412759,17.022862)">
                </g>
                <text x="179.659px" y="17.023px" style="font-family:'Helvetica';font-size:20px;">O <tspan x="229.969px " y="17.023px ">H</tspan></text>
            </g>
            <g transform="matrix(4.271568,0,0,4.38104,-8.201411,-62.648826)">
                <path d="M47.5,59.3L47.2,59.8L39.95,55.6L39.95,55.25L40.25,55.1L47.5,59.3Z" style="fill-rule:nonzero;"/>
            </g>
            <g transform="matrix(4.271568,0,0,4.38104,-8.201411,-145.012376)">
                <path d="M38.45,59.65L41.45,59.65L40.25,73.9L39.95,74.05L39.6,73.9L38.45,59.65Z" style="fill-rule:nonzero;"/>
            </g>
            <g transform="matrix(-3.820581,1.959313,1.910354,3.918495,645.382181,-114.000421)">
                <path d="M94.335,51.69L95.005,51.69L88.431,38.542L88.051,39.123L94.335,51.69Z" style="fill-rule:nonzero;"/>
            </g>
            <g transform="matrix(-4.271568,0,0,4.38104,795.067077,44.248503)">
                <rect x="93.7" y="39.55" width="0.65" height="11.4"/>
            </g>
            <g transform="matrix(0,4.38104,4.271568,0,261.654946,-137.017)">
                <path d="M100.675,40.725L101.375,40.725L93.975,27.975L93.675,28.575L100.675,40.725Z" style="fill-rule:nonzero;"/>
            </g>
            <g transform="matrix(3.820581,1.959313,1.910354,-3.918495,-24.08949,208.780976)">
                <path d="M113.718,40.376L114.389,40.376L106.295,28.055L105.982,28.682L113.718,40.376Z" style="fill-rule:nonzero;"/>
            </g>
            <g transform="matrix(2.197704,3.756711,3.66284,-2.254026,83.112552,-46.246731)">
                <path d="M108.661,42.411L109.244,42.411L109.039,30.989L108.456,30.989L108.661,42.411Z" style="fill-rule:nonzero;"/>
            </g>
            <g transform="matrix(4.271568,0,0,4.38104,-8.201411,44.905703)">
                <path d="M116.05,38.1L116.35,37.9L116.65,38.1L116.65,52.45L116.05,52.15L116.05,38.1Z" style="fill-rule:nonzero;"/>
            </g>
            <g transform="matrix(4.271568,0,0,4.38104,-8.201411,-51.039115)">
                <path d="M103.9,52.95L103.9,52.25L116.35,59.45L116.35,59.8L116.05,60L103.9,52.95Z" style="fill-rule:nonzero;"/>
            </g>
            <g transform="matrix(2.197704,-3.756711,-3.66284,-2.254026,414.59951,735.217259)">
                <path d="M108.456,59.511L109.039,59.511L109.244,48.089L108.661,48.089L108.456,59.511Z" style="fill-rule:nonzero;"/>
            </g>
            <g transform="matrix(-3.689717,-2.207432,-2.152274,3.784277,889.019356,197.733993)">
                <path d="M100.561,62.382L101.256,62.382L93.971,49.566L93.618,50.17L100.561,62.382Z" style="fill-rule:nonzero;"/>
            </g>
            <g transform="matrix(4.271568,0,0,4.38104,-8.201411,-51.039115)">
                <path d="M128.85,52.25L128.85,52.95L116.65,60L116.35,59.8L116.35,59.45L128.85,52.25Z" style="fill-rule:nonzero;"/>
            </g>
            <g transform="matrix(-2.197704,3.756711,3.66284,2.254026,638.989416,-439.349178)">
                <path d="M132.355,61.79L132.938,61.79L133.067,53.413L132.466,53.052L132.355,61.79Z" style="fill-rule:nonzero;"/>
            </g>
            <g transform="matrix(4.271568,0,0,4.38104,-8.201411,-205.47077)">
                <rect x="127.35" y="73.45" width="2.95" height="0.6"/>
            </g>
            <g transform="matrix(4.271568,0,0,4.38104,-8.201411,-180.498843)">
                <rect x="127.65" y="70.6" width="2.35" height="0.6"/>
            </g>
            <g transform="matrix(4.271568,0,0,4.38104,-8.201411,-155.964976)">
                <rect x="127.9" y="67.8" width="1.8" height="0.6"/>
            </g>
            <g transform="matrix(4.271568,0,0,4.38104,-8.201411,-131.431153)">
                <rect x="128.2" y="65" width="1.25" height="0.6"/>
            </g>
            <g transform="matrix(4.271568,0,0,4.38104,-8.201411,-106.459225)">
                <rect x="128.5" y="62.15" width="0.65" height="0.6"/>
            </g>
            <g transform="matrix(-3.689664,2.207526,2.152365,3.784222,1322.326599,-460.498447)">
                <path d="M186.818,66.948L187.513,66.948L180.106,54.25L179.738,54.812L186.818,66.948Z" style="fill-rule:nonzero;"/>
            </g>
            <g transform="matrix(-4.271568,0,0,4.38104,1581.676362,-91.563733)">
                <rect x="185.8" y="55.05" width="0.6" height="11.4"/>
            </g>
            <g transform="matrix(4.271568,0,0,4.38104,-8.201411,2.847676)">
                <path d="M196,53.25L196,53.6L195.7,53.75L183.25,46.55L183.85,46.2L196,53.25Z" style="fill-rule:nonzero;"/>
            </g>
            <g transform="matrix(4.271568,0,0,4.38104,-8.201411,2.847676)">
                <path d="M208.15,46.2L208.75,46.55L196.3,53.75L196,53.6L196,53.25L208.15,46.2Z" style="fill-rule:nonzero;"/>
            </g>
            <g transform="matrix(2.197704,3.756711,3.66284,-2.254026,217.341467,-425.208496)">
                <path d="M200.761,57.911L201.344,57.911L201.139,46.489L200.556,46.489L200.761,57.911Z" style="fill-rule:nonzero;"/>
            </g>
            <g transform="matrix(3.820607,-1.959261,-1.910303,-3.918521,201.852436,821.042475)">
                <path d="M211.335,67.19L212.005,67.19L205.431,54.042L205.051,54.623L211.335,67.19Z" style="fill-rule:nonzero;"/>
            </g>
            <g transform="matrix(4.271568,0,0,4.38104,-8.201411,-186.194195)">
                <path d="M196,68.3L196,67.95L196.3,67.8L208.75,75L208.15,75.3L196,68.3Z" style="fill-rule:nonzero;"/>
            </g>
            <g transform="matrix(2.197704,-3.756711,-3.66284,-2.254026,662.376456,1048.241606)">
                <path d="M200.556,75.011L201.139,75.011L201.344,63.589L200.761,63.589L200.556,75.011Z" style="fill-rule:nonzero;"/>
            </g>
            <g transform="matrix(4.271568,0,0,4.38104,-8.201411,-186.194195)">
                <path d="M183.85,75.3L183.25,75L195.7,67.8L196,67.95L196,68.3L183.85,75.3Z" style="fill-rule:nonzero;"/>
            </g>
            <g transform="matrix(4.271568,0,0,4.38104,-8.201411,97.697233)">
                <path d="M196.3,46.15L196,46.35L195.7,46.15L195.7,32.1L196,31.95L196.3,32.1L196.3,46.15Z" style="fill-rule:nonzero;"/>
            </g>
            <g transform="matrix(4.271568,0,0,4.38104,-8.201411,192.108686)">
                <path d="M183.85,32.15L183.25,31.8L195.7,24.6L196,24.8L196,25.15L183.85,32.15Z" style="fill-rule:nonzero;"/>
            </g>
            <g transform="matrix(-2.197704,-3.756711,-3.66284,2.254026,1323.353155,985.276995)">
                <path d="M190.861,31.811L191.444,31.811L191.239,20.389L190.656,20.389L190.861,31.811Z" style="fill-rule:nonzero;"/>
            </g>
            <g transform="matrix(-3.689717,2.207432,2.152274,3.784277,1415.266405,-107.94698)">
                <path d="M186.83,23.794L187.525,23.794L180.093,11.053L179.751,11.658L186.83,23.794Z" style="fill-rule:nonzero;"/>
            </g>
            <g transform="matrix(0,4.38104,4.271568,0,773.282067,-419.265484)">
                <path d="M192.8,13.05L193.5,13.05L186.1,0.3L185.75,0.9L192.8,13.05Z" style="fill-rule:nonzero;"/>
            </g>
            <g transform="matrix(-2.197704,3.756711,3.66284,2.254026,1194.787526,-336.702515)">
                <path d="M190.656,14.711L191.239,14.711L191.444,3.289L190.861,3.289L190.656,14.711Z" style="fill-rule:nonzero;"/>
            </g>
            <g transform="matrix(3.689717,2.207432,2.152274,-3.784277,95.184271,-9.979825)">
                <path d="M205.411,12.932L206.106,12.932L198.821,0.116L198.468,0.72L205.411,12.932Z" style="fill-rule:nonzero;"/>
            </g>
            <g transform="matrix(3.689664,-2.207526,-2.152365,-3.784222,150.924407,890.402363)">
                <path d="M211.731,23.794L212.425,23.794L204.993,11.054L204.651,11.658L211.731,23.794Z" style="fill-rule:nonzero;"/>
            </g>
            <g transform="matrix(4.271568,0,0,4.38104,-8.201411,286.9582)">
                <rect x="205.6" y="11.85" width="0.6" height="11.4"/>
            </g>
            <g transform="matrix(4.271568,0,0,4.38104,-8.201411,192.108686)">
                <path d="M196,25.15L196,24.8L196.3,24.6L208.75,31.8L208.15,32.15L196,25.15Z" style="fill-rule:nonzero;"/>
            </g>
            <g transform="matrix(4.271568,0,0,4.38104,-8.201411,-281.481768)">
                <path d="M195.7,75.15L196.3,75.45L196.3,89.55L196,89.7L195.7,89.55L195.7,75.15Z" style="fill-rule:nonzero;"/>
            </g>
            <g transform="matrix(2.197704,-3.756711,-3.66284,-2.254026,720.976724,968.199068)">
                <path d="M191.302,95.545L191.885,95.545L192.048,85.555L191.465,85.555L191.302,95.545Z" style="fill-rule:nonzero;"/>
            </g>
            <g transform="matrix(2.045421,-3.846112,-3.750007,-2.097841,769.390011,971.055122)">
                <path d="M192.764,97.782L193.39,97.782L193.143,87.794L192.56,87.818L192.764,97.782Z" style="fill-rule:nonzero;"/>
            </g>
            <g transform="matrix(2.04545,3.846096,3.749991,-2.09787,92.125895,-536.525005)">
                <path d="M199.298,96.058L199.924,96.058L200.096,87.706L199.545,87.323L199.298,96.058Z" style="fill-rule:nonzero;"/>
            </g>
        </g>
    </g>
</svg>
