<?xml version="1.0" encoding="UTF-8" standalone="no"?>
<!DOCTYPE svg PUBLIC "-//W3C//DTD SVG 1.1//EN" "http://www.w3.org/Graphics/SVG/1.1/DTD/svg11.dtd">
<svg width="525" height="319" viewBox="0 0 525 319" version="1.1" xmlns="http://www.w3.org/2000/svg" xmlns:xlink="http://www.w3.org/1999/xlink" xml:space="preserve" xmlns:serif="http://www.serif.com/" style="fill-rule:evenodd;clip-rule:evenodd;stroke-linejoin:round;stroke-miterlimit:2;">
    <g id="Artboard1" transform="matrix(0.470113,0,0,0.468692,0,0)">
        <rect x="0" y="0" width="1116.667" height="679.167" style="fill:white;"/>
        <clipPath id="_clip1">
            <rect x="0" y="0" width="1116.667" height="679.167"/>
        </clipPath>
        <g clip-path="url(#_clip1)">
            <g transform="matrix(4.254292,0,0,4.267194,-10.210302,-10.411936)">
                <rect x="0" y="-0" width="268" height="164" style="fill:white;"/>
            </g>
            <g transform="matrix(2.143615,3.685913,3.674768,-2.150116,-321.966319,178.555601)">
                <path d="M70.856,129.869L71.55,129.869L64.118,117.128L63.776,117.733L70.856,129.869Z" style="fill-rule:nonzero;"/>
            </g>
            <g transform="matrix(0,4.267194,4.254292,0,-259.72455,-137.360989)">
                <rect x="67.25" y="120.5" width="0.6" height="11.4"/>
            </g>
            <g transform="matrix(4.254292,0,0,4.267194,-10.210302,-417.715663)">
                <path d="M81.6,123.35L81.95,123.35L82.15,123.65L74.95,136.1L74.6,135.5L81.6,123.35Z" style="fill-rule:nonzero;"/>
            </g>
            <g transform="matrix(4.254292,0,0,4.267194,-10.210302,-526.529122)">
                <path d="M74.6,136.7L74.95,136.1L82.15,148.55L81.95,148.85L81.6,148.85L74.6,136.7Z" style="fill-rule:nonzero;"/>
            </g>
            <g transform="matrix(3.734824,-2.043355,-2.037177,-3.746151,316.678007,771.465182)">
                <path d="M75.68,146.76L76.307,146.76L76.57,135.34L75.943,135.34L75.68,146.76Z" style="fill-rule:nonzero;"/>
            </g>
            <g transform="matrix(-2.143615,-3.685913,-3.674768,2.150116,968.015055,-14.80794)">
                <path d="M70.856,154.769L71.55,154.769L64.118,142.028L63.776,142.633L70.856,154.769Z" style="fill-rule:nonzero;"/>
            </g>
            <g transform="matrix(4.254292,0,0,4.267194,-10.210302,-526.529122)">
                <path d="M53.5,148.85L53.15,148.85L53,148.55L60.2,136.1L60.55,136.7L53.5,148.85Z" style="fill-rule:nonzero;"/>
            </g>
            <g transform="matrix(-3.734824,-2.043355,-2.037177,3.746151,748.691133,-320.265418)">
                <path d="M58.843,146.76L59.47,146.76L59.207,135.34L58.58,135.34L58.843,146.76Z" style="fill-rule:nonzero;"/>
            </g>
            <g transform="matrix(4.254292,0,0,4.267194,-10.210302,-417.715663)">
                <path d="M60.55,135.5L60.2,136.1L53,123.65L53.15,123.35L53.5,123.35L60.55,135.5Z" style="fill-rule:nonzero;"/>
            </g>
            <g transform="matrix(4.254292,0,0,4.267194,-10.210302,-472.122393)">
                <path d="M91.95,135.8L91.95,136.4L82.15,136.4L81.95,136.1L82.15,135.8L91.95,135.8Z" style="fill-rule:nonzero;"/>
            </g>
            <g transform="matrix(-2.143615,3.685913,3.674768,2.150116,171.518748,-500.649301)">
                <path d="M103.077,130.787L103.771,130.787L99.564,123.412L99.053,123.693L103.077,130.787Z" style="fill-rule:nonzero;"/>
            </g>
            <g transform="matrix(-3.648026,2.195453,2.188815,3.659089,523.754039,-561.369847)">
                <path d="M103.131,132.601L103.714,132.601L103.569,125.749L102.986,125.749L103.131,132.601Z" style="fill-rule:nonzero;"/>
            </g>
            <g transform="matrix(4.254292,0,0,4.267194,-10.210302,-365.869251)">
                <path d="M117.8,123.35L117.95,123.65L117.8,123.95L103.4,123.95L103.75,123.35L117.8,123.35Z" style="fill-rule:nonzero;"/>
            </g>
            <g transform="matrix(4.254292,0,0,4.267194,-10.210302,-311.249162)">
                <path d="M125.35,123.05L125,123.65L117.8,111.15L117.95,110.85L118.3,110.85L125.35,123.05Z" style="fill-rule:nonzero;"/>
            </g>
            <g transform="matrix(-3.648026,2.195453,2.188815,3.659089,708.284284,-523.23905)">
                <path d="M123.611,124.411L124.194,124.411L123.989,112.989L123.406,112.989L123.611,124.411Z" style="fill-rule:nonzero;"/>
            </g>
            <g transform="matrix(2.143615,3.685913,3.674768,-2.150116,-139.259802,-33.828045)">
                <path d="M135.656,117.369L136.35,117.369L128.918,104.628L128.576,105.233L135.656,117.369Z" style="fill-rule:nonzero;"/>
            </g>
            <g transform="matrix(4.254292,0,0,4.267194,-10.210302,-311.249162)">
                <path d="M146.4,110.85L146.75,110.85L146.95,111.15L139.75,123.65L139.4,123.05L146.4,110.85Z" style="fill-rule:nonzero;"/>
            </g>
            <g transform="matrix(3.734824,2.043355,2.037177,-3.746151,-178.81719,339.600266)">
                <path d="M140.743,124.41L141.37,124.41L141.107,112.99L140.48,112.99L140.743,124.41Z" style="fill-rule:nonzero;"/>
            </g>
            <g transform="matrix(4.254292,0,0,4.267194,-10.210302,-420.27598)">
                <path d="M139.4,124.25L139.75,123.65L146.95,136.1L146.75,136.4L146.4,136.4L139.4,124.25Z" style="fill-rule:nonzero;"/>
            </g>
            <g transform="matrix(-2.143615,-3.685913,-3.674768,2.150116,1336.848571,303.934702)">
                <path d="M135.656,142.319L136.35,142.319L128.918,129.578L128.576,130.183L135.656,142.319Z" style="fill-rule:nonzero;"/>
            </g>
            <g transform="matrix(0,-4.267194,-4.254292,0,1120.79333,684.50066)">
                <rect x="132.05" y="127.8" width="0.6" height="11.4"/>
            </g>
            <g transform="matrix(4.254292,0,0,4.267194,-10.210302,-420.27598)">
                <path d="M118.3,136.4L117.95,136.4L117.8,136.1L125,123.65L125.35,124.25L118.3,136.4Z" style="fill-rule:nonzero;"/>
            </g>
            <g transform="matrix(4.254292,0,0,4.267194,-10.210302,-365.869251)">
                <path d="M156.05,123.35L156.05,123.95L146.95,123.95L146.75,123.65L146.95,123.35L156.05,123.35Z" style="fill-rule:nonzero;"/>
            </g>
            <g transform="matrix(-3.648026,2.195453,2.188815,3.659089,1050.289234,-587.319066)">
                <path d="M165.852,119.611L166.435,119.611L166.298,110.539L165.672,110.565L165.852,119.611Z" style="fill-rule:nonzero;"/>
            </g>
            <g transform="matrix(4.254292,0,0,4.267194,-10.210302,-472.122393)">
                <path d="M38.6,136.4L38.95,135.8L53,135.8L53.15,136.1L53,136.4L38.6,136.4Z" style="fill-rule:nonzero;"/>
            </g>
            <g transform="matrix(2.143615,-3.685913,-3.674768,-2.150116,587.044143,517.746666)">
                <path d="M38.391,148.571L39.085,148.571L31.959,136.079L31.265,136.079L38.391,148.571Z" style="fill-rule:nonzero;"/>
            </g>
            <g transform="matrix(2.143615,-3.685913,-3.674768,-2.150116,587.124255,464.759995)">
                <path d="M20.4,154.769L21.094,154.769L28.35,142.331L27.656,142.331L20.4,154.769Z" style="fill-rule:nonzero;"/>
            </g>
            <g transform="matrix(3.734823,-2.043358,-2.03718,-3.74615,312.018173,636.42568)">
                <path d="M13.124,161.978L13.75,161.978L14.07,147.736L13.475,147.377L13.124,161.978Z" style="fill-rule:nonzero;"/>
            </g>
            <g transform="matrix(1.902577,3.816695,3.805155,-1.908347,-5.678148,373.107638)">
                <path d="M63.385,42.64L64.055,42.64L57.481,29.492L57.101,30.073L63.385,42.64Z" style="fill-rule:nonzero;"/>
            </g>
            <g transform="matrix(0,4.267194,4.254292,0,82.107864,265.675547)">
                <rect x="60.2" y="33.1" width="0.6" height="11.4"/>
            </g>
            <g transform="matrix(4.254292,0,0,4.267194,-10.210302,328.616644)">
                <path d="M74.55,35.9L74.9,35.9L75.05,36.2L67.85,48.65L67.55,48.05L74.55,35.9Z" style="fill-rule:nonzero;"/>
            </g>
            <g transform="matrix(4.254292,0,0,4.267194,-10.210302,219.589826)">
                <path d="M67.55,49.25L67.85,48.65L75.05,61.15L74.9,61.45L74.55,61.45L67.55,49.25Z" style="fill-rule:nonzero;"/>
            </g>
            <g transform="matrix(3.648026,-2.195453,-2.188815,-3.659089,148.972922,808.409543)">
                <path d="M68.861,59.311L69.444,59.311L69.239,47.889L68.656,47.889L68.861,59.311Z" style="fill-rule:nonzero;"/>
            </g>
            <g transform="matrix(-2.143615,-3.685913,-3.674768,2.150116,601.575139,519.98713)">
                <path d="M63.768,67.348L64.463,67.348L57.056,54.65L56.689,55.212L63.768,67.348Z" style="fill-rule:nonzero;"/>
            </g>
            <g transform="matrix(4.254292,0,0,4.267194,-10.210302,219.589826)">
                <path d="M46.45,61.45L46.1,61.45L45.95,61.15L53.15,48.65L53.5,49.25L46.45,61.45Z" style="fill-rule:nonzero;"/>
            </g>
            <g transform="matrix(-3.648026,-2.195453,-2.188815,3.659089,517.635624,378.612944)">
                <path d="M51.556,59.311L52.139,59.311L52.344,47.889L51.761,47.889L51.556,59.311Z" style="fill-rule:nonzero;"/>
            </g>
            <g transform="matrix(4.254292,0,0,4.267194,-10.210302,328.616644)">
                <path d="M53.5,48.05L53.15,48.65L45.95,36.2L46.1,35.9L46.45,35.9L53.5,48.05Z" style="fill-rule:nonzero;"/>
            </g>
            <g transform="matrix(4.254292,0,0,4.267194,-10.210302,274.209957)">
                <path d="M84.9,48.35L84.9,48.95L75.05,48.95L74.9,48.65L75.05,48.35L84.9,48.35Z" style="fill-rule:nonzero;"/>
            </g>
            <g transform="matrix(-2.143615,3.685913,3.674768,2.150116,447.45207,86.714444)">
                <path d="M95.977,43.337L96.671,43.337L92.464,35.962L91.928,36.286L95.977,43.337Z" style="fill-rule:nonzero;"/>
            </g>
            <g transform="matrix(-3.648026,2.195453,2.188815,3.659089,659.202335,147.118359)">
                <path d="M96.022,45.167L96.605,45.167L96.528,38.333L95.902,38.359L96.022,45.167Z" style="fill-rule:nonzero;"/>
            </g>
            <g transform="matrix(4.254292,0,0,4.267194,-10.210302,380.463056)">
                <path d="M110.7,35.9L110.9,36.2L110.7,36.5L96.3,36.5L96.65,35.9L110.7,35.9Z" style="fill-rule:nonzero;"/>
            </g>
            <g transform="matrix(4.254292,0,0,4.267194,-10.210302,435.083145)">
                <path d="M118.25,35.6L117.9,36.2L110.7,23.7L110.9,23.4L111.25,23.4L118.25,35.6Z" style="fill-rule:nonzero;"/>
            </g>
            <g transform="matrix(-3.648026,2.195453,2.188815,3.659089,843.984857,185.392427)">
                <path d="M116.561,36.961L117.144,36.961L116.939,25.539L116.356,25.539L116.561,36.961Z" style="fill-rule:nonzero;"/>
            </g>
            <g transform="matrix(2.143615,3.685913,3.674768,-2.150116,167.112848,177.480475)">
                <path d="M128.556,29.919L129.25,29.919L121.818,17.178L121.476,17.783L128.556,29.919Z" style="fill-rule:nonzero;"/>
            </g>
            <g transform="matrix(4.254292,0,0,4.267194,-10.210302,435.083145)">
                <path d="M139.35,23.4L139.7,23.4L139.85,23.7L132.65,36.2L132.3,35.6L139.35,23.4Z" style="fill-rule:nonzero;"/>
            </g>
            <g transform="matrix(3.648058,2.1954,2.188762,-3.659121,2.535403,376.551413)">
                <path d="M133.456,36.961L134.039,36.961L134.244,25.539L133.661,25.539L133.456,36.961Z" style="fill-rule:nonzero;"/>
            </g>
            <g transform="matrix(4.254292,0,0,4.267194,-10.210302,326.056327)">
                <path d="M132.3,36.8L132.65,36.2L139.85,48.65L139.7,48.95L139.35,48.95L132.3,36.8Z" style="fill-rule:nonzero;"/>
            </g>
            <g transform="matrix(-2.143588,-3.685928,-3.674784,2.150089,970.062367,838.961776)">
                <path d="M128.556,54.869L129.25,54.869L121.818,42.128L121.476,42.733L128.556,54.869Z" style="fill-rule:nonzero;"/>
            </g>
            <g transform="matrix(0,-4.267194,-4.254292,0,718.762678,1027.583114)">
                <rect x="125" y="40.35" width="0.6" height="11.4"/>
            </g>
            <g transform="matrix(4.254292,0,0,4.267194,-10.210302,326.056327)">
                <path d="M111.25,48.95L110.9,48.95L110.7,48.65L117.9,36.2L118.25,36.8L111.25,48.95Z" style="fill-rule:nonzero;"/>
            </g>
            <g transform="matrix(4.254292,0,0,4.267194,-10.210302,380.463056)">
                <path d="M149,35.9L149,36.5L139.85,36.5L139.7,36.2L139.85,35.9L149,35.9Z" style="fill-rule:nonzero;"/>
            </g>
            <g transform="matrix(-2.143615,3.685913,3.674768,2.150116,905.565245,-73.517335)">
                <path d="M160.816,31.514L161.511,31.514L156.875,23.485L156.364,23.765L160.816,31.514Z" style="fill-rule:nonzero;"/>
            </g>
            <g transform="matrix(4.254292,0,0,4.267194,-10.210302,274.209957)">
                <path d="M31.55,48.95L31.9,48.35L45.95,48.35L46.1,48.65L45.95,48.95L31.55,48.95Z" style="fill-rule:nonzero;"/>
            </g>
            <g transform="matrix(2.143615,-3.685913,-3.674768,-2.150116,250.897254,676.846607)">
                <path d="M31.362,61.159L32.057,61.159L24.888,48.641L24.193,48.641L31.362,61.159Z" style="fill-rule:nonzero;"/>
            </g>
            <g transform="matrix(2.14361,-3.685915,-3.674771,-2.150111,251.069497,623.806767)">
                <path d="M13.35,67.369L14.044,67.369L21.3,54.931L20.606,54.931L13.35,67.369Z" style="fill-rule:nonzero;"/>
            </g>
            <g transform="matrix(3.648026,-2.195453,-2.188815,-3.659089,141.02255,662.698001)">
                <path d="M6.359,74.542L6.942,74.542L6.745,60.316L6.136,59.981L6.359,74.542Z" style="fill-rule:nonzero;"/>
            </g>
            <g transform="matrix(0,4.267194,4.254292,0,605.385807,-130.320118)">
                <path d="M168.1,31L168.7,31L168.7,16.4L168.1,16.75L168.1,31Z" style="fill-rule:nonzero;"/>
            </g>
            <g transform="matrix(-3.805155,1.908347,1.902577,3.816695,1630.492059,-395.916828)">
                <path d="M225.735,88.09L226.405,88.09L219.831,74.942L219.429,75.478L225.735,88.09Z" style="fill-rule:nonzero;"/>
            </g>
            <g transform="matrix(-4.254292,0,0,4.267194,1908.050137,-7.424918)">
                <rect x="225.15" y="75.95" width="0.6" height="11.4"/>
            </g>
            <g transform="matrix(4.254292,0,0,4.267194,-10.210302,84.746482)">
                <path d="M235.3,74.1L235.3,74.45L235,74.6L222.55,67.4L223.15,67.1L235.3,74.1Z" style="fill-rule:nonzero;"/>
            </g>
            <g transform="matrix(4.254292,0,0,4.267194,-10.210302,84.746482)">
                <path d="M247.5,67.1L248.1,67.4L235.6,74.6L235.3,74.45L235.3,74.1L247.5,67.1Z" style="fill-rule:nonzero;"/>
            </g>
            <g transform="matrix(2.188815,3.659089,3.648026,-2.195453,219.349877,-341.132477)">
                <path d="M240.061,78.811L240.644,78.811L240.439,67.389L239.856,67.389L240.061,78.811Z" style="fill-rule:nonzero;"/>
            </g>
            <g transform="matrix(3.805155,-1.908347,-1.902577,-3.816695,256.431439,1125.51311)">
                <path d="M250.685,88.09L251.355,88.09L244.781,74.942L244.379,75.478L250.685,88.09Z" style="fill-rule:nonzero;"/>
            </g>
            <g transform="matrix(4.254292,0,0,4.267194,-10.210302,-99.596318)">
                <path d="M235.3,89.2L235.3,88.85L235.6,88.7L248.1,95.9L247.5,96.2L235.3,89.2Z" style="fill-rule:nonzero;"/>
            </g>
            <g transform="matrix(2.188815,-3.659089,-3.648026,-2.195453,815.072462,1381.633037)">
                <path d="M239.856,95.911L240.439,95.911L240.644,84.489L240.061,84.489L239.856,95.911Z" style="fill-rule:nonzero;"/>
            </g>
            <g transform="matrix(4.254292,0,0,4.267194,-10.210302,-99.596318)">
                <path d="M223.15,96.2L222.55,95.9L235,88.7L235.3,88.85L235.3,89.2L223.15,96.2Z" style="fill-rule:nonzero;"/>
            </g>
            <g transform="matrix(4.254292,0,0,4.267194,-10.210302,176.917924)">
                <path d="M235.6,67.05L235.3,67.25L235,67.05L235,53L235.3,52.85L235.6,53L235.6,67.05Z" style="fill-rule:nonzero;"/>
            </g>
            <g transform="matrix(4.254292,0,0,4.267194,-10.210302,268.875922)">
                <path d="M223.15,53.05L222.55,52.7L235,45.5L235.3,45.7L235.3,46.05L223.15,53.05Z" style="fill-rule:nonzero;"/>
            </g>
            <g transform="matrix(-2.188815,-3.659089,-3.648026,2.195453,1645.577837,1228.626154)">
                <path d="M230.173,52.689L230.757,52.689L230.577,41.311L229.993,41.311L230.173,52.689Z" style="fill-rule:nonzero;"/>
            </g>
            <g transform="matrix(-3.674768,2.150116,2.143615,3.685913,1674.305244,-95.741087)">
                <path d="M226.131,44.694L226.825,44.694L219.393,31.953L219.051,32.558L226.131,44.694Z" style="fill-rule:nonzero;"/>
            </g>
            <g transform="matrix(0,4.267194,4.254292,0,846.391471,-405.12744)">
                <path d="M232.1,33.95L232.8,33.95L225.4,21.2L225.05,21.8L232.1,33.95Z" style="fill-rule:nonzero;"/>
            </g>
            <g transform="matrix(-2.188815,3.659089,3.648026,2.195453,1365.044684,-346.787876)">
                <path d="M229.993,35.589L230.577,35.589L230.757,24.211L230.173,24.211L229.993,35.589Z" style="fill-rule:nonzero;"/>
            </g>
            <g transform="matrix(3.674768,2.150116,2.143615,-3.685913,70.750568,153.696135)">
                <path d="M244.757,33.845L245.452,33.845L238.124,21.003L237.772,21.608L244.757,33.845Z" style="fill-rule:nonzero;"/>
            </g>
            <g transform="matrix(3.674795,-2.15007,-2.143569,-3.685939,215.863041,1199.83144)">
                <path d="M251.08,44.694L251.775,44.694L244.343,31.953L244.001,32.558L251.08,44.694Z" style="fill-rule:nonzero;"/>
            </g>
            <g transform="matrix(4.254292,0,0,4.267194,-10.210302,361.260681)">
                <rect x="244.9" y="32.75" width="0.6" height="11.4"/>
            </g>
            <g transform="matrix(4.254292,0,0,4.267194,-10.210302,268.875922)">
                <path d="M235.3,46.05L235.3,45.7L235.6,45.5L248.1,52.7L247.5,53.05L235.3,46.05Z" style="fill-rule:nonzero;"/>
            </g>
            <g transform="matrix(4.254292,0,0,4.267194,-10.210302,-192.407797)">
                <path d="M235,96.4L235.6,96.05L235.6,110.45L235.3,110.6L235,110.45L235,96.4Z" style="fill-rule:nonzero;"/>
            </g>
            <g transform="matrix(2.188815,-3.659089,-3.648026,-2.195453,879.116335,1303.706079)">
                <path d="M231.226,116.977L231.809,116.977L231.946,108.196L231.337,108.53L231.226,116.977Z" style="fill-rule:nonzero;"/>
            </g>
            <g transform="matrix(2.188815,-3.659089,-3.648026,-2.195453,868.105769,1300.415686)">
                <path d="M229.323,114.275L229.907,114.275L230.027,107.175L229.443,107.175L229.323,114.275Z" style="fill-rule:nonzero;"/>
            </g>
            <g transform="matrix(4.254292,0,0,4.267194,-10.210302,-398.299929)">
                <path d="M222.55,123.05L222.85,122.85L223.15,123.05L223.15,132.05L222.55,132.05L222.55,123.05Z" style="fill-rule:nonzero;"/>
            </g>
            <g transform="matrix(4.254292,0,0,4.267194,-10.210302,-468.495277)">
                <path d="M210.25,132.35L210.55,131.85L222.85,138.95L222.85,139.3L222.55,139.5L210.25,132.35Z" style="fill-rule:nonzero;"/>
            </g>
            <g transform="matrix(4.254292,0,0,4.267194,-10.210302,-468.068558)">
                <path d="M235,131.85L235.3,132L235.3,132.35L223.15,139.4L222.85,139.2L222.85,138.85L235,131.85Z" style="fill-rule:nonzero;"/>
            </g>
            <g transform="matrix(4.254292,0,0,4.267194,-10.210302,-467.428479)">
                <path d="M247.8,138.7L247.8,139.4L235.3,132.2L235.3,131.85L235.6,131.7L247.8,138.7Z" style="fill-rule:nonzero;"/>
            </g>
            <g transform="matrix(-2.188815,3.659089,3.648026,2.195453,1051.435685,-1090.400981)">
                <path d="M242.456,143.611L243.039,143.611L243.244,132.189L242.661,132.189L242.456,143.611Z" style="fill-rule:nonzero;"/>
            </g>
            <g transform="matrix(3.674768,2.150116,2.143615,-3.685913,-153.47666,64.109527)">
                <path d="M257.223,141.785L257.918,141.785L250.608,129.012L250.256,129.617L257.223,141.785Z" style="fill-rule:nonzero;"/>
            </g>
            <g transform="matrix(3.674768,-2.150116,-2.143615,-3.685913,454.489698,1163.861323)">
                <path d="M263.531,152.644L264.225,152.644L256.793,139.903L256.451,140.508L263.531,152.644Z" style="fill-rule:nonzero;"/>
            </g>
            <g transform="matrix(4.254292,0,0,4.267194,-10.210302,-560.453317)">
                <rect x="257.35" y="140.75" width="0.6" height="11.4"/>
            </g>
            <g transform="matrix(0,-4.267194,-4.254292,0,1740.431017,1102.685715)">
                <path d="M257.35,163.7L258.05,163.7L250.65,150.95L250.3,151.55L257.35,163.7Z" style="fill-rule:nonzero;"/>
            </g>
            <g transform="matrix(-3.674768,-2.150116,-2.143615,3.685913,2241.109056,-42.776704)">
                <path d="M244.457,163.595L245.152,163.595L237.824,150.753L237.472,151.358L244.457,163.595Z" style="fill-rule:nonzero;"/>
            </g>
            <g transform="matrix(-2.188815,-3.659089,-3.648026,2.195453,2119.942392,576.307289)">
                <path d="M242.661,160.711L243.244,160.711L243.039,149.289L242.456,149.289L242.661,160.711Z" style="fill-rule:nonzero;"/>
            </g>
            <g transform="matrix(4.254292,0,0,4.267194,-10.210302,-561.093397)">
                <path d="M235.6,153.65L235.3,153.8L235,153.65L235,139.25L235.6,139.6L235.6,153.65Z" style="fill-rule:nonzero;"/>
            </g>
            <g transform="matrix(2.127146,0,0,2.133597,187.057578,43.625979)">
                <g transform="matrix(20,0,0,20,107.181639,37.672852)">
                </g>
                <text x="92.738px" y="37.673px" style="font-family:'Helvetica';font-size:20px;">N</text>
            </g>
            <g transform="matrix(2.127146,0,0,2.133597,324.303433,70.189264)">
                <g transform="matrix(20,0,0,20,172.816041,50.122852)">
                </g>
                <text x="157.259px" y="50.123px" style="font-family:'Helvetica';font-size:20px;">O</text>
            </g>
            <g transform="matrix(2.127146,0,0,2.133597,172.061218,230.209056)">
                <g transform="matrix(20,0,0,20,100.131649,125.122852)">
                </g>
                <text x="85.688px" y="125.123px" style="font-family:'Helvetica';font-size:20px;">N</text>
            </g>
            <g transform="matrix(2.127146,0,0,2.133597,309.307052,256.772363)">
                <g transform="matrix(20,0,0,20,165.766041,137.572862)">
                </g>
                <text x="150.209px" y="137.573px" style="font-family:'Helvetica';font-size:20px;">O</text>
            </g>
            <g transform="matrix(2.127146,0,0,2.133597,456.141614,82.990848)">
                <g transform="matrix(20,0,0,20,233.681659,56.122852)">
                </g>
                <text x="219.238px" y="56.123px" style="font-family:'Helvetica';font-size:20px;">N</text>
            </g>
            <g transform="matrix(2.127146,0,0,2.133597,459.823279,47.146414)">
                <g transform="matrix(20,0,0,20,228.752303,39.322852)">
                </g>
                <text x="220.969px" y="39.323px" style="font-family:'Helvetica';font-size:20px;">*</text>
            </g>
            <g transform="matrix(2.127146,0,0,2.133597,147.757318,130.143346)">
                <g transform="matrix(20,0,0,20,130.942544,78.222852)">
                </g>
                <text x="74.263px" y="78.223px" style="font-family:'Helvetica';font-size:20px;">MBBA</text>
            </g>
            <g transform="matrix(2.127146,0,0,2.133597,149.316112,316.619752)">
                <g transform="matrix(20,0,0,20,128.355354,165.622856)">
                </g>
                <text x="74.996px" y="165.623px" style="font-family:'Helvetica';font-size:20px;">EBBA</text>
            </g>
            <g transform="matrix(2.127146,0,0,2.133597,426.302645,315.872993)">
                <g transform="matrix(20,0,0,20,324.612999,165.272856)">
                </g>
                <text x="205.211px" y="165.273px" style="font-family:'Helvetica';font-size:20px;">Chiral <tspan x="263.437px " y="165.273px ">d</tspan>opant</text>
            </g>
        </g>
    </g>
</svg>
