<?xml version="1.0" encoding="UTF-8" standalone="no"?>
<!DOCTYPE svg PUBLIC "-//W3C//DTD SVG 1.1//EN" "http://www.w3.org/Graphics/SVG/1.1/DTD/svg11.dtd">
<svg width="304px" height="176px" viewBox="0 0 152 88" version="1.1" xmlns="http://www.w3.org/2000/svg" xmlns:xlink="http://www.w3.org/1999/xlink" xml:space="preserve" xmlns:serif="http://www.serif.com/" style="fill-rule:evenodd;clip-rule:evenodd;stroke-linejoin:round;stroke-miterlimit:2;">
    <g id="Artboard1" transform="matrix(0.649484,0,0,0.375893,0,0)">
        <rect x="0" y="0" width="234" height="234" style="fill:white;"/>
        <clipPath id="_clip1">
            <rect x="0" y="0" width="234" height="234"/>
        </clipPath>
        <g clip-path="url(#_clip1)">
            <g transform="matrix(1.53968,0,0,2.66033,-78.0244,-218.72)">
                <g transform="matrix(1,0,0,1,139.118,79.6365)">
                    <g transform="matrix(8,0,0,8,48.3136,28.9595)">
                        <path d="M0.076,-0.717L0.191,-0.717L0.553,-0.136L0.553,-0.717L0.646,-0.717L0.646,-0L0.537,-0L0.169,-0.581L0.169,-0L0.076,-0L0.076,-0.717Z" style="fill:rgb(0,134,192);fill-rule:nonzero;"/>
                    </g>
                </g>
                <g transform="matrix(-0.866116,0.499844,0.499844,0.866116,146.374,67.4416)">
                    <path d="M16.066,44.274L16.758,44.274L14.105,39.677L13.759,40.277L16.066,44.274Z" style="fill-rule:nonzero;"/>
                </g>
                <g transform="matrix(0.866116,-0.499844,-0.499844,-0.866116,160.627,156.872)">
                    <path d="M15.598,40.308L16.291,40.308L18.165,37.06L17.819,36.46L15.598,40.308Z" style="fill-rule:nonzero;"/>
                </g>
                <g transform="matrix(0,-1,-1,0,221.941,124.652)">
                    <path d="M27.598,57.677L28.291,57.677L26.241,54.131L25.548,54.131L27.598,57.677Z" style="fill-rule:nonzero;"/>
                </g>
                <g transform="matrix(0,1,1,0,105.971,76.2479)">
                    <path d="M20.113,58.293L20.806,58.293L24.129,52.542L23.61,52.242L20.113,58.293Z" style="fill-rule:nonzero;"/>
                </g>
                <g transform="matrix(1,0,0,1,139.118,48.984)">
                    <path d="M41.962,50.947L42.147,51.518L35.421,53.705L35.121,53.488L35.155,53.161L41.962,50.947Z" style="fill-rule:nonzero;"/>
                </g>
                <g transform="matrix(1,0,0,1,139.118,33.2394)">
                    <rect x="23.81" y="56.33" width="0.6" height="7.738"/>
                </g>
                <g transform="matrix(1,0,0,1,139.118,33.2394)">
                    <rect x="25.883" y="56.33" width="0.6" height="7.738"/>
                </g>
                <g transform="matrix(0.500043,0.866,0.866,-0.500043,113.333,120.366)">
                    <path d="M15.698,39.254L16.298,39.254L16.298,38.94L15.698,38.593L15.698,39.254Z" style="fill-rule:nonzero;"/>
                </g>
                <g transform="matrix(-0.500047,-0.865998,-0.865998,0.500047,188.9,108.974)">
                    <path d="M11.624,39.758L12.224,39.758L12.224,33.385L11.624,34.425L11.624,39.758Z" style="fill-rule:nonzero;"/>
                </g>
                <g transform="matrix(0.500043,0.866,0.866,-0.500043,111.333,124.015)">
                    <rect x="11.462" y="34.936" width="0.6" height="7.875"/>
                </g>
                <g transform="matrix(-0.950975,-0.309269,-0.309269,0.950975,253.244,46.7907)">
                    <rect x="48.295" y="59.086" width="0.6" height="6.764"/>
                </g>
                <g transform="matrix(-0.500043,0.866,0.866,0.500043,103.467,63.7466)">
                    <rect x="7.822" y="51.851" width="0.6" height="6.771"/>
                </g>
                <g transform="matrix(-1,0,0,1,179.712,72.1929)">
                    <path d="M19.997,44.494L20.597,44.494L20.597,36.949L19.997,37.295L19.997,44.494Z" style="fill:rgb(0,134,192);fill-rule:nonzero;"/>
                </g>
                <g transform="matrix(-0.866116,-0.499844,-0.499844,0.866116,205.358,79.2561)">
                    <path d="M24.421,48.999L25.114,48.999L21.637,42.974L21.117,43.274L24.421,48.999Z" style="fill:rgb(0,134,192);fill-rule:nonzero;"/>
                </g>
                <g transform="matrix(1,0,0,1,139.118,61.4881)">
                    <path d="M34.179,44.668L34.479,44.148L40.28,47.5L40.246,47.827L39.946,48L37.712,46.709L37.712,46.552L37.44,46.552L34.179,44.668Z" style="fill:rgb(0,134,192);fill-rule:nonzero;"/>
                </g>
                <g transform="matrix(1,0,0,1,139.118,73.2886)">
                    <path d="M39.946,36.2L40.246,36.027L40.546,36.245L40.546,44.321L39.946,43.975L39.946,36.2Z" style="fill:rgb(0,134,192);fill-rule:nonzero;"/>
                </g>
                <g transform="matrix(1,0,0,1,139.118,75.993)">
                    <path d="M42.019,34.828L42.619,34.828L42.619,42.815L42.019,42.468L42.019,34.828Z" style="fill:rgb(0,134,192);fill-rule:nonzero;"/>
                </g>
                <g transform="matrix(1,0,0,1,139.118,62.6715)">
                    <path d="M40.546,46.862L40.246,46.644L40.28,46.317L47.087,44.103L47.272,44.674L40.546,46.862Z" style="fill:rgb(0,134,192);fill-rule:nonzero;"/>
                </g>
                <g transform="matrix(0.809026,-0.587773,-0.587773,-0.809026,174.444,178.053)">
                    <path d="M55.041,44.218L55.641,44.218L55.641,40.375L55.041,39.939L55.041,44.218Z" style="fill:rgb(0,134,192);fill-rule:nonzero;"/>
                </g>
                <g transform="matrix(0.809018,-0.587784,-0.587784,-0.809018,173.287,177.575)">
                    <rect x="53.621" y="38.073" width="0.6" height="5.077" style="fill:rgb(0,134,192);"/>
                </g>
                <g transform="matrix(1,0,0,1,139.118,88.7002)">
                    <path d="M40.28,32.462L40.274,32.399L40.513,32.537L40.28,32.462Z" style="fill:rgb(0,134,192);fill-rule:nonzero;"/>
                </g>
                <g transform="matrix(1,0,0,1,139.118,79.6365)">
                    <g transform="matrix(8,0,0,8,12.2834,25.6791)">
                        <path d="M0.076,-0.717L0.191,-0.717L0.553,-0.136L0.553,-0.717L0.646,-0.717L0.646,-0L0.537,-0L0.169,-0.581L0.169,-0L0.076,-0L0.076,-0.717Z" style="fill-rule:nonzero;"/>
                    </g>
                </g>
                <g transform="matrix(1,0,0,1,139.118,79.6365)">
                    <g transform="matrix(8,0,0,8,43.1886,22.1157)">
                        <path d="M0.076,-0.717L0.191,-0.717L0.553,-0.136L0.553,-0.717L0.646,-0.717L0.646,-0L0.537,-0L0.169,-0.581L0.169,-0L0.076,-0L0.076,-0.717Z" style="fill-rule:nonzero;"/>
                    </g>
                </g>
                <g transform="matrix(1,0,0,1,139.118,79.6365)">
                    <g transform="matrix(8,0,0,8,22.0351,8.47341)">
                        <path d="M0.386,-0.737C0.512,-0.737 0.606,-0.696 0.667,-0.615C0.715,-0.551 0.738,-0.47 0.738,-0.371C0.738,-0.264 0.711,-0.175 0.657,-0.104C0.593,-0.021 0.502,0.021 0.384,0.021C0.273,0.021 0.187,-0.015 0.124,-0.088C0.067,-0.159 0.039,-0.248 0.039,-0.355C0.039,-0.452 0.063,-0.535 0.111,-0.604C0.173,-0.693 0.265,-0.737 0.386,-0.737ZM0.396,-0.066C0.481,-0.066 0.543,-0.097 0.581,-0.158C0.62,-0.219 0.639,-0.29 0.639,-0.37C0.639,-0.454 0.617,-0.522 0.573,-0.573C0.528,-0.625 0.468,-0.65 0.392,-0.65C0.317,-0.65 0.257,-0.625 0.21,-0.574C0.163,-0.523 0.14,-0.448 0.14,-0.349C0.14,-0.269 0.16,-0.202 0.2,-0.148C0.24,-0.093 0.305,-0.066 0.396,-0.066Z" style="fill-rule:nonzero;"/>
                    </g>
                </g>
                <g transform="matrix(1,0,0,1,139.118,79.6365)">
                    <g transform="matrix(8,0,0,8,2.07877,43.041)">
                        <path d="M0.386,-0.737C0.512,-0.737 0.606,-0.696 0.667,-0.615C0.715,-0.551 0.738,-0.47 0.738,-0.371C0.738,-0.264 0.711,-0.175 0.657,-0.104C0.593,-0.021 0.502,0.021 0.384,0.021C0.273,0.021 0.187,-0.015 0.124,-0.088C0.067,-0.159 0.039,-0.248 0.039,-0.355C0.039,-0.452 0.063,-0.535 0.111,-0.604C0.173,-0.693 0.265,-0.737 0.386,-0.737ZM0.396,-0.066C0.481,-0.066 0.543,-0.097 0.581,-0.158C0.62,-0.219 0.639,-0.29 0.639,-0.37C0.639,-0.454 0.617,-0.522 0.573,-0.573C0.528,-0.625 0.468,-0.65 0.392,-0.65C0.317,-0.65 0.257,-0.625 0.21,-0.574C0.163,-0.523 0.14,-0.448 0.14,-0.349C0.14,-0.269 0.16,-0.202 0.2,-0.148C0.24,-0.093 0.305,-0.066 0.396,-0.066Z" style="fill-rule:nonzero;"/>
                    </g>
                </g>
                <g transform="matrix(1,0,0,1,139.118,79.6365)">
                    <g transform="matrix(8,0,0,8,17.4084,44.0428)">
                        <path d="M0.076,-0.717L0.191,-0.717L0.553,-0.136L0.553,-0.717L0.646,-0.717L0.646,-0L0.537,-0L0.169,-0.581L0.169,-0L0.076,-0L0.076,-0.717Z" style="fill:rgb(0,134,192);fill-rule:nonzero;"/>
                    </g>
                </g>
                <g transform="matrix(1,0,0,1,139.118,79.6365)">
                    <g transform="matrix(8,0,0,8,27.3827,26.759)">
                        <path d="M0.076,-0.717L0.191,-0.717L0.553,-0.136L0.553,-0.717L0.646,-0.717L0.646,-0L0.537,-0L0.169,-0.581L0.169,-0L0.076,-0L0.076,-0.717Z" style="fill:rgb(0,134,192);fill-rule:nonzero;"/>
                    </g>
                </g>
                <g transform="matrix(1,0,0,1,139.118,79.6365)">
                    <g transform="matrix(8,0,0,8,27.1601,61.4047)">
                        <path d="M0.386,-0.737C0.512,-0.737 0.606,-0.696 0.667,-0.615C0.715,-0.551 0.738,-0.47 0.738,-0.371C0.738,-0.264 0.711,-0.175 0.657,-0.104C0.593,-0.021 0.502,0.021 0.384,0.021C0.273,0.021 0.187,-0.015 0.124,-0.088C0.067,-0.159 0.039,-0.248 0.039,-0.355C0.039,-0.452 0.063,-0.535 0.111,-0.604C0.173,-0.693 0.265,-0.737 0.386,-0.737ZM0.396,-0.066C0.481,-0.066 0.543,-0.097 0.581,-0.158C0.62,-0.219 0.639,-0.29 0.639,-0.37C0.639,-0.454 0.617,-0.522 0.573,-0.573C0.528,-0.625 0.468,-0.65 0.392,-0.65C0.317,-0.65 0.257,-0.625 0.21,-0.574C0.163,-0.523 0.14,-0.448 0.14,-0.349C0.14,-0.269 0.16,-0.202 0.2,-0.148C0.24,-0.093 0.305,-0.066 0.396,-0.066Z" style="fill:rgb(0,134,192);fill-rule:nonzero;"/>
                    </g>
                </g>
                <g transform="matrix(1,0,0,1,139.118,79.6365)">
                    <g transform="matrix(8,0,0,8,22.5334,45.4291)">
                        <path d="M0.076,-0.717L0.191,-0.717L0.553,-0.136L0.553,-0.717L0.646,-0.717L0.646,-0L0.537,-0L0.169,-0.581L0.169,-0L0.076,-0L0.076,-0.717Z" style="fill:rgb(213,94,0);fill-rule:nonzero;"/>
                    </g>
                </g>
                <g transform="matrix(-0.500043,0.866,0.866,0.500043,125.407,67.7781)">
                    <rect x="17.628" y="42.954" width="0.6" height="7.865" style="fill:rgb(0,134,192);"/>
                </g>
                <g transform="matrix(0.500056,0.865993,0.865993,-0.500056,120.86,127.792)">
                    <rect x="12.955" y="25.34" width="0.6" height="6.79" style="fill:rgb(0,134,192);"/>
                </g>
                <g transform="matrix(1,0,0,1,139.118,37.7985)">
                    <rect x="29.971" y="54.233" width="0.6" height="7.372" style="fill:rgb(0,134,192);"/>
                </g>
                <g transform="matrix(0.866116,-0.499844,-0.499844,-0.866116,151.98,165.338)">
                    <path d="M26.325,21.089L27.018,21.089L30.312,15.38L29.792,15.081L26.325,21.089Z" style="fill:rgb(213,94,0);fill-rule:nonzero;"/>
                    <path d="M27.595,22.089L31.678,15.014L29.426,13.715L24.593,22.089L27.595,22.089ZM26.325,21.089L29.792,15.081L30.312,15.38L27.018,21.089L26.325,21.089Z" style="fill:white;"/>
                </g>
                <g transform="matrix(1,0,0,1,139.118,117.343)">
                    <path d="M39.621,20.068L39.32,19.549L45.071,16.226L45.371,16.399L45.405,16.726L39.621,20.068Z" style="fill:rgb(213,94,0);fill-rule:nonzero;"/>
                </g>
                <g transform="matrix(1,0,0,1,139.118,102.326)">
                    <path d="M45.671,31.197L45.371,31.415L45.071,31.242L45.071,20.068L45.371,19.895L45.671,20.113L45.671,31.197Z" style="fill:rgb(213,94,0);fill-rule:nonzero;"/>
                </g>
                <g transform="matrix(1,0,0,1,139.118,102.326)">
                    <rect x="47.144" y="21.401" width="0.6" height="8.508" style="fill:rgb(213,94,0);"/>
                </g>
                <g transform="matrix(1,0,0,1,139.118,84.8692)">
                    <path d="M45.405,37.026L45.371,37.352L45.071,37.525L35.396,31.935L35.396,31.242L45.405,37.026Z" style="fill:rgb(213,94,0);fill-rule:nonzero;"/>
                </g>
                <g transform="matrix(0,1,1,0,135.971,85.7479)">
                    <path d="M30.363,38.543L31.056,38.543L34.379,32.792L33.86,32.492L30.363,38.543Z" style="fill:rgb(213,94,0);fill-rule:nonzero;"/>
                </g>
                <g transform="matrix(1,0,0,1,139.118,79.6365)">
                    <g transform="matrix(8,0,0,8,53.4386,60.5124)">
                        <path d="M0.076,-0.717L0.191,-0.717L0.553,-0.136L0.553,-0.717L0.646,-0.717L0.646,-0L0.537,-0L0.169,-0.581L0.169,-0L0.076,-0L0.076,-0.717Z" style="fill:rgb(213,94,0);fill-rule:nonzero;"/>
                    </g>
                </g>
                <g transform="matrix(1,0,0,1,139.118,79.6365)">
                    <g transform="matrix(8,0,0,8,53.4386,41.8657)">
                        <path d="M0.076,-0.717L0.191,-0.717L0.553,-0.136L0.553,-0.717L0.646,-0.717L0.646,-0L0.537,-0L0.169,-0.581L0.169,-0L0.076,-0L0.076,-0.717Z" style="fill:rgb(213,94,0);fill-rule:nonzero;"/>
                    </g>
                </g>
                <g transform="matrix(1,0,0,1,139.118,79.6365)">
                    <g transform="matrix(8,0,0,8,12.3288,62.791)">
                        <path d="M0.386,-0.737C0.512,-0.737 0.606,-0.696 0.667,-0.615C0.715,-0.551 0.738,-0.47 0.738,-0.371C0.738,-0.264 0.711,-0.175 0.657,-0.104C0.593,-0.021 0.502,0.021 0.384,0.021C0.273,0.021 0.187,-0.015 0.124,-0.088C0.067,-0.159 0.039,-0.248 0.039,-0.355C0.039,-0.452 0.063,-0.535 0.111,-0.604C0.173,-0.693 0.265,-0.737 0.386,-0.737ZM0.396,-0.066C0.481,-0.066 0.543,-0.097 0.581,-0.158C0.62,-0.219 0.639,-0.29 0.639,-0.37C0.639,-0.454 0.617,-0.522 0.573,-0.573C0.528,-0.625 0.468,-0.65 0.392,-0.65C0.317,-0.65 0.257,-0.625 0.21,-0.574C0.163,-0.523 0.14,-0.448 0.14,-0.349C0.14,-0.269 0.16,-0.202 0.2,-0.148C0.24,-0.093 0.305,-0.066 0.396,-0.066Z" style="fill:rgb(213,94,0);fill-rule:nonzero;"/>
                    </g>
                </g>
                <g transform="matrix(1,0,0,1,139.118,116.17)">
                    <path d="M45.405,17.898L45.371,17.572L45.671,17.354L52.401,19.542L52.215,20.113L45.405,17.898Z" style="fill:rgb(213,94,0);fill-rule:nonzero;"/>
                </g>
                <g transform="matrix(-0.809026,-0.587773,-0.587773,0.809026,263.377,148.171)">
                    <path d="M61.045,26.163L61.645,26.163L61.645,19.827L61.045,19.391L61.045,26.163Z" style="fill:rgb(213,94,0);fill-rule:nonzero;"/>
                </g>
                <g transform="matrix(-0.80902,-0.587781,-0.587781,0.80902,259.832,145.624)">
                    <rect x="58.755" y="21.095" width="0.6" height="5.046" style="fill:rgb(213,94,0);"/>
                </g>
                <g transform="matrix(-1,0.00020223,0.00020223,1,261.555,96.7766)">
                    <path d="M58.969,31.189L59.711,31.189L63.474,26.011L62.989,25.658L58.969,31.189Z" style="fill:rgb(213,94,0);fill-rule:nonzero;"/>
                </g>
                <g transform="matrix(1,0,0,1,139.118,88.484)">
                    <path d="M52.212,31.197L52.397,31.768L45.671,33.955L45.371,33.738L45.405,33.411L52.212,31.197Z" style="fill:rgb(213,94,0);fill-rule:nonzero;"/>
                </g>
                <g transform="matrix(1,0,0,1,139.118,72.7394)">
                    <rect x="34.06" y="36.58" width="0.6" height="7.738" style="fill:rgb(213,94,0);"/>
                </g>
                <g transform="matrix(1,0,0,1,139.118,72.7394)">
                    <rect x="36.133" y="36.58" width="0.6" height="7.738" style="fill:rgb(213,94,0);"/>
                </g>
                <g transform="matrix(-0.950975,-0.309269,-0.309269,0.950975,267.134,88.4925)">
                    <rect x="58.545" y="39.336" width="0.6" height="6.764" style="fill:rgb(213,94,0);"/>
                </g>
                <g transform="matrix(-0.500043,0.866,0.866,0.500043,135.945,84.496)">
                    <rect x="18.072" y="32.101" width="0.6" height="6.771" style="fill:rgb(213,94,0);"/>
                    <path d="M17.072,31.101L17.072,39.871L19.672,39.871L19.672,31.101L17.072,31.101ZM18.672,32.101L18.672,38.871L18.072,38.871L18.072,32.101L18.672,32.101Z" style="fill:white;"/>
                </g>
                <g transform="matrix(1,0,0,1,139.118,141.004)">
                    <rect x="35.096" y="2.611" width="0.6" height="7.41" style="fill:rgb(213,94,0);"/>
                </g>
                <g transform="matrix(1,0,0,1,139.118,106.609)">
                    <path d="M25.122,19.722L25.722,19.722L25.722,26.959L25.122,27.305L25.122,19.722Z" style="fill:rgb(213,94,0);fill-rule:nonzero;"/>
                </g>
                <g transform="matrix(0.500043,0.866,0.866,-0.500043,135.636,125.013)">
                    <rect x="22.749" y="13.39" width="0.6" height="7.875" style="fill:rgb(213,94,0);"/>
                </g>
                <g transform="matrix(0.500043,0.866,0.866,-0.500043,133.561,125.013)">
                    <rect x="21.712" y="15.186" width="0.6" height="7.875" style="fill:rgb(213,94,0);"/>
                </g>
                <g transform="matrix(1.25933,0,0,1.18782,22.6631,-22.5317)">
                    <rect x="117.564" y="103.61" width="6.035" height="7.162" style="fill:white;"/>
                </g>
                <g transform="matrix(1.25933,0,0,1.13089,22.6631,18.258)">
                    <rect x="117.564" y="103.61" width="6.035" height="7.162" style="fill:white;"/>
                </g>
                <g transform="matrix(1.25933,0,0,1.13434,-2.42018,-17.977)">
                    <rect x="117.564" y="103.61" width="6.035" height="7.162" style="fill:white;"/>
                </g>
                <g transform="matrix(1,0,0,1,139.118,79.6365)">
                    <g transform="matrix(8,0,0,8,32.2851,28.2234)">
                        <path d="M0.386,-0.737C0.512,-0.737 0.606,-0.696 0.667,-0.615C0.715,-0.551 0.738,-0.47 0.738,-0.371C0.738,-0.264 0.711,-0.175 0.657,-0.104C0.593,-0.021 0.502,0.021 0.384,0.021C0.273,0.021 0.187,-0.015 0.124,-0.088C0.067,-0.159 0.039,-0.248 0.039,-0.355C0.039,-0.452 0.063,-0.535 0.111,-0.604C0.173,-0.693 0.265,-0.737 0.386,-0.737ZM0.396,-0.066C0.481,-0.066 0.543,-0.097 0.581,-0.158C0.62,-0.219 0.639,-0.29 0.639,-0.37C0.639,-0.454 0.617,-0.522 0.573,-0.573C0.528,-0.625 0.468,-0.65 0.392,-0.65C0.317,-0.65 0.257,-0.625 0.21,-0.574C0.163,-0.523 0.14,-0.448 0.14,-0.349C0.14,-0.269 0.16,-0.202 0.2,-0.148C0.24,-0.093 0.305,-0.066 0.396,-0.066Z" style="fill:rgb(213,94,0);fill-rule:nonzero;"/>
                    </g>
                </g>
                <g transform="matrix(1,0,0,1,139.118,79.6365)">
                    <g transform="matrix(8,0,0,8,32.5077,62.7129)">
                        <path d="M0.076,-0.717L0.191,-0.717L0.553,-0.136L0.553,-0.717L0.646,-0.717L0.646,-0L0.537,-0L0.169,-0.581L0.169,-0L0.076,-0L0.076,-0.717Z" style="fill:rgb(213,94,0);fill-rule:nonzero;"/>
                    </g>
                </g>
                <g transform="matrix(1,0,0,1,139.118,79.6365)">
                    <g transform="matrix(8,0,0,8,7.20377,26.8372)">
                        <path d="M0.386,-0.737C0.512,-0.737 0.606,-0.696 0.667,-0.615C0.715,-0.551 0.738,-0.47 0.738,-0.371C0.738,-0.264 0.711,-0.175 0.657,-0.104C0.593,-0.021 0.502,0.021 0.384,0.021C0.273,0.021 0.187,-0.015 0.124,-0.088C0.067,-0.159 0.039,-0.248 0.039,-0.355C0.039,-0.452 0.063,-0.535 0.111,-0.604C0.173,-0.693 0.265,-0.737 0.386,-0.737ZM0.396,-0.066C0.481,-0.066 0.543,-0.097 0.581,-0.158C0.62,-0.219 0.639,-0.29 0.639,-0.37C0.639,-0.454 0.617,-0.522 0.573,-0.573C0.528,-0.625 0.468,-0.65 0.392,-0.65C0.317,-0.65 0.257,-0.625 0.21,-0.574C0.163,-0.523 0.14,-0.448 0.14,-0.349C0.14,-0.269 0.16,-0.202 0.2,-0.148C0.24,-0.093 0.305,-0.066 0.396,-0.066Z" style="fill:rgb(0,134,192);fill-rule:nonzero;"/>
                    </g>
                </g>
                <g transform="matrix(-0.500043,0.866,0.866,0.500043,125.407,71.3718)">
                    <rect x="16.591" y="41.157" width="0.6" height="7.866" style="fill:rgb(0,134,192);"/>
                </g>
                <path d="M170.207,134.339C168.351,134.51 170.113,136.978 171.124,136.002C171.182,135.945 171.455,134.877 171.295,134.59C171.161,134.349 170.527,134.19 170.454,134.172" style="fill:white;"/>
                <path d="M161.887,116.84C160.678,117.628 160.196,117.868 161.105,119.005C161.74,119.799 163.407,117.959 162.709,117.4" style="fill:white;"/>
            </g>
            <g transform="matrix(1.53968,0,0,2.66033,-4.06672,8.76874)">
                <g transform="matrix(8,0,0,8,12.5334,29.6791)">
                    <path d="M0.076,-0.717L0.191,-0.717L0.553,-0.136L0.553,-0.717L0.646,-0.717L0.646,-0L0.537,-0L0.169,-0.581L0.169,-0L0.076,-0L0.076,-0.717Z" style="fill-rule:nonzero;"/>
                </g>
                <g transform="matrix(8,0,0,8,22.5077,46.9629)">
                    <path d="M0.076,-0.717L0.191,-0.717L0.553,-0.136L0.553,-0.717L0.646,-0.717L0.646,-0L0.537,-0L0.169,-0.581L0.169,-0L0.076,-0L0.076,-0.717Z" style="fill-rule:nonzero;"/>
                </g>
                <g transform="matrix(8,0,0,8,43.4386,44.7624)">
                    <path d="M0.076,-0.717L0.191,-0.717L0.553,-0.136L0.553,-0.717L0.646,-0.717L0.646,-0L0.537,-0L0.169,-0.581L0.169,-0L0.076,-0L0.076,-0.717Z" style="fill-rule:nonzero;"/>
                </g>
                <g transform="matrix(8,0,0,8,43.4386,26.1157)">
                    <path d="M0.076,-0.717L0.191,-0.717L0.553,-0.136L0.553,-0.717L0.646,-0.717L0.646,-0L0.537,-0L0.169,-0.581L0.169,-0L0.076,-0L0.076,-0.717Z" style="fill-rule:nonzero;"/>
                </g>
                <g transform="matrix(8,0,0,8,22.2851,12.4734)">
                    <path d="M0.386,-0.737C0.512,-0.737 0.606,-0.696 0.667,-0.615C0.715,-0.551 0.738,-0.47 0.738,-0.371C0.738,-0.264 0.711,-0.175 0.657,-0.104C0.593,-0.021 0.502,0.021 0.384,0.021C0.273,0.021 0.187,-0.015 0.124,-0.088C0.067,-0.159 0.039,-0.248 0.039,-0.355C0.039,-0.452 0.063,-0.535 0.111,-0.604C0.173,-0.693 0.265,-0.737 0.386,-0.737ZM0.396,-0.066C0.481,-0.066 0.543,-0.097 0.581,-0.158C0.62,-0.219 0.639,-0.29 0.639,-0.37C0.639,-0.454 0.617,-0.522 0.573,-0.573C0.528,-0.625 0.468,-0.65 0.392,-0.65C0.317,-0.65 0.257,-0.625 0.21,-0.574C0.163,-0.523 0.14,-0.448 0.14,-0.349C0.14,-0.269 0.16,-0.202 0.2,-0.148C0.24,-0.093 0.305,-0.066 0.396,-0.066Z" style="fill-rule:nonzero;"/>
                </g>
                <g transform="matrix(8,0,0,8,2.32877,47.041)">
                    <path d="M0.386,-0.737C0.512,-0.737 0.606,-0.696 0.667,-0.615C0.715,-0.551 0.738,-0.47 0.738,-0.371C0.738,-0.264 0.711,-0.175 0.657,-0.104C0.593,-0.021 0.502,0.021 0.384,0.021C0.273,0.021 0.187,-0.015 0.124,-0.088C0.067,-0.159 0.039,-0.248 0.039,-0.355C0.039,-0.452 0.063,-0.535 0.111,-0.604C0.173,-0.693 0.265,-0.737 0.386,-0.737ZM0.396,-0.066C0.481,-0.066 0.543,-0.097 0.581,-0.158C0.62,-0.219 0.639,-0.29 0.639,-0.37C0.639,-0.454 0.617,-0.522 0.573,-0.573C0.528,-0.625 0.468,-0.65 0.392,-0.65C0.317,-0.65 0.257,-0.625 0.21,-0.574C0.163,-0.523 0.14,-0.448 0.14,-0.349C0.14,-0.269 0.16,-0.202 0.2,-0.148C0.24,-0.093 0.305,-0.066 0.396,-0.066Z" style="fill-rule:nonzero;"/>
                </g>
                <g transform="matrix(1,0,0,1,0,-79.4774)">
                    <path d="M15.122,110.472L15.722,110.472L15.722,117.659L15.122,118.005L15.122,110.472Z" style="fill-rule:nonzero;"/>
                </g>
                <g transform="matrix(0.866091,-0.499887,-0.499887,-0.866091,56.8881,143.558)">
                    <path d="M16.33,111.844L17.023,111.844L20.329,106.113L19.809,105.813L16.33,111.844Z" style="fill-rule:nonzero;"/>
                </g>
                <g transform="matrix(1,0,0,1,0,-68.7814)">
                    <path d="M29.599,110.818L29.299,110.299L35.071,106.963L35.371,107.136L35.405,107.463L29.599,110.818Z" style="fill-rule:nonzero;"/>
                </g>
                <g transform="matrix(1,0,0,1,0,-83.8102)">
                    <path d="M35.671,121.947L35.371,122.165L35.071,121.992L35.071,110.818L35.371,110.645L35.671,110.863L35.671,121.947Z" style="fill-rule:nonzero;"/>
                </g>
                <g transform="matrix(1,0,0,1,0,-83.8102)">
                    <rect x="37.144" y="112.151" width="0.6" height="8.508"/>
                </g>
                <g transform="matrix(1,0,0,1,0,-101.267)">
                    <path d="M35.405,127.775L35.371,128.102L35.071,128.275L25.396,122.685L25.396,121.992L35.405,127.775Z" style="fill-rule:nonzero;"/>
                </g>
                <g transform="matrix(0,1,1,0,-103.901,0.37849)">
                    <path d="M20.346,129.297L21.039,129.297L24.375,123.525L23.855,123.225L20.346,129.297Z" style="fill-rule:nonzero;"/>
                </g>
                <g transform="matrix(1,0,0,1,0,-69.9666)">
                    <path d="M35.405,108.648L35.371,108.322L35.671,108.104L42.401,110.292L42.215,110.863L35.405,108.648Z" style="fill-rule:nonzero;"/>
                </g>
                <g transform="matrix(-0.809073,-0.587708,-0.587708,0.809073,159.473,-26.4989)">
                    <path d="M51.034,116.917L51.634,116.917L51.633,110.54L51.033,110.104L51.034,116.917Z" style="fill-rule:nonzero;"/>
                </g>
                <g transform="matrix(-0.808988,-0.587825,-0.587825,0.808988,155.938,-29.0306)">
                    <rect x="48.743" y="111.808" width="0.6" height="5.086"/>
                </g>
                <g transform="matrix(-1,0.00013482,0.00013482,1,102.451,-89.3218)">
                    <path d="M48.993,121.906L49.734,121.906L53.474,116.761L52.989,116.409L48.993,121.906Z" style="fill-rule:nonzero;"/>
                </g>
                <g transform="matrix(1,0,0,1,0,-97.6526)">
                    <path d="M42.212,121.947L42.397,122.518L35.671,124.705L35.371,124.488L35.405,124.161L42.212,121.947Z" style="fill-rule:nonzero;"/>
                </g>
                <g transform="matrix(1,0,0,1,0,-113.397)">
                    <rect x="24.06" y="127.33" width="0.6" height="7.738"/>
                </g>
                <g transform="matrix(1,0,0,1,0,-113.397)">
                    <rect x="26.133" y="127.33" width="0.6" height="7.738"/>
                </g>
                <g transform="matrix(0.500048,0.865997,0.865997,-0.500048,-87.0705,83.6661)">
                    <rect x="12.749" y="104.14" width="0.6" height="7.875"/>
                </g>
                <g transform="matrix(0.500036,0.866005,0.866005,-0.500036,-89.1458,83.6645)">
                    <rect x="11.712" y="105.936" width="0.6" height="7.875"/>
                </g>
                <g transform="matrix(-0.950955,-0.30933,-0.30933,0.950955,136.558,-96.2402)">
                    <rect x="48.537" y="130.04" width="0.6" height="6.812"/>
                </g>
                <g transform="matrix(-0.500048,0.865997,0.865997,0.500048,-96.7401,-47.6102)">
                    <rect x="8.083" y="122.832" width="0.6" height="6.796"/>
                </g>
                <g transform="matrix(1,0,0,1,0,-45.083)">
                    <rect x="25.096" y="93.361" width="0.6" height="7.36"/>
                </g>
            </g>
            <g transform="matrix(1.53968,0,0,2.66033,-133.201,-113.481)">
                <g transform="matrix(8,0,0,8,97.0989,122.349)">
                    <path d="M0.378,-0.737C0.469,-0.737 0.54,-0.713 0.59,-0.665C0.64,-0.617 0.668,-0.563 0.673,-0.502L0.579,-0.502C0.568,-0.548 0.546,-0.585 0.514,-0.612C0.482,-0.639 0.437,-0.652 0.379,-0.652C0.309,-0.652 0.252,-0.628 0.208,-0.578C0.165,-0.528 0.143,-0.452 0.143,-0.35C0.143,-0.266 0.163,-0.198 0.202,-0.145C0.241,-0.093 0.3,-0.067 0.377,-0.067C0.449,-0.067 0.504,-0.094 0.541,-0.149C0.561,-0.178 0.576,-0.216 0.585,-0.264L0.68,-0.264C0.672,-0.188 0.644,-0.125 0.596,-0.074C0.539,-0.012 0.462,0.019 0.366,0.019C0.282,0.019 0.212,-0.007 0.156,-0.057C0.081,-0.124 0.044,-0.227 0.044,-0.366C0.044,-0.472 0.072,-0.559 0.128,-0.626C0.188,-0.7 0.272,-0.737 0.378,-0.737Z" style="fill-rule:nonzero;"/>
                </g>
                <g transform="matrix(8,0,0,8,102.876,122.349)">
                    <path d="M0.132,-0.139C0.132,-0.114 0.141,-0.094 0.16,-0.079C0.178,-0.064 0.2,-0.057 0.226,-0.057C0.257,-0.057 0.286,-0.064 0.315,-0.079C0.364,-0.102 0.389,-0.141 0.389,-0.195L0.389,-0.266C0.378,-0.259 0.364,-0.254 0.347,-0.249C0.33,-0.244 0.314,-0.241 0.297,-0.239L0.244,-0.232C0.212,-0.228 0.188,-0.222 0.172,-0.212C0.145,-0.197 0.132,-0.173 0.132,-0.139ZM0.345,-0.317C0.365,-0.319 0.378,-0.328 0.385,-0.342C0.389,-0.35 0.391,-0.361 0.391,-0.376C0.391,-0.406 0.38,-0.428 0.359,-0.441C0.338,-0.455 0.307,-0.461 0.268,-0.461C0.222,-0.461 0.189,-0.449 0.17,-0.424C0.159,-0.411 0.152,-0.39 0.149,-0.363L0.067,-0.363C0.069,-0.428 0.089,-0.473 0.13,-0.498C0.17,-0.523 0.216,-0.536 0.27,-0.536C0.331,-0.536 0.381,-0.524 0.419,-0.5C0.458,-0.477 0.477,-0.441 0.477,-0.391L0.477,-0.09C0.477,-0.081 0.478,-0.073 0.482,-0.068C0.486,-0.062 0.494,-0.06 0.506,-0.06C0.51,-0.06 0.514,-0.06 0.519,-0.06C0.524,-0.061 0.529,-0.062 0.535,-0.063L0.535,0.002C0.521,0.006 0.511,0.009 0.503,0.01C0.496,0.011 0.486,0.011 0.474,0.011C0.444,0.011 0.422,0 0.408,-0.021C0.401,-0.032 0.396,-0.049 0.393,-0.069C0.375,-0.046 0.349,-0.026 0.316,-0.008C0.282,0.009 0.245,0.018 0.205,0.018C0.157,0.018 0.117,0.003 0.086,-0.027C0.055,-0.056 0.04,-0.093 0.04,-0.137C0.04,-0.186 0.055,-0.223 0.085,-0.25C0.116,-0.277 0.155,-0.293 0.205,-0.299L0.345,-0.317Z" style="fill-rule:nonzero;"/>
                </g>
                <g transform="matrix(8,0,0,8,107.325,122.349)">
                    <path d="M0.086,-0.603C0.088,-0.639 0.094,-0.666 0.105,-0.683C0.126,-0.713 0.166,-0.728 0.224,-0.728C0.23,-0.728 0.235,-0.727 0.241,-0.727C0.247,-0.727 0.254,-0.726 0.261,-0.726L0.261,-0.646C0.252,-0.646 0.246,-0.647 0.241,-0.647C0.237,-0.647 0.234,-0.647 0.23,-0.647C0.203,-0.647 0.187,-0.64 0.182,-0.626C0.177,-0.612 0.174,-0.577 0.174,-0.521L0.261,-0.521L0.261,-0.451L0.173,-0.451L0.173,-0L0.086,-0L0.086,-0.451L0.014,-0.451L0.014,-0.521L0.086,-0.521L0.086,-0.603Z" style="fill-rule:nonzero;"/>
                </g>
                <g transform="matrix(8,0,0,8,109.407,122.349)">
                    <path d="M0.086,-0.603C0.088,-0.639 0.094,-0.666 0.105,-0.683C0.126,-0.713 0.166,-0.728 0.224,-0.728C0.23,-0.728 0.235,-0.727 0.241,-0.727C0.247,-0.727 0.254,-0.726 0.261,-0.726L0.261,-0.646C0.252,-0.646 0.246,-0.647 0.241,-0.647C0.237,-0.647 0.234,-0.647 0.23,-0.647C0.203,-0.647 0.187,-0.64 0.182,-0.626C0.177,-0.612 0.174,-0.577 0.174,-0.521L0.261,-0.521L0.261,-0.451L0.173,-0.451L0.173,-0L0.086,-0L0.086,-0.451L0.014,-0.451L0.014,-0.521L0.086,-0.521L0.086,-0.603Z" style="fill-rule:nonzero;"/>
                </g>
                <g transform="matrix(8,0,0,8,111.63,122.349)">
                    <path d="M0.282,-0.535C0.319,-0.535 0.355,-0.526 0.39,-0.509C0.425,-0.491 0.451,-0.469 0.47,-0.441C0.487,-0.415 0.499,-0.384 0.505,-0.349C0.51,-0.325 0.513,-0.286 0.513,-0.233L0.129,-0.233C0.131,-0.18 0.144,-0.138 0.167,-0.106C0.19,-0.074 0.227,-0.058 0.276,-0.058C0.322,-0.058 0.358,-0.073 0.386,-0.103C0.401,-0.121 0.412,-0.141 0.419,-0.164L0.505,-0.164C0.503,-0.145 0.496,-0.123 0.483,-0.1C0.47,-0.076 0.455,-0.057 0.439,-0.042C0.413,-0.016 0.38,0.002 0.34,0.011C0.319,0.016 0.295,0.019 0.269,0.019C0.203,0.019 0.148,-0.005 0.103,-0.052C0.058,-0.1 0.035,-0.166 0.035,-0.251C0.035,-0.335 0.058,-0.404 0.104,-0.456C0.149,-0.508 0.209,-0.535 0.282,-0.535ZM0.422,-0.303C0.419,-0.341 0.41,-0.372 0.397,-0.395C0.373,-0.437 0.333,-0.458 0.277,-0.458C0.236,-0.458 0.203,-0.443 0.175,-0.414C0.148,-0.385 0.133,-0.348 0.132,-0.303L0.422,-0.303Z" style="fill-rule:nonzero;"/>
                </g>
                <g transform="matrix(8,0,0,8,116.079,122.349)">
                    <path d="M0.064,-0.521L0.154,-0.521L0.154,-0L0.064,-0L0.064,-0.521ZM0.064,-0.717L0.154,-0.717L0.154,-0.618L0.064,-0.618L0.064,-0.717Z" style="fill-rule:nonzero;"/>
                </g>
                <g transform="matrix(8,0,0,8,117.857,122.349)">
                    <path d="M0.064,-0.523L0.148,-0.523L0.148,-0.449C0.173,-0.479 0.199,-0.501 0.227,-0.515C0.254,-0.528 0.285,-0.535 0.319,-0.535C0.393,-0.535 0.443,-0.509 0.469,-0.457C0.484,-0.429 0.491,-0.388 0.491,-0.335L0.491,-0L0.401,-0L0.401,-0.33C0.401,-0.361 0.397,-0.387 0.387,-0.407C0.372,-0.439 0.343,-0.456 0.302,-0.456C0.281,-0.456 0.264,-0.453 0.251,-0.449C0.227,-0.442 0.206,-0.428 0.188,-0.406C0.173,-0.389 0.163,-0.371 0.159,-0.353C0.155,-0.334 0.152,-0.308 0.152,-0.274L0.152,-0L0.064,-0L0.064,-0.523Z" style="fill-rule:nonzero;"/>
                </g>
                <g transform="matrix(8,0,0,8,122.306,122.349)">
                    <path d="M0.282,-0.535C0.319,-0.535 0.355,-0.526 0.39,-0.509C0.425,-0.491 0.451,-0.469 0.47,-0.441C0.487,-0.415 0.499,-0.384 0.505,-0.349C0.51,-0.325 0.513,-0.286 0.513,-0.233L0.129,-0.233C0.131,-0.18 0.144,-0.138 0.167,-0.106C0.19,-0.074 0.227,-0.058 0.276,-0.058C0.322,-0.058 0.358,-0.073 0.386,-0.103C0.401,-0.121 0.412,-0.141 0.419,-0.164L0.505,-0.164C0.503,-0.145 0.496,-0.123 0.483,-0.1C0.47,-0.076 0.455,-0.057 0.439,-0.042C0.413,-0.016 0.38,0.002 0.34,0.011C0.319,0.016 0.295,0.019 0.269,0.019C0.203,0.019 0.148,-0.005 0.103,-0.052C0.058,-0.1 0.035,-0.166 0.035,-0.251C0.035,-0.335 0.058,-0.404 0.104,-0.456C0.149,-0.508 0.209,-0.535 0.282,-0.535ZM0.422,-0.303C0.419,-0.341 0.41,-0.372 0.397,-0.395C0.373,-0.437 0.333,-0.458 0.277,-0.458C0.236,-0.458 0.203,-0.443 0.175,-0.414C0.148,-0.385 0.133,-0.348 0.132,-0.303L0.422,-0.303Z" style="fill-rule:nonzero;"/>
                </g>
            </g>
            <g transform="matrix(1.53968,0,0,2.66033,-125.65,-106.57)">
                <g transform="matrix(8,0,0,8,173.46,119.752)">
                    <path d="M0.14,-0.231C0.142,-0.191 0.152,-0.158 0.168,-0.132C0.201,-0.085 0.257,-0.061 0.339,-0.061C0.375,-0.061 0.409,-0.066 0.438,-0.077C0.496,-0.097 0.525,-0.133 0.525,-0.185C0.525,-0.224 0.513,-0.252 0.489,-0.269C0.464,-0.285 0.425,-0.299 0.373,-0.311L0.275,-0.333C0.212,-0.347 0.167,-0.363 0.141,-0.38C0.095,-0.41 0.072,-0.455 0.072,-0.515C0.072,-0.579 0.095,-0.632 0.139,-0.673C0.184,-0.715 0.247,-0.735 0.329,-0.735C0.404,-0.735 0.468,-0.717 0.52,-0.681C0.573,-0.645 0.599,-0.587 0.599,-0.507L0.508,-0.507C0.503,-0.545 0.493,-0.575 0.477,-0.595C0.447,-0.633 0.397,-0.651 0.326,-0.651C0.268,-0.651 0.227,-0.639 0.202,-0.615C0.177,-0.591 0.165,-0.563 0.165,-0.531C0.165,-0.496 0.179,-0.47 0.208,-0.454C0.228,-0.444 0.271,-0.431 0.339,-0.415L0.439,-0.392C0.488,-0.381 0.525,-0.366 0.552,-0.347C0.597,-0.313 0.62,-0.264 0.62,-0.201C0.62,-0.121 0.591,-0.064 0.533,-0.03C0.476,0.004 0.409,0.021 0.332,0.021C0.243,0.021 0.173,-0.002 0.123,-0.047C0.072,-0.093 0.047,-0.154 0.048,-0.231L0.14,-0.231Z" style="fill-rule:nonzero;"/>
                </g>
                <g transform="matrix(8,0,0,8,178.796,119.752)">
                    <path d="M0.082,-0.669L0.171,-0.669L0.171,-0.523L0.254,-0.523L0.254,-0.451L0.171,-0.451L0.171,-0.11C0.171,-0.092 0.177,-0.079 0.189,-0.073C0.196,-0.07 0.208,-0.068 0.224,-0.068C0.228,-0.068 0.232,-0.068 0.237,-0.068C0.242,-0.068 0.248,-0.069 0.254,-0.069L0.254,-0C0.244,0.003 0.234,0.005 0.223,0.006C0.212,0.008 0.2,0.008 0.188,0.008C0.146,0.008 0.119,-0.002 0.104,-0.023C0.089,-0.044 0.082,-0.071 0.082,-0.105L0.082,-0.451L0.011,-0.451L0.011,-0.523L0.082,-0.523L0.082,-0.669Z" style="fill-rule:nonzero;"/>
                </g>
                <g transform="matrix(8,0,0,8,181.018,119.752)">
                    <path d="M0.132,-0.139C0.132,-0.114 0.141,-0.094 0.16,-0.079C0.178,-0.064 0.2,-0.057 0.226,-0.057C0.257,-0.057 0.286,-0.064 0.315,-0.079C0.364,-0.102 0.389,-0.141 0.389,-0.195L0.389,-0.266C0.378,-0.259 0.364,-0.254 0.347,-0.249C0.33,-0.244 0.314,-0.241 0.297,-0.239L0.244,-0.232C0.212,-0.228 0.188,-0.222 0.172,-0.212C0.145,-0.197 0.132,-0.173 0.132,-0.139ZM0.345,-0.317C0.365,-0.319 0.378,-0.328 0.385,-0.342C0.389,-0.35 0.391,-0.361 0.391,-0.376C0.391,-0.406 0.38,-0.428 0.359,-0.441C0.338,-0.455 0.307,-0.461 0.268,-0.461C0.222,-0.461 0.189,-0.449 0.17,-0.424C0.159,-0.411 0.152,-0.39 0.149,-0.363L0.067,-0.363C0.069,-0.428 0.089,-0.473 0.13,-0.498C0.17,-0.523 0.216,-0.536 0.27,-0.536C0.331,-0.536 0.381,-0.524 0.419,-0.5C0.458,-0.477 0.477,-0.441 0.477,-0.391L0.477,-0.09C0.477,-0.081 0.478,-0.073 0.482,-0.068C0.486,-0.062 0.494,-0.06 0.506,-0.06C0.51,-0.06 0.514,-0.06 0.519,-0.06C0.524,-0.061 0.529,-0.062 0.535,-0.063L0.535,0.002C0.521,0.006 0.511,0.009 0.503,0.01C0.496,0.011 0.486,0.011 0.474,0.011C0.444,0.011 0.422,0 0.408,-0.021C0.401,-0.032 0.396,-0.049 0.393,-0.069C0.375,-0.046 0.349,-0.026 0.316,-0.008C0.282,0.009 0.245,0.018 0.205,0.018C0.157,0.018 0.117,0.003 0.086,-0.027C0.055,-0.056 0.04,-0.093 0.04,-0.137C0.04,-0.186 0.055,-0.223 0.085,-0.25C0.116,-0.277 0.155,-0.293 0.205,-0.299L0.345,-0.317Z" style="fill-rule:nonzero;"/>
                </g>
                <g transform="matrix(8,0,0,8,185.467,119.752)">
                    <path d="M0.266,-0.538C0.325,-0.538 0.373,-0.524 0.41,-0.495C0.447,-0.466 0.469,-0.417 0.477,-0.347L0.391,-0.347C0.386,-0.379 0.374,-0.406 0.355,-0.427C0.337,-0.449 0.307,-0.459 0.266,-0.459C0.21,-0.459 0.17,-0.432 0.146,-0.377C0.13,-0.342 0.123,-0.298 0.123,-0.246C0.123,-0.194 0.134,-0.15 0.156,-0.114C0.178,-0.078 0.213,-0.06 0.26,-0.06C0.297,-0.06 0.326,-0.071 0.347,-0.094C0.368,-0.116 0.383,-0.146 0.391,-0.185L0.477,-0.185C0.467,-0.116 0.442,-0.065 0.403,-0.033C0.364,-0.001 0.314,0.015 0.253,0.015C0.185,0.015 0.131,-0.01 0.09,-0.06C0.049,-0.11 0.029,-0.172 0.029,-0.247C0.029,-0.339 0.051,-0.41 0.096,-0.461C0.14,-0.513 0.197,-0.538 0.266,-0.538Z" style="fill-rule:nonzero;"/>
                </g>
                <g transform="matrix(8,0,0,8,189.467,119.752)">
                    <path d="M0.063,-0.717L0.147,-0.717L0.147,-0.301L0.373,-0.523L0.485,-0.523L0.285,-0.327L0.496,-0L0.384,-0L0.221,-0.264L0.147,-0.196L0.147,-0L0.063,-0L0.063,-0.717Z" style="fill-rule:nonzero;"/>
                </g>
                <g transform="matrix(8,0,0,8,193.467,119.752)">
                    <path d="M0.282,-0.535C0.319,-0.535 0.355,-0.526 0.39,-0.509C0.425,-0.491 0.451,-0.469 0.47,-0.441C0.487,-0.415 0.499,-0.384 0.505,-0.349C0.51,-0.325 0.513,-0.286 0.513,-0.233L0.129,-0.233C0.131,-0.18 0.144,-0.138 0.167,-0.106C0.19,-0.074 0.227,-0.058 0.276,-0.058C0.322,-0.058 0.358,-0.073 0.386,-0.103C0.401,-0.121 0.412,-0.141 0.419,-0.164L0.505,-0.164C0.503,-0.145 0.496,-0.123 0.483,-0.1C0.47,-0.076 0.455,-0.057 0.439,-0.042C0.413,-0.016 0.38,0.002 0.34,0.011C0.319,0.016 0.295,0.019 0.269,0.019C0.203,0.019 0.148,-0.005 0.103,-0.052C0.058,-0.1 0.035,-0.166 0.035,-0.251C0.035,-0.335 0.058,-0.404 0.104,-0.456C0.149,-0.508 0.209,-0.535 0.282,-0.535ZM0.422,-0.303C0.419,-0.341 0.41,-0.372 0.397,-0.395C0.373,-0.437 0.333,-0.458 0.277,-0.458C0.236,-0.458 0.203,-0.443 0.175,-0.414C0.148,-0.385 0.133,-0.348 0.132,-0.303L0.422,-0.303Z" style="fill-rule:nonzero;"/>
                </g>
                <g transform="matrix(8,0,0,8,197.917,119.752)">
                    <path d="M0.12,-0.255C0.12,-0.199 0.132,-0.153 0.156,-0.115C0.18,-0.077 0.218,-0.058 0.27,-0.058C0.311,-0.058 0.344,-0.076 0.37,-0.111C0.397,-0.146 0.41,-0.196 0.41,-0.261C0.41,-0.327 0.396,-0.376 0.369,-0.408C0.342,-0.44 0.309,-0.456 0.269,-0.456C0.225,-0.456 0.189,-0.439 0.161,-0.405C0.134,-0.371 0.12,-0.321 0.12,-0.255ZM0.252,-0.532C0.292,-0.532 0.326,-0.524 0.353,-0.507C0.369,-0.497 0.386,-0.48 0.406,-0.456L0.406,-0.72L0.491,-0.72L0.491,-0L0.412,-0L0.412,-0.073C0.391,-0.041 0.367,-0.017 0.339,-0.003C0.311,0.011 0.279,0.019 0.243,0.019C0.184,0.019 0.134,-0.006 0.091,-0.055C0.049,-0.104 0.027,-0.169 0.027,-0.25C0.027,-0.327 0.047,-0.393 0.086,-0.448C0.125,-0.504 0.18,-0.532 0.252,-0.532Z" style="fill-rule:nonzero;"/>
                </g>
                <g transform="matrix(8,0,0,8,204.589,119.752)">
                    <path d="M0.266,-0.538C0.325,-0.538 0.373,-0.524 0.41,-0.495C0.447,-0.466 0.469,-0.417 0.477,-0.347L0.391,-0.347C0.386,-0.379 0.374,-0.406 0.355,-0.427C0.337,-0.449 0.307,-0.459 0.266,-0.459C0.21,-0.459 0.17,-0.432 0.146,-0.377C0.13,-0.342 0.123,-0.298 0.123,-0.246C0.123,-0.194 0.134,-0.15 0.156,-0.114C0.178,-0.078 0.213,-0.06 0.26,-0.06C0.297,-0.06 0.326,-0.071 0.347,-0.094C0.368,-0.116 0.383,-0.146 0.391,-0.185L0.477,-0.185C0.467,-0.116 0.442,-0.065 0.403,-0.033C0.364,-0.001 0.314,0.015 0.253,0.015C0.185,0.015 0.131,-0.01 0.09,-0.06C0.049,-0.11 0.029,-0.172 0.029,-0.247C0.029,-0.339 0.051,-0.41 0.096,-0.461C0.14,-0.513 0.197,-0.538 0.266,-0.538Z" style="fill-rule:nonzero;"/>
                </g>
                <g transform="matrix(8,0,0,8,208.589,119.752)">
                    <path d="M0.132,-0.139C0.132,-0.114 0.141,-0.094 0.16,-0.079C0.178,-0.064 0.2,-0.057 0.226,-0.057C0.257,-0.057 0.286,-0.064 0.315,-0.079C0.364,-0.102 0.389,-0.141 0.389,-0.195L0.389,-0.266C0.378,-0.259 0.364,-0.254 0.347,-0.249C0.33,-0.244 0.314,-0.241 0.297,-0.239L0.244,-0.232C0.212,-0.228 0.188,-0.222 0.172,-0.212C0.145,-0.197 0.132,-0.173 0.132,-0.139ZM0.345,-0.317C0.365,-0.319 0.378,-0.328 0.385,-0.342C0.389,-0.35 0.391,-0.361 0.391,-0.376C0.391,-0.406 0.38,-0.428 0.359,-0.441C0.338,-0.455 0.307,-0.461 0.268,-0.461C0.222,-0.461 0.189,-0.449 0.17,-0.424C0.159,-0.411 0.152,-0.39 0.149,-0.363L0.067,-0.363C0.069,-0.428 0.089,-0.473 0.13,-0.498C0.17,-0.523 0.216,-0.536 0.27,-0.536C0.331,-0.536 0.381,-0.524 0.419,-0.5C0.458,-0.477 0.477,-0.441 0.477,-0.391L0.477,-0.09C0.477,-0.081 0.478,-0.073 0.482,-0.068C0.486,-0.062 0.494,-0.06 0.506,-0.06C0.51,-0.06 0.514,-0.06 0.519,-0.06C0.524,-0.061 0.529,-0.062 0.535,-0.063L0.535,0.002C0.521,0.006 0.511,0.009 0.503,0.01C0.496,0.011 0.486,0.011 0.474,0.011C0.444,0.011 0.422,0 0.408,-0.021C0.401,-0.032 0.396,-0.049 0.393,-0.069C0.375,-0.046 0.349,-0.026 0.316,-0.008C0.282,0.009 0.245,0.018 0.205,0.018C0.157,0.018 0.117,0.003 0.086,-0.027C0.055,-0.056 0.04,-0.093 0.04,-0.137C0.04,-0.186 0.055,-0.223 0.085,-0.25C0.116,-0.277 0.155,-0.293 0.205,-0.299L0.345,-0.317Z" style="fill-rule:nonzero;"/>
                </g>
                <g transform="matrix(8,0,0,8,213.038,119.752)">
                    <path d="M0.086,-0.603C0.088,-0.639 0.094,-0.666 0.105,-0.683C0.126,-0.713 0.166,-0.728 0.224,-0.728C0.23,-0.728 0.235,-0.727 0.241,-0.727C0.247,-0.727 0.254,-0.726 0.261,-0.726L0.261,-0.646C0.252,-0.646 0.246,-0.647 0.241,-0.647C0.237,-0.647 0.234,-0.647 0.23,-0.647C0.203,-0.647 0.187,-0.64 0.182,-0.626C0.177,-0.612 0.174,-0.577 0.174,-0.521L0.261,-0.521L0.261,-0.451L0.173,-0.451L0.173,-0L0.086,-0L0.086,-0.451L0.014,-0.451L0.014,-0.521L0.086,-0.521L0.086,-0.603Z" style="fill-rule:nonzero;"/>
                </g>
                <g transform="matrix(8,0,0,8,215.12,119.752)">
                    <path d="M0.086,-0.603C0.088,-0.639 0.094,-0.666 0.105,-0.683C0.126,-0.713 0.166,-0.728 0.224,-0.728C0.23,-0.728 0.235,-0.727 0.241,-0.727C0.247,-0.727 0.254,-0.726 0.261,-0.726L0.261,-0.646C0.252,-0.646 0.246,-0.647 0.241,-0.647C0.237,-0.647 0.234,-0.647 0.23,-0.647C0.203,-0.647 0.187,-0.64 0.182,-0.626C0.177,-0.612 0.174,-0.577 0.174,-0.521L0.261,-0.521L0.261,-0.451L0.173,-0.451L0.173,-0L0.086,-0L0.086,-0.451L0.014,-0.451L0.014,-0.521L0.086,-0.521L0.086,-0.603Z" style="fill-rule:nonzero;"/>
                </g>
                <g transform="matrix(8,0,0,8,217.342,119.752)">
                    <path d="M0.282,-0.535C0.319,-0.535 0.355,-0.526 0.39,-0.509C0.425,-0.491 0.451,-0.469 0.47,-0.441C0.487,-0.415 0.499,-0.384 0.505,-0.349C0.51,-0.325 0.513,-0.286 0.513,-0.233L0.129,-0.233C0.131,-0.18 0.144,-0.138 0.167,-0.106C0.19,-0.074 0.227,-0.058 0.276,-0.058C0.322,-0.058 0.358,-0.073 0.386,-0.103C0.401,-0.121 0.412,-0.141 0.419,-0.164L0.505,-0.164C0.503,-0.145 0.496,-0.123 0.483,-0.1C0.47,-0.076 0.455,-0.057 0.439,-0.042C0.413,-0.016 0.38,0.002 0.34,0.011C0.319,0.016 0.295,0.019 0.269,0.019C0.203,0.019 0.148,-0.005 0.103,-0.052C0.058,-0.1 0.035,-0.166 0.035,-0.251C0.035,-0.335 0.058,-0.404 0.104,-0.456C0.149,-0.508 0.209,-0.535 0.282,-0.535ZM0.422,-0.303C0.419,-0.341 0.41,-0.372 0.397,-0.395C0.373,-0.437 0.333,-0.458 0.277,-0.458C0.236,-0.458 0.203,-0.443 0.175,-0.414C0.148,-0.385 0.133,-0.348 0.132,-0.303L0.422,-0.303Z" style="fill-rule:nonzero;"/>
                </g>
                <g transform="matrix(8,0,0,8,221.792,119.752)">
                    <path d="M0.064,-0.521L0.154,-0.521L0.154,-0L0.064,-0L0.064,-0.521ZM0.064,-0.717L0.154,-0.717L0.154,-0.618L0.064,-0.618L0.064,-0.717Z" style="fill-rule:nonzero;"/>
                </g>
                <g transform="matrix(8,0,0,8,223.569,119.752)">
                    <path d="M0.064,-0.523L0.148,-0.523L0.148,-0.449C0.173,-0.479 0.199,-0.501 0.227,-0.515C0.254,-0.528 0.285,-0.535 0.319,-0.535C0.393,-0.535 0.443,-0.509 0.469,-0.457C0.484,-0.429 0.491,-0.388 0.491,-0.335L0.491,-0L0.401,-0L0.401,-0.33C0.401,-0.361 0.397,-0.387 0.387,-0.407C0.372,-0.439 0.343,-0.456 0.302,-0.456C0.281,-0.456 0.264,-0.453 0.251,-0.449C0.227,-0.442 0.206,-0.428 0.188,-0.406C0.173,-0.389 0.163,-0.371 0.159,-0.353C0.155,-0.334 0.152,-0.308 0.152,-0.274L0.152,-0L0.064,-0L0.064,-0.523Z" style="fill-rule:nonzero;"/>
                </g>
                <g transform="matrix(8,0,0,8,228.018,119.752)">
                    <path d="M0.282,-0.535C0.319,-0.535 0.355,-0.526 0.39,-0.509C0.425,-0.491 0.451,-0.469 0.47,-0.441C0.487,-0.415 0.499,-0.384 0.505,-0.349C0.51,-0.325 0.513,-0.286 0.513,-0.233L0.129,-0.233C0.131,-0.18 0.144,-0.138 0.167,-0.106C0.19,-0.074 0.227,-0.058 0.276,-0.058C0.322,-0.058 0.358,-0.073 0.386,-0.103C0.401,-0.121 0.412,-0.141 0.419,-0.164L0.505,-0.164C0.503,-0.145 0.496,-0.123 0.483,-0.1C0.47,-0.076 0.455,-0.057 0.439,-0.042C0.413,-0.016 0.38,0.002 0.34,0.011C0.319,0.016 0.295,0.019 0.269,0.019C0.203,0.019 0.148,-0.005 0.103,-0.052C0.058,-0.1 0.035,-0.166 0.035,-0.251C0.035,-0.335 0.058,-0.404 0.104,-0.456C0.149,-0.508 0.209,-0.535 0.282,-0.535ZM0.422,-0.303C0.419,-0.341 0.41,-0.372 0.397,-0.395C0.373,-0.437 0.333,-0.458 0.277,-0.458C0.236,-0.458 0.203,-0.443 0.175,-0.414C0.148,-0.385 0.133,-0.348 0.132,-0.303L0.422,-0.303Z" style="fill-rule:nonzero;"/>
                </g>
                <g transform="matrix(8,0,0,8,184.956,127.752)">
                    <path d="M0.064,-0.523L0.151,-0.523L0.151,-0.449C0.172,-0.474 0.191,-0.493 0.208,-0.505C0.237,-0.525 0.27,-0.535 0.307,-0.535C0.348,-0.535 0.382,-0.524 0.407,-0.504C0.422,-0.492 0.435,-0.475 0.446,-0.452C0.466,-0.48 0.489,-0.501 0.515,-0.514C0.542,-0.528 0.571,-0.535 0.604,-0.535C0.674,-0.535 0.722,-0.509 0.748,-0.458C0.761,-0.431 0.768,-0.394 0.768,-0.348L0.768,-0L0.677,-0L0.677,-0.363C0.677,-0.398 0.668,-0.422 0.651,-0.435C0.633,-0.448 0.612,-0.455 0.587,-0.455C0.552,-0.455 0.523,-0.443 0.498,-0.42C0.473,-0.397 0.46,-0.358 0.46,-0.304L0.46,-0L0.371,-0L0.371,-0.341C0.371,-0.377 0.367,-0.403 0.358,-0.419C0.345,-0.443 0.32,-0.456 0.284,-0.456C0.25,-0.456 0.22,-0.443 0.193,-0.417C0.166,-0.391 0.152,-0.345 0.152,-0.277L0.152,-0L0.064,-0L0.064,-0.523Z" style="fill-rule:nonzero;"/>
                </g>
                <g transform="matrix(8,0,0,8,191.62,127.752)">
                    <path d="M0.272,-0.057C0.33,-0.057 0.37,-0.079 0.392,-0.123C0.413,-0.167 0.424,-0.216 0.424,-0.27C0.424,-0.319 0.417,-0.359 0.401,-0.389C0.376,-0.437 0.333,-0.461 0.273,-0.461C0.219,-0.461 0.18,-0.441 0.156,-0.4C0.131,-0.359 0.119,-0.309 0.119,-0.251C0.119,-0.196 0.131,-0.149 0.156,-0.112C0.18,-0.075 0.219,-0.057 0.272,-0.057ZM0.275,-0.538C0.343,-0.538 0.4,-0.516 0.446,-0.471C0.493,-0.426 0.516,-0.36 0.516,-0.272C0.516,-0.188 0.496,-0.118 0.455,-0.063C0.414,-0.008 0.35,0.019 0.264,0.019C0.192,0.019 0.135,-0.005 0.092,-0.054C0.05,-0.103 0.029,-0.168 0.029,-0.25C0.029,-0.338 0.051,-0.408 0.096,-0.46C0.14,-0.512 0.2,-0.538 0.275,-0.538Z" style="fill-rule:nonzero;"/>
                </g>
                <g transform="matrix(8,0,0,8,196.069,127.752)">
                    <rect x="0.067" y="-0.717" width="0.088" height="0.717" style="fill-rule:nonzero;"/>
                </g>
                <g transform="matrix(8,0,0,8,197.846,127.752)">
                    <path d="M0.282,-0.535C0.319,-0.535 0.355,-0.526 0.39,-0.509C0.425,-0.491 0.451,-0.469 0.47,-0.441C0.487,-0.415 0.499,-0.384 0.505,-0.349C0.51,-0.325 0.513,-0.286 0.513,-0.233L0.129,-0.233C0.131,-0.18 0.144,-0.138 0.167,-0.106C0.19,-0.074 0.227,-0.058 0.276,-0.058C0.322,-0.058 0.358,-0.073 0.386,-0.103C0.401,-0.121 0.412,-0.141 0.419,-0.164L0.505,-0.164C0.503,-0.145 0.496,-0.123 0.483,-0.1C0.47,-0.076 0.455,-0.057 0.439,-0.042C0.413,-0.016 0.38,0.002 0.34,0.011C0.319,0.016 0.295,0.019 0.269,0.019C0.203,0.019 0.148,-0.005 0.103,-0.052C0.058,-0.1 0.035,-0.166 0.035,-0.251C0.035,-0.335 0.058,-0.404 0.104,-0.456C0.149,-0.508 0.209,-0.535 0.282,-0.535ZM0.422,-0.303C0.419,-0.341 0.41,-0.372 0.397,-0.395C0.373,-0.437 0.333,-0.458 0.277,-0.458C0.236,-0.458 0.203,-0.443 0.175,-0.414C0.148,-0.385 0.133,-0.348 0.132,-0.303L0.422,-0.303Z" style="fill-rule:nonzero;"/>
                </g>
                <g transform="matrix(8,0,0,8,202.296,127.752)">
                    <path d="M0.266,-0.538C0.325,-0.538 0.373,-0.524 0.41,-0.495C0.447,-0.466 0.469,-0.417 0.477,-0.347L0.391,-0.347C0.386,-0.379 0.374,-0.406 0.355,-0.427C0.337,-0.449 0.307,-0.459 0.266,-0.459C0.21,-0.459 0.17,-0.432 0.146,-0.377C0.13,-0.342 0.123,-0.298 0.123,-0.246C0.123,-0.194 0.134,-0.15 0.156,-0.114C0.178,-0.078 0.213,-0.06 0.26,-0.06C0.297,-0.06 0.326,-0.071 0.347,-0.094C0.368,-0.116 0.383,-0.146 0.391,-0.185L0.477,-0.185C0.467,-0.116 0.442,-0.065 0.403,-0.033C0.364,-0.001 0.314,0.015 0.253,0.015C0.185,0.015 0.131,-0.01 0.09,-0.06C0.049,-0.11 0.029,-0.172 0.029,-0.247C0.029,-0.339 0.051,-0.41 0.096,-0.461C0.14,-0.513 0.197,-0.538 0.266,-0.538Z" style="fill-rule:nonzero;"/>
                </g>
                <g transform="matrix(8,0,0,8,206.296,127.752)">
                    <path d="M0.152,-0.523L0.152,-0.176C0.152,-0.149 0.157,-0.127 0.165,-0.11C0.181,-0.079 0.21,-0.063 0.252,-0.063C0.314,-0.063 0.355,-0.091 0.377,-0.146C0.389,-0.175 0.396,-0.215 0.396,-0.266L0.396,-0.523L0.483,-0.523L0.483,-0L0.4,-0L0.401,-0.077C0.39,-0.057 0.376,-0.041 0.359,-0.027C0.325,0 0.285,0.014 0.237,0.014C0.162,0.014 0.111,-0.011 0.084,-0.061C0.07,-0.087 0.063,-0.123 0.063,-0.167L0.063,-0.523L0.152,-0.523Z" style="fill-rule:nonzero;"/>
                </g>
                <g transform="matrix(8,0,0,8,210.745,127.752)">
                    <rect x="0.067" y="-0.717" width="0.088" height="0.717" style="fill-rule:nonzero;"/>
                </g>
                <g transform="matrix(8,0,0,8,212.522,127.752)">
                    <path d="M0.282,-0.535C0.319,-0.535 0.355,-0.526 0.39,-0.509C0.425,-0.491 0.451,-0.469 0.47,-0.441C0.487,-0.415 0.499,-0.384 0.505,-0.349C0.51,-0.325 0.513,-0.286 0.513,-0.233L0.129,-0.233C0.131,-0.18 0.144,-0.138 0.167,-0.106C0.19,-0.074 0.227,-0.058 0.276,-0.058C0.322,-0.058 0.358,-0.073 0.386,-0.103C0.401,-0.121 0.412,-0.141 0.419,-0.164L0.505,-0.164C0.503,-0.145 0.496,-0.123 0.483,-0.1C0.47,-0.076 0.455,-0.057 0.439,-0.042C0.413,-0.016 0.38,0.002 0.34,0.011C0.319,0.016 0.295,0.019 0.269,0.019C0.203,0.019 0.148,-0.005 0.103,-0.052C0.058,-0.1 0.035,-0.166 0.035,-0.251C0.035,-0.335 0.058,-0.404 0.104,-0.456C0.149,-0.508 0.209,-0.535 0.282,-0.535ZM0.422,-0.303C0.419,-0.341 0.41,-0.372 0.397,-0.395C0.373,-0.437 0.333,-0.458 0.277,-0.458C0.236,-0.458 0.203,-0.443 0.175,-0.414C0.148,-0.385 0.133,-0.348 0.132,-0.303L0.422,-0.303Z" style="fill-rule:nonzero;"/>
                </g>
                <g transform="matrix(8,0,0,8,216.971,127.752)">
                    <path d="M0.117,-0.164C0.119,-0.135 0.127,-0.112 0.139,-0.097C0.161,-0.068 0.199,-0.054 0.254,-0.054C0.286,-0.054 0.315,-0.061 0.34,-0.075C0.365,-0.09 0.377,-0.111 0.377,-0.141C0.377,-0.164 0.367,-0.181 0.347,-0.192C0.334,-0.2 0.309,-0.208 0.272,-0.217L0.202,-0.235C0.158,-0.246 0.125,-0.258 0.104,-0.272C0.066,-0.296 0.047,-0.329 0.047,-0.371C0.047,-0.42 0.065,-0.46 0.1,-0.491C0.136,-0.521 0.184,-0.537 0.244,-0.537C0.323,-0.537 0.38,-0.514 0.415,-0.467C0.436,-0.438 0.447,-0.406 0.446,-0.373L0.363,-0.373C0.362,-0.392 0.355,-0.41 0.342,-0.427C0.322,-0.45 0.287,-0.461 0.237,-0.461C0.204,-0.461 0.179,-0.455 0.162,-0.442C0.145,-0.43 0.136,-0.413 0.136,-0.392C0.136,-0.369 0.147,-0.351 0.17,-0.337C0.183,-0.329 0.202,-0.322 0.228,-0.316L0.286,-0.302C0.349,-0.286 0.391,-0.272 0.413,-0.257C0.447,-0.235 0.464,-0.2 0.464,-0.151C0.464,-0.105 0.446,-0.065 0.411,-0.031C0.376,0.003 0.322,0.02 0.25,0.02C0.172,0.02 0.117,0.002 0.084,-0.033C0.052,-0.068 0.035,-0.112 0.032,-0.164L0.117,-0.164Z" style="fill-rule:nonzero;"/>
                </g>
            </g>
        </g>
    </g>
</svg>
