<?xml version="1.0" encoding="UTF-8" standalone="no"?>
<!DOCTYPE svg PUBLIC "-//W3C//DTD SVG 1.1//EN" "http://www.w3.org/Graphics/SVG/1.1/DTD/svg11.dtd">
<svg width="436px" height="292px" viewBox="0 0 218 146" version="1.1" xmlns="http://www.w3.org/2000/svg" xmlns:xlink="http://www.w3.org/1999/xlink" xml:space="preserve" xmlns:serif="http://www.serif.com/" style="fill-rule:evenodd;clip-rule:evenodd;stroke-linecap:square;stroke-miterlimit:10;">
    <g id="Artboard1" transform="matrix(0.929983,0,0,0.620414,0,0)">
        <rect x="0" y="0" width="234" height="234" style="fill:white;"/>
        <clipPath id="_clip1">
            <rect x="0" y="0" width="234" height="234"/>
        </clipPath>
        <g clip-path="url(#_clip1)">
            <g transform="matrix(1.07529,0,0,1.61183,-3.21186,157.005)">
                <path d="M39.5,25.5L220,25.5" style="fill:none;fill-rule:nonzero;stroke:black;stroke-width:0.5px;"/>
            </g>
            <g transform="matrix(1.07529,0,0,1.61183,-3.21186,-4.49992)">
                <g transform="matrix(8,0,0,8,37.8073,136.333)">
                    <path d="M0.096,-0.495L0.096,-0.563C0.159,-0.569 0.203,-0.579 0.229,-0.594C0.254,-0.608 0.272,-0.642 0.285,-0.696L0.354,-0.696L0.354,-0L0.26,-0L0.26,-0.495L0.096,-0.495Z" style="fill-rule:nonzero;"/>
                </g>
                <g transform="matrix(8,0,0,8,42.2565,136.333)">
                    <path d="M0.271,-0.699C0.361,-0.699 0.426,-0.662 0.467,-0.587C0.498,-0.53 0.514,-0.451 0.514,-0.351C0.514,-0.256 0.5,-0.177 0.471,-0.115C0.43,-0.026 0.363,0.019 0.27,0.019C0.186,0.019 0.124,-0.017 0.083,-0.09C0.048,-0.151 0.031,-0.233 0.031,-0.335C0.031,-0.415 0.042,-0.483 0.062,-0.54C0.1,-0.646 0.17,-0.699 0.271,-0.699ZM0.27,-0.061C0.315,-0.061 0.351,-0.081 0.378,-0.122C0.405,-0.162 0.419,-0.237 0.419,-0.347C0.419,-0.427 0.409,-0.492 0.39,-0.543C0.37,-0.594 0.332,-0.62 0.276,-0.62C0.224,-0.62 0.186,-0.596 0.162,-0.547C0.138,-0.498 0.126,-0.427 0.126,-0.332C0.126,-0.261 0.134,-0.203 0.149,-0.16C0.173,-0.094 0.213,-0.061 0.27,-0.061Z" style="fill-rule:nonzero;"/>
                </g>
                <g transform="matrix(6,0,0,6,46.7058,132.317)">
                    <rect x="0.045" y="-0.296" width="0.509" height="0.082" style="fill-rule:nonzero;"/>
                </g>
                <g transform="matrix(6,0,0,6,50.2097,132.317)">
                    <path d="M0.26,0.019C0.177,0.019 0.117,-0.004 0.08,-0.049C0.043,-0.094 0.024,-0.15 0.024,-0.215L0.116,-0.215C0.12,-0.17 0.128,-0.137 0.141,-0.116C0.164,-0.079 0.205,-0.061 0.265,-0.061C0.311,-0.061 0.348,-0.073 0.376,-0.098C0.404,-0.123 0.418,-0.155 0.418,-0.194C0.418,-0.242 0.403,-0.276 0.374,-0.295C0.344,-0.314 0.303,-0.324 0.251,-0.324C0.245,-0.324 0.239,-0.324 0.233,-0.323C0.227,-0.323 0.221,-0.323 0.215,-0.323L0.215,-0.4C0.224,-0.399 0.232,-0.399 0.238,-0.398C0.244,-0.398 0.251,-0.398 0.258,-0.398C0.291,-0.398 0.318,-0.403 0.339,-0.414C0.376,-0.432 0.395,-0.464 0.395,-0.511C0.395,-0.546 0.382,-0.573 0.357,-0.592C0.333,-0.611 0.304,-0.62 0.271,-0.62C0.212,-0.62 0.172,-0.601 0.149,-0.562C0.137,-0.54 0.13,-0.509 0.128,-0.47L0.042,-0.47C0.042,-0.522 0.052,-0.566 0.073,-0.603C0.109,-0.668 0.172,-0.7 0.262,-0.7C0.333,-0.7 0.388,-0.684 0.427,-0.653C0.466,-0.621 0.486,-0.575 0.486,-0.515C0.486,-0.472 0.474,-0.437 0.451,-0.41C0.437,-0.394 0.418,-0.381 0.396,-0.371C0.432,-0.361 0.461,-0.342 0.482,-0.313C0.502,-0.284 0.513,-0.249 0.513,-0.207C0.513,-0.14 0.491,-0.086 0.447,-0.044C0.403,-0.002 0.34,0.019 0.26,0.019Z" style="fill-rule:nonzero;"/>
                </g>
            </g>
            <g transform="matrix(1.07529,0,0,1.61183,-3.21186,-4.49992)">
                <g transform="matrix(8,0,0,8,117.916,136.333)">
                    <path d="M0.096,-0.495L0.096,-0.563C0.159,-0.569 0.203,-0.579 0.229,-0.594C0.254,-0.608 0.272,-0.642 0.285,-0.696L0.354,-0.696L0.354,-0L0.26,-0L0.26,-0.495L0.096,-0.495Z" style="fill-rule:nonzero;"/>
                </g>
                <g transform="matrix(8,0,0,8,122.365,136.333)">
                    <path d="M0.271,-0.699C0.361,-0.699 0.426,-0.662 0.467,-0.587C0.498,-0.53 0.514,-0.451 0.514,-0.351C0.514,-0.256 0.5,-0.177 0.471,-0.115C0.43,-0.026 0.363,0.019 0.27,0.019C0.186,0.019 0.124,-0.017 0.083,-0.09C0.048,-0.151 0.031,-0.233 0.031,-0.335C0.031,-0.415 0.042,-0.483 0.062,-0.54C0.1,-0.646 0.17,-0.699 0.271,-0.699ZM0.27,-0.061C0.315,-0.061 0.351,-0.081 0.378,-0.122C0.405,-0.162 0.419,-0.237 0.419,-0.347C0.419,-0.427 0.409,-0.492 0.39,-0.543C0.37,-0.594 0.332,-0.62 0.276,-0.62C0.224,-0.62 0.186,-0.596 0.162,-0.547C0.138,-0.498 0.126,-0.427 0.126,-0.332C0.126,-0.261 0.134,-0.203 0.149,-0.16C0.173,-0.094 0.213,-0.061 0.27,-0.061Z" style="fill-rule:nonzero;"/>
                </g>
                <g transform="matrix(6,0,0,6,126.814,132.317)">
                    <rect x="0.045" y="-0.296" width="0.509" height="0.082" style="fill-rule:nonzero;"/>
                </g>
                <g transform="matrix(6,0,0,6,130.318,132.317)">
                    <path d="M0.031,-0C0.035,-0.06 0.047,-0.113 0.069,-0.157C0.09,-0.202 0.132,-0.242 0.195,-0.279L0.289,-0.333C0.331,-0.357 0.361,-0.378 0.377,-0.396C0.404,-0.423 0.417,-0.453 0.417,-0.488C0.417,-0.529 0.405,-0.561 0.381,-0.585C0.356,-0.609 0.324,-0.621 0.283,-0.621C0.223,-0.621 0.181,-0.598 0.158,-0.553C0.146,-0.528 0.139,-0.494 0.138,-0.451L0.048,-0.451C0.049,-0.512 0.061,-0.562 0.082,-0.6C0.12,-0.668 0.187,-0.702 0.284,-0.702C0.364,-0.702 0.422,-0.68 0.459,-0.637C0.496,-0.593 0.515,-0.545 0.515,-0.492C0.515,-0.436 0.495,-0.388 0.456,-0.349C0.433,-0.326 0.392,-0.298 0.333,-0.265L0.266,-0.228C0.234,-0.21 0.209,-0.193 0.191,-0.177C0.158,-0.149 0.138,-0.118 0.129,-0.083L0.511,-0.083L0.511,-0L0.031,-0Z" style="fill-rule:nonzero;"/>
                </g>
            </g>
            <g transform="matrix(1.07529,0,0,1.61183,-3.21186,-4.49992)">
                <g transform="matrix(8,0,0,8,198.024,136.333)">
                    <path d="M0.096,-0.495L0.096,-0.563C0.159,-0.569 0.203,-0.579 0.229,-0.594C0.254,-0.608 0.272,-0.642 0.285,-0.696L0.354,-0.696L0.354,-0L0.26,-0L0.26,-0.495L0.096,-0.495Z" style="fill-rule:nonzero;"/>
                </g>
                <g transform="matrix(8,0,0,8,202.473,136.333)">
                    <path d="M0.271,-0.699C0.361,-0.699 0.426,-0.662 0.467,-0.587C0.498,-0.53 0.514,-0.451 0.514,-0.351C0.514,-0.256 0.5,-0.177 0.471,-0.115C0.43,-0.026 0.363,0.019 0.27,0.019C0.186,0.019 0.124,-0.017 0.083,-0.09C0.048,-0.151 0.031,-0.233 0.031,-0.335C0.031,-0.415 0.042,-0.483 0.062,-0.54C0.1,-0.646 0.17,-0.699 0.271,-0.699ZM0.27,-0.061C0.315,-0.061 0.351,-0.081 0.378,-0.122C0.405,-0.162 0.419,-0.237 0.419,-0.347C0.419,-0.427 0.409,-0.492 0.39,-0.543C0.37,-0.594 0.332,-0.62 0.276,-0.62C0.224,-0.62 0.186,-0.596 0.162,-0.547C0.138,-0.498 0.126,-0.427 0.126,-0.332C0.126,-0.261 0.134,-0.203 0.149,-0.16C0.173,-0.094 0.213,-0.061 0.27,-0.061Z" style="fill-rule:nonzero;"/>
                </g>
                <g transform="matrix(6,0,0,6,206.922,132.317)">
                    <rect x="0.045" y="-0.296" width="0.509" height="0.082" style="fill-rule:nonzero;"/>
                </g>
                <g transform="matrix(6,0,0,6,210.426,132.317)">
                    <path d="M0.096,-0.495L0.096,-0.563C0.159,-0.569 0.203,-0.579 0.229,-0.594C0.254,-0.608 0.272,-0.642 0.285,-0.696L0.354,-0.696L0.354,-0L0.26,-0L0.26,-0.495L0.096,-0.495Z" style="fill-rule:nonzero;"/>
                </g>
            </g>
            <g transform="matrix(1.07529,0,0,1.61183,-3.21186,-4.49992)">
                <g transform="matrix(8,0,0,8,18.4456,112.954)">
                    <path d="M0.26,0.019C0.177,0.019 0.117,-0.004 0.08,-0.049C0.043,-0.094 0.024,-0.15 0.024,-0.215L0.116,-0.215C0.12,-0.17 0.128,-0.137 0.141,-0.116C0.164,-0.079 0.205,-0.061 0.265,-0.061C0.311,-0.061 0.348,-0.073 0.376,-0.098C0.404,-0.123 0.418,-0.155 0.418,-0.194C0.418,-0.242 0.403,-0.276 0.374,-0.295C0.344,-0.314 0.303,-0.324 0.251,-0.324C0.245,-0.324 0.239,-0.324 0.233,-0.323C0.227,-0.323 0.221,-0.323 0.215,-0.323L0.215,-0.4C0.224,-0.399 0.232,-0.399 0.238,-0.398C0.244,-0.398 0.251,-0.398 0.258,-0.398C0.291,-0.398 0.318,-0.403 0.339,-0.414C0.376,-0.432 0.395,-0.464 0.395,-0.511C0.395,-0.546 0.382,-0.573 0.357,-0.592C0.333,-0.611 0.304,-0.62 0.271,-0.62C0.212,-0.62 0.172,-0.601 0.149,-0.562C0.137,-0.54 0.13,-0.509 0.128,-0.47L0.042,-0.47C0.042,-0.522 0.052,-0.566 0.073,-0.603C0.109,-0.668 0.172,-0.7 0.262,-0.7C0.333,-0.7 0.388,-0.684 0.427,-0.653C0.466,-0.621 0.486,-0.575 0.486,-0.515C0.486,-0.472 0.474,-0.437 0.451,-0.41C0.437,-0.394 0.418,-0.381 0.396,-0.371C0.432,-0.361 0.461,-0.342 0.482,-0.313C0.502,-0.284 0.513,-0.249 0.513,-0.207C0.513,-0.14 0.491,-0.086 0.447,-0.044C0.403,-0.002 0.34,0.019 0.26,0.019Z" style="fill-rule:nonzero;"/>
                </g>
                <g transform="matrix(8,0,0,8,22.8965,112.954)">
                    <rect x="0.085" y="-0.106" width="0.102" height="0.106" style="fill-rule:nonzero;"/>
                </g>
                <g transform="matrix(8,0,0,8,25.1208,112.954)">
                    <path d="M0.26,0.019C0.177,0.019 0.117,-0.004 0.08,-0.049C0.043,-0.094 0.024,-0.15 0.024,-0.215L0.116,-0.215C0.12,-0.17 0.128,-0.137 0.141,-0.116C0.164,-0.079 0.205,-0.061 0.265,-0.061C0.311,-0.061 0.348,-0.073 0.376,-0.098C0.404,-0.123 0.418,-0.155 0.418,-0.194C0.418,-0.242 0.403,-0.276 0.374,-0.295C0.344,-0.314 0.303,-0.324 0.251,-0.324C0.245,-0.324 0.239,-0.324 0.233,-0.323C0.227,-0.323 0.221,-0.323 0.215,-0.323L0.215,-0.4C0.224,-0.399 0.232,-0.399 0.238,-0.398C0.244,-0.398 0.251,-0.398 0.258,-0.398C0.291,-0.398 0.318,-0.403 0.339,-0.414C0.376,-0.432 0.395,-0.464 0.395,-0.511C0.395,-0.546 0.382,-0.573 0.357,-0.592C0.333,-0.611 0.304,-0.62 0.271,-0.62C0.212,-0.62 0.172,-0.601 0.149,-0.562C0.137,-0.54 0.13,-0.509 0.128,-0.47L0.042,-0.47C0.042,-0.522 0.052,-0.566 0.073,-0.603C0.109,-0.668 0.172,-0.7 0.262,-0.7C0.333,-0.7 0.388,-0.684 0.427,-0.653C0.466,-0.621 0.486,-0.575 0.486,-0.515C0.486,-0.472 0.474,-0.437 0.451,-0.41C0.437,-0.394 0.418,-0.381 0.396,-0.371C0.432,-0.361 0.461,-0.342 0.482,-0.313C0.502,-0.284 0.513,-0.249 0.513,-0.207C0.513,-0.14 0.491,-0.086 0.447,-0.044C0.403,-0.002 0.34,0.019 0.26,0.019Z" style="fill-rule:nonzero;"/>
                </g>
            </g>
            <g transform="matrix(1.07529,0,0,1.61183,-3.21186,-4.49992)">
                <g transform="matrix(8,0,0,8,18.4456,78.1059)">
                    <path d="M0.26,0.019C0.177,0.019 0.117,-0.004 0.08,-0.049C0.043,-0.094 0.024,-0.15 0.024,-0.215L0.116,-0.215C0.12,-0.17 0.128,-0.137 0.141,-0.116C0.164,-0.079 0.205,-0.061 0.265,-0.061C0.311,-0.061 0.348,-0.073 0.376,-0.098C0.404,-0.123 0.418,-0.155 0.418,-0.194C0.418,-0.242 0.403,-0.276 0.374,-0.295C0.344,-0.314 0.303,-0.324 0.251,-0.324C0.245,-0.324 0.239,-0.324 0.233,-0.323C0.227,-0.323 0.221,-0.323 0.215,-0.323L0.215,-0.4C0.224,-0.399 0.232,-0.399 0.238,-0.398C0.244,-0.398 0.251,-0.398 0.258,-0.398C0.291,-0.398 0.318,-0.403 0.339,-0.414C0.376,-0.432 0.395,-0.464 0.395,-0.511C0.395,-0.546 0.382,-0.573 0.357,-0.592C0.333,-0.611 0.304,-0.62 0.271,-0.62C0.212,-0.62 0.172,-0.601 0.149,-0.562C0.137,-0.54 0.13,-0.509 0.128,-0.47L0.042,-0.47C0.042,-0.522 0.052,-0.566 0.073,-0.603C0.109,-0.668 0.172,-0.7 0.262,-0.7C0.333,-0.7 0.388,-0.684 0.427,-0.653C0.466,-0.621 0.486,-0.575 0.486,-0.515C0.486,-0.472 0.474,-0.437 0.451,-0.41C0.437,-0.394 0.418,-0.381 0.396,-0.371C0.432,-0.361 0.461,-0.342 0.482,-0.313C0.502,-0.284 0.513,-0.249 0.513,-0.207C0.513,-0.14 0.491,-0.086 0.447,-0.044C0.403,-0.002 0.34,0.019 0.26,0.019Z" style="fill-rule:nonzero;"/>
                </g>
                <g transform="matrix(8,0,0,8,22.8965,78.1059)">
                    <rect x="0.085" y="-0.106" width="0.102" height="0.106" style="fill-rule:nonzero;"/>
                </g>
                <g transform="matrix(8,0,0,8,25.1208,78.1059)">
                    <path d="M0.331,-0.248L0.331,-0.564L0.106,-0.248L0.331,-0.248ZM0.332,-0L0.332,-0.171L0.025,-0.171L0.025,-0.257L0.346,-0.701L0.42,-0.701L0.42,-0.248L0.523,-0.248L0.523,-0.171L0.42,-0.171L0.42,-0L0.332,-0Z" style="fill-rule:nonzero;"/>
                </g>
            </g>
            <g transform="matrix(1.07529,0,0,1.61183,-3.21186,-4.49992)">
                <g transform="matrix(8,0,0,8,18.4456,43.2575)">
                    <path d="M0.26,0.019C0.177,0.019 0.117,-0.004 0.08,-0.049C0.043,-0.094 0.024,-0.15 0.024,-0.215L0.116,-0.215C0.12,-0.17 0.128,-0.137 0.141,-0.116C0.164,-0.079 0.205,-0.061 0.265,-0.061C0.311,-0.061 0.348,-0.073 0.376,-0.098C0.404,-0.123 0.418,-0.155 0.418,-0.194C0.418,-0.242 0.403,-0.276 0.374,-0.295C0.344,-0.314 0.303,-0.324 0.251,-0.324C0.245,-0.324 0.239,-0.324 0.233,-0.323C0.227,-0.323 0.221,-0.323 0.215,-0.323L0.215,-0.4C0.224,-0.399 0.232,-0.399 0.238,-0.398C0.244,-0.398 0.251,-0.398 0.258,-0.398C0.291,-0.398 0.318,-0.403 0.339,-0.414C0.376,-0.432 0.395,-0.464 0.395,-0.511C0.395,-0.546 0.382,-0.573 0.357,-0.592C0.333,-0.611 0.304,-0.62 0.271,-0.62C0.212,-0.62 0.172,-0.601 0.149,-0.562C0.137,-0.54 0.13,-0.509 0.128,-0.47L0.042,-0.47C0.042,-0.522 0.052,-0.566 0.073,-0.603C0.109,-0.668 0.172,-0.7 0.262,-0.7C0.333,-0.7 0.388,-0.684 0.427,-0.653C0.466,-0.621 0.486,-0.575 0.486,-0.515C0.486,-0.472 0.474,-0.437 0.451,-0.41C0.437,-0.394 0.418,-0.381 0.396,-0.371C0.432,-0.361 0.461,-0.342 0.482,-0.313C0.502,-0.284 0.513,-0.249 0.513,-0.207C0.513,-0.14 0.491,-0.086 0.447,-0.044C0.403,-0.002 0.34,0.019 0.26,0.019Z" style="fill-rule:nonzero;"/>
                </g>
                <g transform="matrix(8,0,0,8,22.8965,43.2575)">
                    <rect x="0.085" y="-0.106" width="0.102" height="0.106" style="fill-rule:nonzero;"/>
                </g>
                <g transform="matrix(8,0,0,8,25.1208,43.2575)">
                    <path d="M0.124,-0.178C0.129,-0.128 0.153,-0.093 0.193,-0.074C0.214,-0.064 0.238,-0.06 0.266,-0.06C0.318,-0.06 0.356,-0.076 0.381,-0.109C0.406,-0.143 0.419,-0.179 0.419,-0.22C0.419,-0.269 0.404,-0.306 0.374,-0.333C0.344,-0.36 0.309,-0.373 0.267,-0.373C0.237,-0.373 0.211,-0.367 0.189,-0.355C0.168,-0.344 0.149,-0.327 0.134,-0.307L0.058,-0.311L0.111,-0.688L0.474,-0.688L0.474,-0.603L0.177,-0.603L0.147,-0.408C0.163,-0.421 0.179,-0.43 0.193,-0.436C0.219,-0.447 0.25,-0.452 0.284,-0.452C0.348,-0.452 0.402,-0.431 0.447,-0.39C0.491,-0.349 0.514,-0.296 0.514,-0.233C0.514,-0.167 0.493,-0.109 0.452,-0.058C0.412,-0.008 0.346,0.018 0.257,0.018C0.2,0.018 0.149,0.002 0.106,-0.031C0.062,-0.063 0.037,-0.112 0.032,-0.178L0.124,-0.178Z" style="fill-rule:nonzero;"/>
                </g>
            </g>
            <g transform="matrix(1.07529,0,0,1.61183,-3.21186,-4.49992)">
                <g transform="matrix(8,0,0,8,18.4456,8.409)">
                    <path d="M0.26,0.019C0.177,0.019 0.117,-0.004 0.08,-0.049C0.043,-0.094 0.024,-0.15 0.024,-0.215L0.116,-0.215C0.12,-0.17 0.128,-0.137 0.141,-0.116C0.164,-0.079 0.205,-0.061 0.265,-0.061C0.311,-0.061 0.348,-0.073 0.376,-0.098C0.404,-0.123 0.418,-0.155 0.418,-0.194C0.418,-0.242 0.403,-0.276 0.374,-0.295C0.344,-0.314 0.303,-0.324 0.251,-0.324C0.245,-0.324 0.239,-0.324 0.233,-0.323C0.227,-0.323 0.221,-0.323 0.215,-0.323L0.215,-0.4C0.224,-0.399 0.232,-0.399 0.238,-0.398C0.244,-0.398 0.251,-0.398 0.258,-0.398C0.291,-0.398 0.318,-0.403 0.339,-0.414C0.376,-0.432 0.395,-0.464 0.395,-0.511C0.395,-0.546 0.382,-0.573 0.357,-0.592C0.333,-0.611 0.304,-0.62 0.271,-0.62C0.212,-0.62 0.172,-0.601 0.149,-0.562C0.137,-0.54 0.13,-0.509 0.128,-0.47L0.042,-0.47C0.042,-0.522 0.052,-0.566 0.073,-0.603C0.109,-0.668 0.172,-0.7 0.262,-0.7C0.333,-0.7 0.388,-0.684 0.427,-0.653C0.466,-0.621 0.486,-0.575 0.486,-0.515C0.486,-0.472 0.474,-0.437 0.451,-0.41C0.437,-0.394 0.418,-0.381 0.396,-0.371C0.432,-0.361 0.461,-0.342 0.482,-0.313C0.502,-0.284 0.513,-0.249 0.513,-0.207C0.513,-0.14 0.491,-0.086 0.447,-0.044C0.403,-0.002 0.34,0.019 0.26,0.019Z" style="fill-rule:nonzero;"/>
                </g>
                <g transform="matrix(8,0,0,8,22.8965,8.409)">
                    <rect x="0.085" y="-0.106" width="0.102" height="0.106" style="fill-rule:nonzero;"/>
                </g>
                <g transform="matrix(8,0,0,8,25.1208,8.409)">
                    <path d="M0.292,-0.702C0.371,-0.702 0.425,-0.682 0.456,-0.641C0.487,-0.601 0.502,-0.559 0.502,-0.516L0.415,-0.516C0.41,-0.544 0.402,-0.565 0.39,-0.581C0.369,-0.61 0.337,-0.625 0.294,-0.625C0.245,-0.625 0.206,-0.602 0.177,-0.557C0.148,-0.511 0.132,-0.446 0.128,-0.362C0.149,-0.391 0.174,-0.414 0.205,-0.428C0.233,-0.441 0.264,-0.448 0.298,-0.448C0.357,-0.448 0.408,-0.429 0.452,-0.392C0.495,-0.354 0.517,-0.298 0.517,-0.224C0.517,-0.161 0.496,-0.104 0.455,-0.055C0.414,-0.006 0.355,0.018 0.278,0.018C0.213,0.018 0.156,-0.007 0.109,-0.056C0.061,-0.106 0.038,-0.19 0.038,-0.307C0.038,-0.394 0.048,-0.468 0.069,-0.528C0.11,-0.644 0.184,-0.702 0.292,-0.702ZM0.286,-0.06C0.332,-0.06 0.367,-0.076 0.39,-0.107C0.413,-0.138 0.424,-0.174 0.424,-0.217C0.424,-0.253 0.414,-0.287 0.394,-0.319C0.373,-0.351 0.336,-0.368 0.282,-0.368C0.244,-0.368 0.211,-0.355 0.182,-0.33C0.154,-0.305 0.14,-0.267 0.14,-0.217C0.14,-0.173 0.153,-0.135 0.178,-0.105C0.204,-0.075 0.24,-0.06 0.286,-0.06Z" style="fill-rule:nonzero;"/>
                </g>
            </g>
            <g transform="matrix(1.07529,0,0,1.61183,-3.21186,-4.49992)">
                <g transform="matrix(8,0,0,8,166.5,31.5996)">
                    <path d="M0.378,-0.737C0.469,-0.737 0.54,-0.713 0.59,-0.665C0.64,-0.617 0.668,-0.563 0.673,-0.502L0.579,-0.502C0.568,-0.548 0.546,-0.585 0.514,-0.612C0.482,-0.639 0.437,-0.652 0.379,-0.652C0.309,-0.652 0.252,-0.628 0.208,-0.578C0.165,-0.528 0.143,-0.452 0.143,-0.35C0.143,-0.266 0.163,-0.198 0.202,-0.145C0.241,-0.093 0.3,-0.067 0.377,-0.067C0.449,-0.067 0.504,-0.094 0.541,-0.149C0.561,-0.178 0.576,-0.216 0.585,-0.264L0.68,-0.264C0.672,-0.188 0.644,-0.125 0.596,-0.074C0.539,-0.012 0.462,0.019 0.366,0.019C0.282,0.019 0.212,-0.007 0.156,-0.057C0.081,-0.124 0.044,-0.227 0.044,-0.366C0.044,-0.472 0.072,-0.559 0.128,-0.626C0.188,-0.7 0.272,-0.737 0.378,-0.737Z" style="fill-rule:nonzero;"/>
                </g>
                <g transform="matrix(8,0,0,8,172.278,31.5996)">
                    <path d="M0.064,-0.72L0.152,-0.72L0.152,-0.452C0.173,-0.479 0.192,-0.497 0.208,-0.508C0.237,-0.526 0.272,-0.536 0.314,-0.536C0.39,-0.536 0.442,-0.509 0.469,-0.456C0.483,-0.427 0.491,-0.387 0.491,-0.335L0.491,-0L0.4,-0L0.4,-0.33C0.4,-0.368 0.396,-0.396 0.386,-0.414C0.37,-0.443 0.34,-0.457 0.296,-0.457C0.259,-0.457 0.226,-0.444 0.197,-0.419C0.167,-0.394 0.152,-0.347 0.152,-0.277L0.152,-0L0.064,-0L0.064,-0.72Z" style="fill-rule:nonzero;"/>
                </g>
                <g transform="matrix(8,0,0,8,176.727,31.5996)">
                    <rect x="0.067" y="-0.717" width="0.088" height="0.717" style="fill-rule:nonzero;"/>
                </g>
                <g transform="matrix(8,0,0,8,178.504,31.5996)">
                    <path d="M0.272,-0.057C0.33,-0.057 0.37,-0.079 0.392,-0.123C0.413,-0.167 0.424,-0.216 0.424,-0.27C0.424,-0.319 0.417,-0.359 0.401,-0.389C0.376,-0.437 0.333,-0.461 0.273,-0.461C0.219,-0.461 0.18,-0.441 0.156,-0.4C0.131,-0.359 0.119,-0.309 0.119,-0.251C0.119,-0.196 0.131,-0.149 0.156,-0.112C0.18,-0.075 0.219,-0.057 0.272,-0.057ZM0.275,-0.538C0.343,-0.538 0.4,-0.516 0.446,-0.471C0.493,-0.426 0.516,-0.36 0.516,-0.272C0.516,-0.188 0.496,-0.118 0.455,-0.063C0.414,-0.008 0.35,0.019 0.264,0.019C0.192,0.019 0.135,-0.005 0.092,-0.054C0.05,-0.103 0.029,-0.168 0.029,-0.25C0.029,-0.338 0.051,-0.408 0.096,-0.46C0.14,-0.512 0.2,-0.538 0.275,-0.538Z" style="fill-rule:nonzero;"/>
                </g>
                <g transform="matrix(8,0,0,8,182.954,31.5996)">
                    <path d="M0.067,-0.523L0.15,-0.523L0.15,-0.433C0.157,-0.45 0.174,-0.472 0.201,-0.497C0.227,-0.522 0.258,-0.535 0.293,-0.535C0.295,-0.535 0.297,-0.535 0.301,-0.534C0.305,-0.534 0.312,-0.533 0.321,-0.532L0.321,-0.439C0.316,-0.44 0.311,-0.441 0.307,-0.441C0.302,-0.442 0.298,-0.442 0.292,-0.442C0.248,-0.442 0.214,-0.428 0.19,-0.399C0.167,-0.371 0.155,-0.338 0.155,-0.301L0.155,-0L0.067,-0L0.067,-0.523Z" style="fill-rule:nonzero;"/>
                </g>
                <g transform="matrix(8,0,0,8,185.618,31.5996)">
                    <path d="M0.272,-0.057C0.33,-0.057 0.37,-0.079 0.392,-0.123C0.413,-0.167 0.424,-0.216 0.424,-0.27C0.424,-0.319 0.417,-0.359 0.401,-0.389C0.376,-0.437 0.333,-0.461 0.273,-0.461C0.219,-0.461 0.18,-0.441 0.156,-0.4C0.131,-0.359 0.119,-0.309 0.119,-0.251C0.119,-0.196 0.131,-0.149 0.156,-0.112C0.18,-0.075 0.219,-0.057 0.272,-0.057ZM0.275,-0.538C0.343,-0.538 0.4,-0.516 0.446,-0.471C0.493,-0.426 0.516,-0.36 0.516,-0.272C0.516,-0.188 0.496,-0.118 0.455,-0.063C0.414,-0.008 0.35,0.019 0.264,0.019C0.192,0.019 0.135,-0.005 0.092,-0.054C0.05,-0.103 0.029,-0.168 0.029,-0.25C0.029,-0.338 0.051,-0.408 0.096,-0.46C0.14,-0.512 0.2,-0.538 0.275,-0.538Z" style="fill-rule:nonzero;"/>
                </g>
                <g transform="matrix(8,0,0,8,190.068,31.5996)">
                    <path d="M0.086,-0.603C0.088,-0.639 0.094,-0.666 0.105,-0.683C0.126,-0.713 0.166,-0.728 0.224,-0.728C0.23,-0.728 0.235,-0.727 0.241,-0.727C0.247,-0.727 0.254,-0.726 0.261,-0.726L0.261,-0.646C0.252,-0.646 0.246,-0.647 0.241,-0.647C0.237,-0.647 0.234,-0.647 0.23,-0.647C0.203,-0.647 0.187,-0.64 0.182,-0.626C0.177,-0.612 0.174,-0.577 0.174,-0.521L0.261,-0.521L0.261,-0.451L0.173,-0.451L0.173,-0L0.086,-0L0.086,-0.451L0.014,-0.451L0.014,-0.521L0.086,-0.521L0.086,-0.603Z" style="fill-rule:nonzero;"/>
                </g>
                <g transform="matrix(8,0,0,8,192.29,31.5996)">
                    <path d="M0.272,-0.057C0.33,-0.057 0.37,-0.079 0.392,-0.123C0.413,-0.167 0.424,-0.216 0.424,-0.27C0.424,-0.319 0.417,-0.359 0.401,-0.389C0.376,-0.437 0.333,-0.461 0.273,-0.461C0.219,-0.461 0.18,-0.441 0.156,-0.4C0.131,-0.359 0.119,-0.309 0.119,-0.251C0.119,-0.196 0.131,-0.149 0.156,-0.112C0.18,-0.075 0.219,-0.057 0.272,-0.057ZM0.275,-0.538C0.343,-0.538 0.4,-0.516 0.446,-0.471C0.493,-0.426 0.516,-0.36 0.516,-0.272C0.516,-0.188 0.496,-0.118 0.455,-0.063C0.414,-0.008 0.35,0.019 0.264,0.019C0.192,0.019 0.135,-0.005 0.092,-0.054C0.05,-0.103 0.029,-0.168 0.029,-0.25C0.029,-0.338 0.051,-0.408 0.096,-0.46C0.14,-0.512 0.2,-0.538 0.275,-0.538Z" style="fill-rule:nonzero;"/>
                </g>
                <g transform="matrix(8,0,0,8,196.74,31.5996)">
                    <path d="M0.067,-0.523L0.15,-0.523L0.15,-0.433C0.157,-0.45 0.174,-0.472 0.201,-0.497C0.227,-0.522 0.258,-0.535 0.293,-0.535C0.295,-0.535 0.297,-0.535 0.301,-0.534C0.305,-0.534 0.312,-0.533 0.321,-0.532L0.321,-0.439C0.316,-0.44 0.311,-0.441 0.307,-0.441C0.302,-0.442 0.298,-0.442 0.292,-0.442C0.248,-0.442 0.214,-0.428 0.19,-0.399C0.167,-0.371 0.155,-0.338 0.155,-0.301L0.155,-0L0.067,-0L0.067,-0.523Z" style="fill-rule:nonzero;"/>
                </g>
                <g transform="matrix(8,0,0,8,199.404,31.5996)">
                    <path d="M0.064,-0.523L0.151,-0.523L0.151,-0.449C0.172,-0.474 0.191,-0.493 0.208,-0.505C0.237,-0.525 0.27,-0.535 0.307,-0.535C0.348,-0.535 0.382,-0.524 0.407,-0.504C0.422,-0.492 0.435,-0.475 0.446,-0.452C0.466,-0.48 0.489,-0.501 0.515,-0.514C0.542,-0.528 0.571,-0.535 0.604,-0.535C0.674,-0.535 0.722,-0.509 0.748,-0.458C0.761,-0.431 0.768,-0.394 0.768,-0.348L0.768,-0L0.677,-0L0.677,-0.363C0.677,-0.398 0.668,-0.422 0.651,-0.435C0.633,-0.448 0.612,-0.455 0.587,-0.455C0.552,-0.455 0.523,-0.443 0.498,-0.42C0.473,-0.397 0.46,-0.358 0.46,-0.304L0.46,-0L0.371,-0L0.371,-0.341C0.371,-0.377 0.367,-0.403 0.358,-0.419C0.345,-0.443 0.32,-0.456 0.284,-0.456C0.25,-0.456 0.22,-0.443 0.193,-0.417C0.166,-0.391 0.152,-0.345 0.152,-0.277L0.152,-0L0.064,-0L0.064,-0.523Z" style="fill-rule:nonzero;"/>
                </g>
            </g>
            <g transform="matrix(1.07529,0,0,1.61183,-3.21186,162.378)">
                <path d="M45.677,25.5L45.677,22.167M125.785,25.5L125.785,22.167M205.894,25.5L205.894,22.167M42.011,23.5L42.011,22.167M69.792,23.5L69.792,22.167M83.898,23.5L83.898,22.167M93.907,23.5L93.907,22.167M101.67,23.5L101.67,22.167M108.013,23.5L108.013,22.167M113.376,23.5L113.376,22.167M118.022,23.5L118.022,22.167M122.12,23.5L122.12,22.167M149.9,23.5L149.9,22.167M164.007,23.5L164.007,22.167M174.015,23.5L174.015,22.167M181.779,23.5L181.779,22.167M188.122,23.5L188.122,22.167M193.485,23.5L193.485,22.167M198.13,23.5L198.13,22.167M202.228,23.5L202.228,22.167" style="fill:none;fill-rule:nonzero;stroke:black;stroke-width:0.5px;"/>
            </g>
            <g transform="matrix(0,-1.61183,-1.07529,0,128.511,152.975)">
                <path d="M-23,88L92,88" style="fill:none;fill-rule:nonzero;stroke:black;stroke-width:0.5px;"/>
            </g>
            <g transform="matrix(1.07529,0,0,1.61183,-3.21186,-61.3241)">
                <path d="M31.167,145.5L34.5,145.5M33.167,128.076L34.5,128.076M31.167,110.652L34.5,110.652M33.167,93.227L34.5,93.227M31.167,75.803L34.5,75.803M33.167,58.379L34.5,58.379M31.167,40.955L34.5,40.955" style="fill:none;fill-rule:nonzero;stroke:black;stroke-width:0.5px;"/>
            </g>
            <g transform="matrix(1.07529,0,0,1.61183,-3.21186,-188.914)">
                <path d="M205.894,134.052L181.779,131.561L157.664,133.251L133.549,132.972L109.434,132.484L85.319,131.717L61.204,131.961" style="fill:none;fill-rule:nonzero;stroke:black;stroke-width:1px;stroke-linecap:butt;"/>
            </g>
            <g transform="matrix(0,-1.61183,-1.07529,0,359.649,359.02)">
                <path d="M205.894,129.561C204.789,129.561 203.894,130.456 203.894,131.561C203.894,132.665 204.789,133.561 205.894,133.561C206.998,133.561 207.894,132.665 207.894,131.561C207.894,130.456 206.998,129.561 205.894,129.561" style="fill:white;fill-rule:nonzero;stroke:black;stroke-width:1px;stroke-linecap:butt;"/>
            </g>
            <g transform="matrix(0,-1.61183,-1.07529,0,336.397,316.135)">
                <path d="M181.779,132.052C180.674,132.052 179.779,132.948 179.779,134.052C179.779,135.157 180.674,136.052 181.779,136.052C182.883,136.052 183.779,135.157 183.779,134.052C183.779,132.948 182.883,132.052 181.779,132.052" style="fill:white;fill-rule:nonzero;stroke:black;stroke-width:1px;stroke-linecap:butt;"/>
            </g>
            <g transform="matrix(0,-1.61183,-1.07529,0,308.649,279.99)">
                <path d="M157.664,130.362C156.559,130.362 155.664,131.258 155.664,132.362C155.664,133.467 156.559,134.362 157.664,134.362C158.768,134.362 159.664,133.467 159.664,132.362C159.664,131.258 158.768,130.362 157.664,130.362" style="fill:white;fill-rule:nonzero;stroke:black;stroke-width:1px;stroke-linecap:butt;"/>
            </g>
            <g transform="matrix(0,-1.61183,-1.07529,0,283.019,240.671)">
                <path d="M133.549,130.641C132.444,130.641 131.549,131.536 131.549,132.641C131.549,133.745 132.444,134.641 133.549,134.641C134.653,134.641 135.549,133.745 135.549,132.641C135.549,131.536 134.653,130.641 133.549,130.641" style="fill:white;fill-rule:nonzero;stroke:black;stroke-width:1px;stroke-linecap:butt;"/>
            </g>
            <g transform="matrix(0,-1.61183,-1.07529,0,257.613,201.016)">
                <path d="M109.434,131.129C108.329,131.129 107.434,132.024 107.434,133.129C107.434,134.233 108.329,135.129 109.434,135.129C110.538,135.129 111.434,134.233 111.434,133.129C111.434,132.024 110.538,131.129 109.434,131.129" style="fill:white;fill-rule:nonzero;stroke:black;stroke-width:1px;stroke-linecap:butt;"/>
            </g>
            <g transform="matrix(0,-1.61183,-1.07529,0,232.506,160.911)">
                <path d="M85.319,131.895C84.214,131.895 83.319,132.791 83.319,133.895C83.319,135 84.214,135.895 85.319,135.895C86.423,135.895 87.319,135 87.319,133.895C87.319,132.791 86.423,131.895 85.319,131.895" style="fill:white;fill-rule:nonzero;stroke:black;stroke-width:1px;stroke-linecap:butt;"/>
            </g>
            <g transform="matrix(0,-1.61183,-1.07529,0,206.313,122.435)">
                <path d="M61.204,131.652C60.099,131.652 59.204,132.547 59.204,133.652C59.204,134.756 60.099,135.652 61.204,135.652C62.308,135.652 63.204,134.756 63.204,133.652C63.204,132.547 62.308,131.652 61.204,131.652" style="fill:white;fill-rule:nonzero;stroke:black;stroke-width:1px;stroke-linecap:butt;"/>
            </g>
            <g transform="matrix(1.07529,0,0,1.61183,-3.21186,20.459)">
                <path d="M205.894,91.973L181.779,79.462L157.664,64.338L133.549,54.824L109.434,49.318L85.319,45.683L61.204,43.742" style="fill:none;fill-rule:nonzero;stroke:black;stroke-width:1px;stroke-linecap:butt;"/>
            </g>
            <g transform="matrix(0,-1.61183,-1.07529,0,265.219,500.568)">
                <path d="M205.894,41.742C204.789,41.742 203.894,42.638 203.894,43.742C203.894,44.847 204.789,45.742 205.894,45.742C206.998,45.742 207.894,44.847 207.894,43.742C207.894,42.638 206.998,41.742 205.894,41.742" style="fill-rule:nonzero;"/>
            </g>
            <g transform="matrix(0,-1.61183,-1.07529,0,252.741,441.534)">
                <path d="M181.779,54.253C180.674,54.253 179.779,55.148 179.779,56.253C179.779,57.358 180.674,58.253 181.779,58.253C182.883,58.253 183.779,57.358 183.779,56.253C183.779,55.148 182.883,54.253 181.779,54.253" style="fill-rule:nonzero;"/>
            </g>
            <g transform="matrix(0,-1.61183,-1.07529,0,243.073,378.287)">
                <path d="M157.664,69.377C156.559,69.377 155.664,70.273 155.664,71.377C155.664,72.482 156.559,73.377 157.664,73.377C158.768,73.377 159.664,72.482 159.664,71.377C159.664,70.273 158.768,69.377 157.664,69.377" style="fill-rule:nonzero;"/>
            </g>
            <g transform="matrix(0,-1.61183,-1.07529,0,227.372,324.083)">
                <path d="M133.549,78.891C132.444,78.891 131.549,79.786 131.549,80.891C131.549,81.996 132.444,82.891 133.549,82.891C134.653,82.891 135.549,81.996 135.549,80.891C135.549,79.786 134.653,78.891 133.549,78.891" style="fill-rule:nonzero;"/>
            </g>
            <g transform="matrix(0,-1.61183,-1.07529,0,207.362,276.339)">
                <path d="M109.434,84.397C108.329,84.397 107.434,85.292 107.434,86.397C107.434,87.502 108.329,88.397 109.434,88.397C110.538,88.397 111.434,87.502 111.434,86.397C111.434,85.292 110.538,84.397 109.434,84.397" style="fill-rule:nonzero;"/>
            </g>
            <g transform="matrix(0,-1.61183,-1.07529,0,185.34,231.611)">
                <path d="M85.319,88.032C84.214,88.032 83.319,88.927 83.319,90.032C83.319,91.136 84.214,92.032 85.319,92.032C86.423,92.032 87.319,91.136 87.319,90.032C87.319,88.927 86.423,88.032 85.319,88.032" style="fill-rule:nonzero;"/>
            </g>
            <g transform="matrix(0,-1.61183,-1.07529,0,161.497,189.614)">
                <path d="M61.204,89.973C60.099,89.973 59.204,90.868 59.204,91.973C59.204,93.077 60.099,93.973 61.204,93.973C62.308,93.973 63.204,93.077 63.204,91.973C63.204,90.868 62.308,89.973 61.204,89.973" style="fill-rule:nonzero;"/>
            </g>
            <g transform="matrix(1.07529,0,0,1.61183,-3.21186,-4.49992)">
                <g transform="matrix(8,0,0,8,178.5,88.5996)">
                    <path d="M0.124,-0.717L0.259,-0.134L0.421,-0.717L0.526,-0.717L0.688,-0.134L0.824,-0.717L0.93,-0.717L0.742,-0L0.64,-0L0.474,-0.595L0.308,-0L0.206,-0L0.018,-0.717L0.124,-0.717Z" style="fill-rule:nonzero;"/>
                </g>
                <g transform="matrix(8,0,0,8,185.759,88.5996)">
                    <path d="M0.132,-0.139C0.132,-0.114 0.141,-0.094 0.16,-0.079C0.178,-0.064 0.2,-0.057 0.226,-0.057C0.257,-0.057 0.286,-0.064 0.315,-0.079C0.364,-0.102 0.389,-0.141 0.389,-0.195L0.389,-0.266C0.378,-0.259 0.364,-0.254 0.347,-0.249C0.33,-0.244 0.314,-0.241 0.297,-0.239L0.244,-0.232C0.212,-0.228 0.188,-0.222 0.172,-0.212C0.145,-0.197 0.132,-0.173 0.132,-0.139ZM0.345,-0.317C0.365,-0.319 0.378,-0.328 0.385,-0.342C0.389,-0.35 0.391,-0.361 0.391,-0.376C0.391,-0.406 0.38,-0.428 0.359,-0.441C0.338,-0.455 0.307,-0.461 0.268,-0.461C0.222,-0.461 0.189,-0.449 0.17,-0.424C0.159,-0.411 0.152,-0.39 0.149,-0.363L0.067,-0.363C0.069,-0.428 0.089,-0.473 0.13,-0.498C0.17,-0.523 0.216,-0.536 0.27,-0.536C0.331,-0.536 0.381,-0.524 0.419,-0.5C0.458,-0.477 0.477,-0.441 0.477,-0.391L0.477,-0.09C0.477,-0.081 0.478,-0.073 0.482,-0.068C0.486,-0.062 0.494,-0.06 0.506,-0.06C0.51,-0.06 0.514,-0.06 0.519,-0.06C0.524,-0.061 0.529,-0.062 0.535,-0.063L0.535,0.002C0.521,0.006 0.511,0.009 0.503,0.01C0.496,0.011 0.486,0.011 0.474,0.011C0.444,0.011 0.422,0 0.408,-0.021C0.401,-0.032 0.396,-0.049 0.393,-0.069C0.375,-0.046 0.349,-0.026 0.316,-0.008C0.282,0.009 0.245,0.018 0.205,0.018C0.157,0.018 0.117,0.003 0.086,-0.027C0.055,-0.056 0.04,-0.093 0.04,-0.137C0.04,-0.186 0.055,-0.223 0.085,-0.25C0.116,-0.277 0.155,-0.293 0.205,-0.299L0.345,-0.317Z" style="fill-rule:nonzero;"/>
                </g>
                <g transform="matrix(8,0,0,8,190.209,88.5996)">
                    <path d="M0.082,-0.669L0.171,-0.669L0.171,-0.523L0.254,-0.523L0.254,-0.451L0.171,-0.451L0.171,-0.11C0.171,-0.092 0.177,-0.079 0.189,-0.073C0.196,-0.07 0.208,-0.068 0.224,-0.068C0.228,-0.068 0.232,-0.068 0.237,-0.068C0.242,-0.068 0.248,-0.069 0.254,-0.069L0.254,-0C0.244,0.003 0.234,0.005 0.223,0.006C0.212,0.008 0.2,0.008 0.188,0.008C0.146,0.008 0.119,-0.002 0.104,-0.023C0.089,-0.044 0.082,-0.071 0.082,-0.105L0.082,-0.451L0.011,-0.451L0.011,-0.523L0.082,-0.523L0.082,-0.669Z" style="fill-rule:nonzero;"/>
                </g>
                <g transform="matrix(8,0,0,8,192.432,88.5996)">
                    <path d="M0.282,-0.535C0.319,-0.535 0.355,-0.526 0.39,-0.509C0.425,-0.491 0.451,-0.469 0.47,-0.441C0.487,-0.415 0.499,-0.384 0.505,-0.349C0.51,-0.325 0.513,-0.286 0.513,-0.233L0.129,-0.233C0.131,-0.18 0.144,-0.138 0.167,-0.106C0.19,-0.074 0.227,-0.058 0.276,-0.058C0.322,-0.058 0.358,-0.073 0.386,-0.103C0.401,-0.121 0.412,-0.141 0.419,-0.164L0.505,-0.164C0.503,-0.145 0.496,-0.123 0.483,-0.1C0.47,-0.076 0.455,-0.057 0.439,-0.042C0.413,-0.016 0.38,0.002 0.34,0.011C0.319,0.016 0.295,0.019 0.269,0.019C0.203,0.019 0.148,-0.005 0.103,-0.052C0.058,-0.1 0.035,-0.166 0.035,-0.251C0.035,-0.335 0.058,-0.404 0.104,-0.456C0.149,-0.508 0.209,-0.535 0.282,-0.535ZM0.422,-0.303C0.419,-0.341 0.41,-0.372 0.397,-0.395C0.373,-0.437 0.333,-0.458 0.277,-0.458C0.236,-0.458 0.203,-0.443 0.175,-0.414C0.148,-0.385 0.133,-0.348 0.132,-0.303L0.422,-0.303Z" style="fill-rule:nonzero;"/>
                </g>
                <g transform="matrix(8,0,0,8,196.882,88.5996)">
                    <path d="M0.067,-0.523L0.15,-0.523L0.15,-0.433C0.157,-0.45 0.174,-0.472 0.201,-0.497C0.227,-0.522 0.258,-0.535 0.293,-0.535C0.295,-0.535 0.297,-0.535 0.301,-0.534C0.305,-0.534 0.312,-0.533 0.321,-0.532L0.321,-0.439C0.316,-0.44 0.311,-0.441 0.307,-0.441C0.302,-0.442 0.298,-0.442 0.292,-0.442C0.248,-0.442 0.214,-0.428 0.19,-0.399C0.167,-0.371 0.155,-0.338 0.155,-0.301L0.155,-0L0.067,-0L0.067,-0.523Z" style="fill-rule:nonzero;"/>
                </g>
            </g>
            <g transform="matrix(0,-1.61183,1.07529,0,-3.21186,-4.49992)">
                <g transform="matrix(8,0,0,8,-77.2,8.81901)">
                    <path d="M0.104,-0.706L0.498,-0.706L0.498,-0.634L0.218,-0.634L0.218,-0.632L0.392,-0.516C0.457,-0.472 0.502,-0.429 0.527,-0.386C0.55,-0.342 0.561,-0.297 0.56,-0.25C0.559,-0.181 0.537,-0.121 0.494,-0.07C0.45,-0.018 0.386,0.008 0.303,0.01C0.226,0.009 0.165,-0.015 0.12,-0.063C0.075,-0.11 0.051,-0.17 0.051,-0.243C0.052,-0.4 0.132,-0.485 0.291,-0.498L0.291,-0.5L0.104,-0.634L0.104,-0.706ZM0.311,-0.062C0.364,-0.063 0.402,-0.083 0.427,-0.124C0.451,-0.163 0.464,-0.205 0.464,-0.251C0.464,-0.277 0.461,-0.3 0.456,-0.319C0.451,-0.338 0.444,-0.354 0.436,-0.366C0.428,-0.379 0.42,-0.389 0.412,-0.397C0.404,-0.405 0.397,-0.411 0.392,-0.414C0.379,-0.426 0.36,-0.432 0.337,-0.432C0.211,-0.432 0.148,-0.368 0.147,-0.239C0.147,-0.19 0.161,-0.148 0.19,-0.115C0.219,-0.08 0.259,-0.063 0.311,-0.062Z" style="fill-rule:nonzero;"/>
                </g>
                <g transform="matrix(8,0,0,8,-70.0909,8.81901)">
                    <path d="M0.296,-0.729C0.245,-0.63 0.212,-0.557 0.196,-0.51C0.173,-0.438 0.162,-0.356 0.162,-0.263C0.162,-0.168 0.175,-0.082 0.201,-0.004C0.217,0.044 0.25,0.114 0.297,0.204L0.238,0.204C0.191,0.13 0.161,0.083 0.15,0.062C0.139,0.042 0.126,0.014 0.113,-0.021C0.095,-0.07 0.082,-0.121 0.075,-0.176C0.071,-0.204 0.069,-0.231 0.069,-0.257C0.069,-0.353 0.084,-0.439 0.115,-0.514C0.134,-0.562 0.174,-0.634 0.235,-0.729L0.296,-0.729Z" style="fill-rule:nonzero;"/>
                </g>
                <g transform="matrix(8,0,0,8,-67.4267,8.81901)">
                    <path d="M0.285,-0.059C0.326,-0.059 0.36,-0.076 0.387,-0.111C0.415,-0.145 0.428,-0.196 0.428,-0.265C0.428,-0.306 0.422,-0.342 0.41,-0.372C0.387,-0.43 0.346,-0.458 0.285,-0.458C0.224,-0.458 0.183,-0.428 0.16,-0.367C0.148,-0.335 0.142,-0.293 0.142,-0.243C0.142,-0.203 0.148,-0.168 0.16,-0.14C0.183,-0.086 0.225,-0.059 0.285,-0.059ZM0.058,-0.521L0.143,-0.521L0.143,-0.451C0.161,-0.475 0.18,-0.493 0.201,-0.506C0.23,-0.526 0.265,-0.536 0.305,-0.536C0.364,-0.536 0.415,-0.513 0.456,-0.468C0.497,-0.422 0.518,-0.357 0.518,-0.273C0.518,-0.159 0.488,-0.078 0.429,-0.029C0.391,0.002 0.347,0.018 0.297,0.018C0.257,0.018 0.224,0.009 0.198,-0.008C0.182,-0.018 0.165,-0.035 0.146,-0.059L0.146,0.208L0.058,0.208L0.058,-0.521Z" style="fill-rule:nonzero;"/>
                </g>
                <g transform="matrix(8,0,0,8,-62.9773,8.81901)">
                    <path d="M0.285,-0.059C0.326,-0.059 0.36,-0.076 0.387,-0.111C0.415,-0.145 0.428,-0.196 0.428,-0.265C0.428,-0.306 0.422,-0.342 0.41,-0.372C0.387,-0.43 0.346,-0.458 0.285,-0.458C0.224,-0.458 0.183,-0.428 0.16,-0.367C0.148,-0.335 0.142,-0.293 0.142,-0.243C0.142,-0.203 0.148,-0.168 0.16,-0.14C0.183,-0.086 0.225,-0.059 0.285,-0.059ZM0.058,-0.521L0.143,-0.521L0.143,-0.451C0.161,-0.475 0.18,-0.493 0.201,-0.506C0.23,-0.526 0.265,-0.536 0.305,-0.536C0.364,-0.536 0.415,-0.513 0.456,-0.468C0.497,-0.422 0.518,-0.357 0.518,-0.273C0.518,-0.159 0.488,-0.078 0.429,-0.029C0.391,0.002 0.347,0.018 0.297,0.018C0.257,0.018 0.224,0.009 0.198,-0.008C0.182,-0.018 0.165,-0.035 0.146,-0.059L0.146,0.208L0.058,0.208L0.058,-0.521Z" style="fill-rule:nonzero;"/>
                </g>
                <g transform="matrix(8,0,0,8,-58.5279,8.81901)">
                    <path d="M0.064,-0.523L0.151,-0.523L0.151,-0.449C0.172,-0.474 0.191,-0.493 0.208,-0.505C0.237,-0.525 0.27,-0.535 0.307,-0.535C0.348,-0.535 0.382,-0.524 0.407,-0.504C0.422,-0.492 0.435,-0.475 0.446,-0.452C0.466,-0.48 0.489,-0.501 0.515,-0.514C0.542,-0.528 0.571,-0.535 0.604,-0.535C0.674,-0.535 0.722,-0.509 0.748,-0.458C0.761,-0.431 0.768,-0.394 0.768,-0.348L0.768,-0L0.677,-0L0.677,-0.363C0.677,-0.398 0.668,-0.422 0.651,-0.435C0.633,-0.448 0.612,-0.455 0.587,-0.455C0.552,-0.455 0.523,-0.443 0.498,-0.42C0.473,-0.397 0.46,-0.358 0.46,-0.304L0.46,-0L0.371,-0L0.371,-0.341C0.371,-0.377 0.367,-0.403 0.358,-0.419C0.345,-0.443 0.32,-0.456 0.284,-0.456C0.25,-0.456 0.22,-0.443 0.193,-0.417C0.166,-0.391 0.152,-0.345 0.152,-0.277L0.152,-0L0.064,-0L0.064,-0.523Z" style="fill-rule:nonzero;"/>
                </g>
                <g transform="matrix(8,0,0,8,-51.8637,8.81901)">
                    <path d="M0.035,0.204C0.086,0.103 0.12,0.03 0.135,-0.017C0.158,-0.087 0.169,-0.169 0.169,-0.263C0.169,-0.357 0.156,-0.443 0.129,-0.521C0.113,-0.569 0.081,-0.639 0.033,-0.729L0.092,-0.729C0.142,-0.649 0.173,-0.6 0.183,-0.581C0.194,-0.562 0.205,-0.536 0.218,-0.503C0.233,-0.463 0.245,-0.423 0.251,-0.383C0.258,-0.343 0.261,-0.305 0.261,-0.268C0.261,-0.172 0.246,-0.086 0.215,-0.01C0.196,0.038 0.156,0.11 0.096,0.204L0.035,0.204Z" style="fill-rule:nonzero;"/>
                </g>
            </g>
            <g transform="matrix(1.07529,0,0,1.61183,-3.21186,-4.49992)">
                <g transform="matrix(8,0,0,8,97.9883,146.04)">
                    <path d="M0.378,-0.737C0.469,-0.737 0.54,-0.713 0.59,-0.665C0.64,-0.617 0.668,-0.563 0.673,-0.502L0.579,-0.502C0.568,-0.548 0.546,-0.585 0.514,-0.612C0.482,-0.639 0.437,-0.652 0.379,-0.652C0.309,-0.652 0.252,-0.628 0.208,-0.578C0.165,-0.528 0.143,-0.452 0.143,-0.35C0.143,-0.266 0.163,-0.198 0.202,-0.145C0.241,-0.093 0.3,-0.067 0.377,-0.067C0.449,-0.067 0.504,-0.094 0.541,-0.149C0.561,-0.178 0.576,-0.216 0.585,-0.264L0.68,-0.264C0.672,-0.188 0.644,-0.125 0.596,-0.074C0.539,-0.012 0.462,0.019 0.366,0.019C0.282,0.019 0.212,-0.007 0.156,-0.057C0.081,-0.124 0.044,-0.227 0.044,-0.366C0.044,-0.472 0.072,-0.559 0.128,-0.626C0.188,-0.7 0.272,-0.737 0.378,-0.737Z" style="fill-rule:nonzero;"/>
                </g>
                <g transform="matrix(8,0,0,8,103.766,146.04)">
                    <path d="M0.272,-0.057C0.33,-0.057 0.37,-0.079 0.392,-0.123C0.413,-0.167 0.424,-0.216 0.424,-0.27C0.424,-0.319 0.417,-0.359 0.401,-0.389C0.376,-0.437 0.333,-0.461 0.273,-0.461C0.219,-0.461 0.18,-0.441 0.156,-0.4C0.131,-0.359 0.119,-0.309 0.119,-0.251C0.119,-0.196 0.131,-0.149 0.156,-0.112C0.18,-0.075 0.219,-0.057 0.272,-0.057ZM0.275,-0.538C0.343,-0.538 0.4,-0.516 0.446,-0.471C0.493,-0.426 0.516,-0.36 0.516,-0.272C0.516,-0.188 0.496,-0.118 0.455,-0.063C0.414,-0.008 0.35,0.019 0.264,0.019C0.192,0.019 0.135,-0.005 0.092,-0.054C0.05,-0.103 0.029,-0.168 0.029,-0.25C0.029,-0.338 0.051,-0.408 0.096,-0.46C0.14,-0.512 0.2,-0.538 0.275,-0.538Z" style="fill-rule:nonzero;"/>
                </g>
                <g transform="matrix(8,0,0,8,108.215,146.04)">
                    <path d="M0.064,-0.523L0.148,-0.523L0.148,-0.449C0.173,-0.479 0.199,-0.501 0.227,-0.515C0.254,-0.528 0.285,-0.535 0.319,-0.535C0.393,-0.535 0.443,-0.509 0.469,-0.457C0.484,-0.429 0.491,-0.388 0.491,-0.335L0.491,-0L0.401,-0L0.401,-0.33C0.401,-0.361 0.397,-0.387 0.387,-0.407C0.372,-0.439 0.343,-0.456 0.302,-0.456C0.281,-0.456 0.264,-0.453 0.251,-0.449C0.227,-0.442 0.206,-0.428 0.188,-0.406C0.173,-0.389 0.163,-0.371 0.159,-0.353C0.155,-0.334 0.152,-0.308 0.152,-0.274L0.152,-0L0.064,-0L0.064,-0.523Z" style="fill-rule:nonzero;"/>
                </g>
                <g transform="matrix(8,0,0,8,112.665,146.04)">
                    <path d="M0.266,-0.538C0.325,-0.538 0.373,-0.524 0.41,-0.495C0.447,-0.466 0.469,-0.417 0.477,-0.347L0.391,-0.347C0.386,-0.379 0.374,-0.406 0.355,-0.427C0.337,-0.449 0.307,-0.459 0.266,-0.459C0.21,-0.459 0.17,-0.432 0.146,-0.377C0.13,-0.342 0.123,-0.298 0.123,-0.246C0.123,-0.194 0.134,-0.15 0.156,-0.114C0.178,-0.078 0.213,-0.06 0.26,-0.06C0.297,-0.06 0.326,-0.071 0.347,-0.094C0.368,-0.116 0.383,-0.146 0.391,-0.185L0.477,-0.185C0.467,-0.116 0.442,-0.065 0.403,-0.033C0.364,-0.001 0.314,0.015 0.253,0.015C0.185,0.015 0.131,-0.01 0.09,-0.06C0.049,-0.11 0.029,-0.172 0.029,-0.247C0.029,-0.339 0.051,-0.41 0.096,-0.461C0.14,-0.513 0.197,-0.538 0.266,-0.538Z" style="fill-rule:nonzero;"/>
                </g>
                <g transform="matrix(8,0,0,8,116.665,146.04)">
                    <path d="M0.282,-0.535C0.319,-0.535 0.355,-0.526 0.39,-0.509C0.425,-0.491 0.451,-0.469 0.47,-0.441C0.487,-0.415 0.499,-0.384 0.505,-0.349C0.51,-0.325 0.513,-0.286 0.513,-0.233L0.129,-0.233C0.131,-0.18 0.144,-0.138 0.167,-0.106C0.19,-0.074 0.227,-0.058 0.276,-0.058C0.322,-0.058 0.358,-0.073 0.386,-0.103C0.401,-0.121 0.412,-0.141 0.419,-0.164L0.505,-0.164C0.503,-0.145 0.496,-0.123 0.483,-0.1C0.47,-0.076 0.455,-0.057 0.439,-0.042C0.413,-0.016 0.38,0.002 0.34,0.011C0.319,0.016 0.295,0.019 0.269,0.019C0.203,0.019 0.148,-0.005 0.103,-0.052C0.058,-0.1 0.035,-0.166 0.035,-0.251C0.035,-0.335 0.058,-0.404 0.104,-0.456C0.149,-0.508 0.209,-0.535 0.282,-0.535ZM0.422,-0.303C0.419,-0.341 0.41,-0.372 0.397,-0.395C0.373,-0.437 0.333,-0.458 0.277,-0.458C0.236,-0.458 0.203,-0.443 0.175,-0.414C0.148,-0.385 0.133,-0.348 0.132,-0.303L0.422,-0.303Z" style="fill-rule:nonzero;"/>
                </g>
                <g transform="matrix(8,0,0,8,121.114,146.04)">
                    <path d="M0.064,-0.523L0.148,-0.523L0.148,-0.449C0.173,-0.479 0.199,-0.501 0.227,-0.515C0.254,-0.528 0.285,-0.535 0.319,-0.535C0.393,-0.535 0.443,-0.509 0.469,-0.457C0.484,-0.429 0.491,-0.388 0.491,-0.335L0.491,-0L0.401,-0L0.401,-0.33C0.401,-0.361 0.397,-0.387 0.387,-0.407C0.372,-0.439 0.343,-0.456 0.302,-0.456C0.281,-0.456 0.264,-0.453 0.251,-0.449C0.227,-0.442 0.206,-0.428 0.188,-0.406C0.173,-0.389 0.163,-0.371 0.159,-0.353C0.155,-0.334 0.152,-0.308 0.152,-0.274L0.152,-0L0.064,-0L0.064,-0.523Z" style="fill-rule:nonzero;"/>
                </g>
                <g transform="matrix(8,0,0,8,125.563,146.04)">
                    <path d="M0.082,-0.669L0.171,-0.669L0.171,-0.523L0.254,-0.523L0.254,-0.451L0.171,-0.451L0.171,-0.11C0.171,-0.092 0.177,-0.079 0.189,-0.073C0.196,-0.07 0.208,-0.068 0.224,-0.068C0.228,-0.068 0.232,-0.068 0.237,-0.068C0.242,-0.068 0.248,-0.069 0.254,-0.069L0.254,-0C0.244,0.003 0.234,0.005 0.223,0.006C0.212,0.008 0.2,0.008 0.188,0.008C0.146,0.008 0.119,-0.002 0.104,-0.023C0.089,-0.044 0.082,-0.071 0.082,-0.105L0.082,-0.451L0.011,-0.451L0.011,-0.523L0.082,-0.523L0.082,-0.669Z" style="fill-rule:nonzero;"/>
                </g>
                <g transform="matrix(8,0,0,8,127.786,146.04)">
                    <path d="M0.067,-0.523L0.15,-0.523L0.15,-0.433C0.157,-0.45 0.174,-0.472 0.201,-0.497C0.227,-0.522 0.258,-0.535 0.293,-0.535C0.295,-0.535 0.297,-0.535 0.301,-0.534C0.305,-0.534 0.312,-0.533 0.321,-0.532L0.321,-0.439C0.316,-0.44 0.311,-0.441 0.307,-0.441C0.302,-0.442 0.298,-0.442 0.292,-0.442C0.248,-0.442 0.214,-0.428 0.19,-0.399C0.167,-0.371 0.155,-0.338 0.155,-0.301L0.155,-0L0.067,-0L0.067,-0.523Z" style="fill-rule:nonzero;"/>
                </g>
                <g transform="matrix(8,0,0,8,130.451,146.04)">
                    <path d="M0.132,-0.139C0.132,-0.114 0.141,-0.094 0.16,-0.079C0.178,-0.064 0.2,-0.057 0.226,-0.057C0.257,-0.057 0.286,-0.064 0.315,-0.079C0.364,-0.102 0.389,-0.141 0.389,-0.195L0.389,-0.266C0.378,-0.259 0.364,-0.254 0.347,-0.249C0.33,-0.244 0.314,-0.241 0.297,-0.239L0.244,-0.232C0.212,-0.228 0.188,-0.222 0.172,-0.212C0.145,-0.197 0.132,-0.173 0.132,-0.139ZM0.345,-0.317C0.365,-0.319 0.378,-0.328 0.385,-0.342C0.389,-0.35 0.391,-0.361 0.391,-0.376C0.391,-0.406 0.38,-0.428 0.359,-0.441C0.338,-0.455 0.307,-0.461 0.268,-0.461C0.222,-0.461 0.189,-0.449 0.17,-0.424C0.159,-0.411 0.152,-0.39 0.149,-0.363L0.067,-0.363C0.069,-0.428 0.089,-0.473 0.13,-0.498C0.17,-0.523 0.216,-0.536 0.27,-0.536C0.331,-0.536 0.381,-0.524 0.419,-0.5C0.458,-0.477 0.477,-0.441 0.477,-0.391L0.477,-0.09C0.477,-0.081 0.478,-0.073 0.482,-0.068C0.486,-0.062 0.494,-0.06 0.506,-0.06C0.51,-0.06 0.514,-0.06 0.519,-0.06C0.524,-0.061 0.529,-0.062 0.535,-0.063L0.535,0.002C0.521,0.006 0.511,0.009 0.503,0.01C0.496,0.011 0.486,0.011 0.474,0.011C0.444,0.011 0.422,0 0.408,-0.021C0.401,-0.032 0.396,-0.049 0.393,-0.069C0.375,-0.046 0.349,-0.026 0.316,-0.008C0.282,0.009 0.245,0.018 0.205,0.018C0.157,0.018 0.117,0.003 0.086,-0.027C0.055,-0.056 0.04,-0.093 0.04,-0.137C0.04,-0.186 0.055,-0.223 0.085,-0.25C0.116,-0.277 0.155,-0.293 0.205,-0.299L0.345,-0.317Z" style="fill-rule:nonzero;"/>
                </g>
                <g transform="matrix(8,0,0,8,134.9,146.04)">
                    <path d="M0.082,-0.669L0.171,-0.669L0.171,-0.523L0.254,-0.523L0.254,-0.451L0.171,-0.451L0.171,-0.11C0.171,-0.092 0.177,-0.079 0.189,-0.073C0.196,-0.07 0.208,-0.068 0.224,-0.068C0.228,-0.068 0.232,-0.068 0.237,-0.068C0.242,-0.068 0.248,-0.069 0.254,-0.069L0.254,-0C0.244,0.003 0.234,0.005 0.223,0.006C0.212,0.008 0.2,0.008 0.188,0.008C0.146,0.008 0.119,-0.002 0.104,-0.023C0.089,-0.044 0.082,-0.071 0.082,-0.105L0.082,-0.451L0.011,-0.451L0.011,-0.523L0.082,-0.523L0.082,-0.669Z" style="fill-rule:nonzero;"/>
                </g>
                <g transform="matrix(8,0,0,8,137.123,146.04)">
                    <path d="M0.064,-0.521L0.154,-0.521L0.154,-0L0.064,-0L0.064,-0.521ZM0.064,-0.717L0.154,-0.717L0.154,-0.618L0.064,-0.618L0.064,-0.717Z" style="fill-rule:nonzero;"/>
                </g>
                <g transform="matrix(8,0,0,8,138.9,146.04)">
                    <path d="M0.272,-0.057C0.33,-0.057 0.37,-0.079 0.392,-0.123C0.413,-0.167 0.424,-0.216 0.424,-0.27C0.424,-0.319 0.417,-0.359 0.401,-0.389C0.376,-0.437 0.333,-0.461 0.273,-0.461C0.219,-0.461 0.18,-0.441 0.156,-0.4C0.131,-0.359 0.119,-0.309 0.119,-0.251C0.119,-0.196 0.131,-0.149 0.156,-0.112C0.18,-0.075 0.219,-0.057 0.272,-0.057ZM0.275,-0.538C0.343,-0.538 0.4,-0.516 0.446,-0.471C0.493,-0.426 0.516,-0.36 0.516,-0.272C0.516,-0.188 0.496,-0.118 0.455,-0.063C0.414,-0.008 0.35,0.019 0.264,0.019C0.192,0.019 0.135,-0.005 0.092,-0.054C0.05,-0.103 0.029,-0.168 0.029,-0.25C0.029,-0.338 0.051,-0.408 0.096,-0.46C0.14,-0.512 0.2,-0.538 0.275,-0.538Z" style="fill-rule:nonzero;"/>
                </g>
                <g transform="matrix(8,0,0,8,143.35,146.04)">
                    <path d="M0.064,-0.523L0.148,-0.523L0.148,-0.449C0.173,-0.479 0.199,-0.501 0.227,-0.515C0.254,-0.528 0.285,-0.535 0.319,-0.535C0.393,-0.535 0.443,-0.509 0.469,-0.457C0.484,-0.429 0.491,-0.388 0.491,-0.335L0.491,-0L0.401,-0L0.401,-0.33C0.401,-0.361 0.397,-0.387 0.387,-0.407C0.372,-0.439 0.343,-0.456 0.302,-0.456C0.281,-0.456 0.264,-0.453 0.251,-0.449C0.227,-0.442 0.206,-0.428 0.188,-0.406C0.173,-0.389 0.163,-0.371 0.159,-0.353C0.155,-0.334 0.152,-0.308 0.152,-0.274L0.152,-0L0.064,-0L0.064,-0.523Z" style="fill-rule:nonzero;"/>
                </g>
                <g transform="matrix(8,0,0,8,150.022,146.04)">
                    <path d="M0.296,-0.729C0.245,-0.63 0.212,-0.557 0.196,-0.51C0.173,-0.438 0.162,-0.356 0.162,-0.263C0.162,-0.168 0.175,-0.082 0.201,-0.004C0.217,0.044 0.25,0.114 0.297,0.204L0.238,0.204C0.191,0.13 0.161,0.083 0.15,0.062C0.139,0.042 0.126,0.014 0.113,-0.021C0.095,-0.07 0.082,-0.121 0.075,-0.176C0.071,-0.204 0.069,-0.231 0.069,-0.257C0.069,-0.353 0.084,-0.439 0.115,-0.514C0.134,-0.562 0.174,-0.634 0.235,-0.729L0.296,-0.729Z" style="fill-rule:nonzero;"/>
                </g>
                <g transform="matrix(8,0,0,8,152.686,146.04)">
                    <path d="M0.074,-0.717L0.213,-0.717L0.419,-0.111L0.624,-0.717L0.761,-0.717L0.761,-0L0.669,-0L0.669,-0.423C0.669,-0.438 0.669,-0.462 0.67,-0.496C0.671,-0.53 0.671,-0.566 0.671,-0.605L0.466,-0L0.37,-0L0.164,-0.605L0.164,-0.583C0.164,-0.565 0.164,-0.539 0.165,-0.503C0.166,-0.467 0.167,-0.44 0.167,-0.423L0.167,-0L0.074,-0L0.074,-0.717Z" style="fill-rule:nonzero;"/>
                </g>
                <g transform="matrix(8,0,0,8,159.35,146.04)">
                    <path d="M0.035,0.204C0.086,0.103 0.12,0.03 0.135,-0.017C0.158,-0.087 0.169,-0.169 0.169,-0.263C0.169,-0.357 0.156,-0.443 0.129,-0.521C0.113,-0.569 0.081,-0.639 0.033,-0.729L0.092,-0.729C0.142,-0.649 0.173,-0.6 0.183,-0.581C0.194,-0.562 0.205,-0.536 0.218,-0.503C0.233,-0.463 0.245,-0.423 0.251,-0.383C0.258,-0.343 0.261,-0.305 0.261,-0.268C0.261,-0.172 0.246,-0.086 0.215,-0.01C0.196,0.038 0.156,0.11 0.096,0.204L0.035,0.204Z" style="fill-rule:nonzero;"/>
                </g>
            </g>
        </g>
    </g>
</svg>
