<?xml version="1.0" encoding="UTF-8" standalone="no"?>
<!DOCTYPE svg PUBLIC "-//W3C//DTD SVG 1.1//EN" "http://www.w3.org/Graphics/SVG/1.1/DTD/svg11.dtd">
<svg width="366px" height="112px" viewBox="0 0 183 56" version="1.1" xmlns="http://www.w3.org/2000/svg" xmlns:xlink="http://www.w3.org/1999/xlink" xml:space="preserve" xmlns:serif="http://www.serif.com/" style="fill-rule:evenodd;clip-rule:evenodd;stroke-linejoin:round;stroke-miterlimit:2;">
    <g id="Artboard1" transform="matrix(0.779031,0,0,0.239021,0,0)">
        <rect x="0" y="0" width="234" height="234" style="fill:none;"/>
        <clipPath id="_clip1">
            <rect x="0" y="0" width="234" height="234"/>
        </clipPath>
        <g clip-path="url(#_clip1)">
            <g transform="matrix(1.28365,0,0,4.18374,-38.232,-169.016)">
                <g transform="matrix(1,0,0,1,10.2816,5.09707)">
                    <g transform="matrix(1,0,0,1,25.9355,32.8594)">
                        <g transform="matrix(8,0,0,8,68.6901,25.5383)">
                            <path d="M0.079,-0.717L0.177,-0.717L0.177,-0.421L0.55,-0.421L0.55,-0.717L0.648,-0.717L0.648,-0L0.55,-0L0.55,-0.335L0.177,-0.335L0.177,-0L0.079,-0L0.079,-0.717Z" style="fill-rule:nonzero;"/>
                        </g>
                        <g transform="matrix(8,0,0,8,74.4677,25.5383)">
                            <path d="M0.076,-0.717L0.191,-0.717L0.553,-0.136L0.553,-0.717L0.646,-0.717L0.646,-0L0.537,-0L0.169,-0.581L0.169,-0L0.076,-0L0.076,-0.717Z" style="fill-rule:nonzero;"/>
                        </g>
                    </g>
                    <g transform="matrix(1,0,0,1,25.9355,32.8594)">
                        <g transform="matrix(8,0,0,8,84.4441,42.8181)">
                            <path d="M0.076,-0.717L0.191,-0.717L0.553,-0.136L0.553,-0.717L0.646,-0.717L0.646,-0L0.537,-0L0.169,-0.581L0.169,-0L0.076,-0L0.076,-0.717Z" style="fill-rule:nonzero;"/>
                        </g>
                    </g>
                    <g transform="matrix(1,0,0,1,25.9355,32.8594)">
                        <g transform="matrix(8,0,0,8,105.377,40.6168)">
                            <path d="M0.076,-0.717L0.191,-0.717L0.553,-0.136L0.553,-0.717L0.646,-0.717L0.646,-0L0.537,-0L0.169,-0.581L0.169,-0L0.076,-0L0.076,-0.717Z" style="fill-rule:nonzero;"/>
                        </g>
                    </g>
                    <g transform="matrix(1,0,0,1,25.9355,32.8594)">
                        <g transform="matrix(8,0,0,8,105.377,47.3551)">
                            <path d="M0.079,-0.717L0.177,-0.717L0.177,-0.421L0.55,-0.421L0.55,-0.717L0.648,-0.717L0.648,-0L0.55,-0L0.55,-0.335L0.177,-0.335L0.177,-0L0.079,-0L0.079,-0.717Z" style="fill-rule:nonzero;"/>
                        </g>
                    </g>
                    <g transform="matrix(1,0,0,1,25.9355,32.8594)">
                        <g transform="matrix(8,0,0,8,105.377,21.9796)">
                            <path d="M0.076,-0.717L0.191,-0.717L0.553,-0.136L0.553,-0.717L0.646,-0.717L0.646,-0L0.537,-0L0.169,-0.581L0.169,-0L0.076,-0L0.076,-0.717Z" style="fill-rule:nonzero;"/>
                        </g>
                    </g>
                    <g transform="matrix(1,0,0,1,25.9355,32.8594)">
                        <g transform="matrix(8,0,0,8,84.2214,8.33654)">
                            <path d="M0.386,-0.737C0.512,-0.737 0.606,-0.696 0.667,-0.615C0.715,-0.551 0.738,-0.47 0.738,-0.371C0.738,-0.264 0.711,-0.175 0.657,-0.104C0.593,-0.021 0.502,0.021 0.384,0.021C0.273,0.021 0.187,-0.015 0.124,-0.088C0.067,-0.159 0.039,-0.248 0.039,-0.355C0.039,-0.452 0.063,-0.535 0.111,-0.604C0.173,-0.693 0.265,-0.737 0.386,-0.737ZM0.396,-0.066C0.481,-0.066 0.543,-0.097 0.581,-0.158C0.62,-0.219 0.639,-0.29 0.639,-0.37C0.639,-0.454 0.617,-0.522 0.573,-0.573C0.528,-0.625 0.468,-0.65 0.392,-0.65C0.317,-0.65 0.257,-0.625 0.21,-0.574C0.163,-0.523 0.14,-0.448 0.14,-0.349C0.14,-0.269 0.16,-0.202 0.2,-0.148C0.24,-0.093 0.305,-0.066 0.396,-0.066Z" style="fill-rule:nonzero;"/>
                        </g>
                    </g>
                    <g transform="matrix(1,0,0,1,25.9355,32.8594)">
                        <g transform="matrix(8,0,0,8,55.3766,42.8181)">
                            <path d="M0.079,-0.717L0.177,-0.717L0.177,-0.421L0.55,-0.421L0.55,-0.717L0.648,-0.717L0.648,-0L0.55,-0L0.55,-0.335L0.177,-0.335L0.177,-0L0.079,-0L0.079,-0.717Z" style="fill-rule:nonzero;"/>
                        </g>
                        <g transform="matrix(6,0,0,6,61.1539,44.6579)">
                            <path d="M0.031,-0C0.035,-0.06 0.047,-0.113 0.069,-0.157C0.09,-0.202 0.132,-0.242 0.195,-0.279L0.289,-0.333C0.331,-0.357 0.361,-0.378 0.377,-0.396C0.404,-0.423 0.417,-0.453 0.417,-0.488C0.417,-0.529 0.405,-0.561 0.381,-0.585C0.356,-0.609 0.324,-0.621 0.283,-0.621C0.223,-0.621 0.181,-0.598 0.158,-0.553C0.146,-0.528 0.139,-0.494 0.138,-0.451L0.048,-0.451C0.049,-0.512 0.061,-0.562 0.082,-0.6C0.12,-0.668 0.187,-0.702 0.284,-0.702C0.364,-0.702 0.422,-0.68 0.459,-0.637C0.496,-0.593 0.515,-0.545 0.515,-0.492C0.515,-0.436 0.495,-0.388 0.456,-0.349C0.433,-0.326 0.392,-0.298 0.333,-0.265L0.266,-0.228C0.234,-0.21 0.209,-0.193 0.191,-0.177C0.158,-0.149 0.138,-0.118 0.129,-0.083L0.511,-0.083L0.511,-0L0.031,-0Z" style="fill-rule:nonzero;"/>
                        </g>
                        <g transform="matrix(8,0,0,8,64.4908,42.8181)">
                            <path d="M0.076,-0.717L0.191,-0.717L0.553,-0.136L0.553,-0.717L0.646,-0.717L0.646,-0L0.537,-0L0.169,-0.581L0.169,-0L0.076,-0L0.076,-0.717Z" style="fill-rule:nonzero;"/>
                        </g>
                    </g>
                    <g transform="matrix(1,0,0,1,25.9355,41.8771)">
                        <path d="M77.056,17.786L77.656,17.786L77.656,25.023L77.356,25.196L77.056,25.023L77.056,17.786Z" style="fill-rule:nonzero;"/>
                    </g>
                    <g transform="matrix(1,0,0,1,25.9355,52.7345)">
                        <path d="M77.356,14.685L77.356,14.339L77.656,14.166L83.327,17.44L83.027,17.959L77.356,14.685Z" style="fill-rule:nonzero;"/>
                    </g>
                    <g transform="matrix(0.499991,-0.86603,-0.86603,-0.499991,82.0911,146.918)">
                        <rect x="81.522" y="14.84" width="0.6" height="5.524"/>
                    </g>
                    <g transform="matrix(1,0,0,1,25.9355,52.8032)">
                        <path d="M91.52,17.959L91.22,17.44L97.009,14.097L97.309,14.27L97.344,14.597L91.52,17.959Z" style="fill-rule:nonzero;"/>
                    </g>
                    <g transform="matrix(1,0,0,1,25.9355,37.7675)">
                        <path d="M97.609,29.088L97.309,29.306L97.009,29.133L97.009,17.959L97.309,17.786L97.609,18.004L97.609,29.088Z" style="fill-rule:nonzero;"/>
                    </g>
                    <g transform="matrix(1,0,0,1,25.9355,37.7675)">
                        <rect x="94.936" y="18.983" width="0.6" height="9.126"/>
                    </g>
                    <g transform="matrix(1,0,0,1,25.9355,20.3144)">
                        <path d="M97.344,34.912L97.309,35.239L97.009,35.412L87.333,29.825L87.333,29.133L97.344,34.912Z" style="fill-rule:nonzero;"/>
                    </g>
                    <g transform="matrix(0,1,1,0,76.8356,-32.848)">
                        <path d="M82.295,36.433L82.988,36.433L86.312,30.675L85.793,30.375L82.295,36.433Z" style="fill-rule:nonzero;"/>
                    </g>
                    <g transform="matrix(1,0,0,1,25.9355,51.6079)">
                        <path d="M97.344,15.792L97.309,15.465L97.609,15.247L104.339,17.433L104.154,18.004L97.344,15.792Z" style="fill-rule:nonzero;"/>
                    </g>
                    <g transform="matrix(-0.808964,-0.587858,-0.587858,0.808964,242.905,113.746)">
                        <path d="M112.982,24.049L113.582,24.049L113.582,17.723L112.982,17.287L112.982,24.049Z" style="fill-rule:nonzero;"/>
                    </g>
                    <g transform="matrix(-1,0,0,1,252.233,32.2155)">
                        <path d="M110.888,29.098L111.63,29.098L115.409,23.899L114.923,23.546L110.888,29.098Z" style="fill-rule:nonzero;"/>
                    </g>
                    <g transform="matrix(-0.808907,0.587937,0.587937,0.808907,211.594,-26.7324)">
                        <rect x="110.664" y="23.055" width="0.6" height="5.138"/>
                    </g>
                    <g transform="matrix(1,0,0,1,25.9355,23.9476)">
                        <path d="M104.09,29.088L104.276,29.659L97.609,31.824L97.309,31.606L97.344,31.279L104.09,29.088Z" style="fill-rule:nonzero;"/>
                    </g>
                    <g transform="matrix(1,0,0,1,25.9355,8.18783)">
                        <rect x="85.996" y="34.467" width="0.6" height="7.737"/>
                    </g>
                    <g transform="matrix(1,0,0,1,25.9355,8.18783)">
                        <rect x="88.07" y="34.467" width="0.6" height="7.737"/>
                    </g>
                    <g transform="matrix(1,0,0,1,25.9355,52.8009)">
                        <path d="M77.056,14.099L77.356,14.272L77.356,14.619L71.57,17.959L71.27,17.44L77.056,14.099Z" style="fill-rule:nonzero;"/>
                    </g>
                </g>
                <g transform="matrix(1,0,0,1,14.2533,4.50691)">
                    <g transform="matrix(1,0,0,1,25.9355,32.8594)">
                        <g transform="matrix(8,0,0,8,130.828,26.1284)">
                            <path d="M0.076,-0.717L0.191,-0.717L0.553,-0.136L0.553,-0.717L0.646,-0.717L0.646,-0L0.537,-0L0.169,-0.581L0.169,-0L0.076,-0L0.076,-0.717Z" style="fill-rule:nonzero;"/>
                        </g>
                    </g>
                    <g transform="matrix(1,0,0,1,25.9355,32.8594)">
                        <g transform="matrix(8,0,0,8,140.804,43.4083)">
                            <path d="M0.076,-0.717L0.191,-0.717L0.553,-0.136L0.553,-0.717L0.646,-0.717L0.646,-0L0.537,-0L0.169,-0.581L0.169,-0L0.076,-0L0.076,-0.717Z" style="fill-rule:nonzero;"/>
                        </g>
                    </g>
                    <g transform="matrix(1,0,0,1,25.9355,32.8594)">
                        <g transform="matrix(8,0,0,8,161.737,41.207)">
                            <path d="M0.076,-0.717L0.191,-0.717L0.553,-0.136L0.553,-0.717L0.646,-0.717L0.646,-0L0.537,-0L0.169,-0.581L0.169,-0L0.076,-0L0.076,-0.717Z" style="fill-rule:nonzero;"/>
                        </g>
                    </g>
                    <g transform="matrix(1,0,0,1,25.9355,32.8594)">
                        <g transform="matrix(8,0,0,8,161.737,47.9452)">
                            <path d="M0.079,-0.717L0.177,-0.717L0.177,-0.421L0.55,-0.421L0.55,-0.717L0.648,-0.717L0.648,-0L0.55,-0L0.55,-0.335L0.177,-0.335L0.177,-0L0.079,-0L0.079,-0.717Z" style="fill-rule:nonzero;"/>
                        </g>
                    </g>
                    <g transform="matrix(1,0,0,1,25.9355,32.8594)">
                        <g transform="matrix(8,0,0,8,161.737,22.5698)">
                            <path d="M0.076,-0.717L0.191,-0.717L0.553,-0.136L0.553,-0.717L0.646,-0.717L0.646,-0L0.537,-0L0.169,-0.581L0.169,-0L0.076,-0L0.076,-0.717Z" style="fill-rule:nonzero;"/>
                        </g>
                    </g>
                    <g transform="matrix(1,0,0,1,25.9355,32.8594)">
                        <g transform="matrix(8,0,0,8,140.804,8.84857)">
                            <path d="M0.076,-0.717L0.191,-0.717L0.553,-0.136L0.553,-0.717L0.646,-0.717L0.646,-0L0.537,-0L0.169,-0.581L0.169,-0L0.076,-0L0.076,-0.717Z" style="fill-rule:nonzero;"/>
                        </g>
                        <g transform="matrix(8,0,0,8,146.582,8.84857)">
                            <path d="M0.079,-0.717L0.177,-0.717L0.177,-0.421L0.55,-0.421L0.55,-0.717L0.648,-0.717L0.648,-0L0.55,-0L0.55,-0.335L0.177,-0.335L0.177,-0L0.079,-0L0.079,-0.717Z" style="fill-rule:nonzero;"/>
                        </g>
                        <g transform="matrix(6,0,0,6,152.359,10.6884)">
                            <path d="M0.031,-0C0.035,-0.06 0.047,-0.113 0.069,-0.157C0.09,-0.202 0.132,-0.242 0.195,-0.279L0.289,-0.333C0.331,-0.357 0.361,-0.378 0.377,-0.396C0.404,-0.423 0.417,-0.453 0.417,-0.488C0.417,-0.529 0.405,-0.561 0.381,-0.585C0.356,-0.609 0.324,-0.621 0.283,-0.621C0.223,-0.621 0.181,-0.598 0.158,-0.553C0.146,-0.528 0.139,-0.494 0.138,-0.451L0.048,-0.451C0.049,-0.512 0.061,-0.562 0.082,-0.6C0.12,-0.668 0.187,-0.702 0.284,-0.702C0.364,-0.702 0.422,-0.68 0.459,-0.637C0.496,-0.593 0.515,-0.545 0.515,-0.492C0.515,-0.436 0.495,-0.388 0.456,-0.349C0.433,-0.326 0.392,-0.298 0.333,-0.265L0.266,-0.228C0.234,-0.21 0.209,-0.193 0.191,-0.177C0.158,-0.149 0.138,-0.118 0.129,-0.083L0.511,-0.083L0.511,-0L0.031,-0Z" style="fill-rule:nonzero;"/>
                        </g>
                    </g>
                    <g transform="matrix(1,0,0,1,25.9355,43.2306)">
                        <path d="M133.416,17.023L134.016,17.023L134.016,24.26L133.416,24.606L133.416,17.023Z" style="fill-rule:nonzero;"/>
                    </g>
                    <g transform="matrix(0.866026,-0.5,-0.5,-0.866026,51.9661,151.062)">
                        <path d="M134.612,18.383L135.304,18.383L138.578,12.712L138.059,12.412L134.612,18.383Z" style="fill-rule:nonzero;"/>
                    </g>
                    <g transform="matrix(0.500004,-0.866023,-0.866023,-0.500004,109.759,196.022)">
                        <rect x="137.882" y="14.25" width="0.6" height="5.524"/>
                    </g>
                    <g transform="matrix(1,0,0,1,25.9355,53.9835)">
                        <path d="M147.88,17.369L147.58,16.849L153.369,13.507L153.669,13.68L153.704,14.007L147.88,17.369Z" style="fill-rule:nonzero;"/>
                    </g>
                    <g transform="matrix(1,0,0,1,25.9355,38.9478)">
                        <path d="M153.969,28.498L153.669,28.716L153.369,28.543L153.369,17.369L153.669,17.196L153.969,17.414L153.969,28.498Z" style="fill-rule:nonzero;"/>
                    </g>
                    <g transform="matrix(1,0,0,1,25.9355,38.9478)">
                        <rect x="151.296" y="18.393" width="0.6" height="9.126"/>
                    </g>
                    <g transform="matrix(1,0,0,1,25.9355,21.668)">
                        <path d="M153.704,34.149L153.669,34.476L153.369,34.649L143.693,29.062L143.693,28.716L143.993,28.543L153.704,34.149Z" style="fill-rule:nonzero;"/>
                    </g>
                    <g transform="matrix(1,0,0,1,25.9355,19.4238)">
                        <path d="M143.393,30.787L143.693,30.96L143.693,31.306L137.903,34.649L137.603,34.129L143.393,30.787Z" style="fill-rule:nonzero;"/>
                    </g>
                    <g transform="matrix(0.500004,0.866023,0.866023,-0.500004,69.9983,-52.7919)">
                        <rect x="140.941" y="27.835" width="0.6" height="5.661"/>
                    </g>
                    <g transform="matrix(1,0,0,1,25.9355,52.7882)">
                        <path d="M153.704,15.202L153.669,14.875L153.969,14.657L160.699,16.843L160.514,17.414L153.704,15.202Z" style="fill-rule:nonzero;"/>
                    </g>
                    <g transform="matrix(-0.808972,-0.587847,-0.587847,0.808972,344.481,147.966)">
                        <path d="M169.33,23.463L169.93,23.463L169.93,17.096L169.33,16.66L169.33,23.463Z" style="fill-rule:nonzero;"/>
                    </g>
                    <g transform="matrix(-1,0,0,1,364.953,33.3958)">
                        <path d="M167.249,28.508L167.99,28.508L171.769,23.308L171.283,22.956L167.249,28.508Z" style="fill-rule:nonzero;"/>
                    </g>
                    <g transform="matrix(-0.808972,0.587847,0.587847,0.808972,313.904,-58.7877)">
                        <rect x="167.024" y="22.465" width="0.6" height="5.138"/>
                    </g>
                    <g transform="matrix(1,0,0,1,25.9355,25.128)">
                        <path d="M160.451,28.498L160.636,29.068L153.969,31.234L153.669,31.016L153.704,30.689L160.451,28.498Z" style="fill-rule:nonzero;"/>
                    </g>
                    <g transform="matrix(1,0,0,1,25.9355,8.49769)">
                        <path d="M143.993,41.713L143.693,41.886L143.393,41.713L143.393,34.476L143.993,34.476L143.993,41.713Z" style="fill-rule:nonzero;"/>
                    </g>
                </g>
                <g transform="matrix(1,0,0,1,1.848,3.26757)">
                    <g transform="matrix(1,0,0,1,25.9355,32.8594)">
                        <g transform="matrix(8,0,0,8,1.39106,26.5238)">
                            <path d="M0.076,-0.717L0.191,-0.717L0.553,-0.136L0.553,-0.717L0.646,-0.717L0.646,-0L0.537,-0L0.169,-0.581L0.169,-0L0.076,-0L0.076,-0.717Z" style="fill-rule:nonzero;"/>
                        </g>
                    </g>
                    <g transform="matrix(1,0,0,1,25.9355,32.8594)">
                        <g transform="matrix(8,0,0,8,11.9254,44.7715)">
                            <path d="M0.076,-0.717L0.191,-0.717L0.553,-0.136L0.553,-0.717L0.646,-0.717L0.646,-0L0.537,-0L0.169,-0.581L0.169,-0L0.076,-0L0.076,-0.717Z" style="fill-rule:nonzero;"/>
                        </g>
                    </g>
                    <g transform="matrix(1,0,0,1,25.9355,32.8594)">
                        <g transform="matrix(8,0,0,8,34.0268,42.4463)">
                            <path d="M0.076,-0.717L0.191,-0.717L0.553,-0.136L0.553,-0.717L0.646,-0.717L0.646,-0L0.537,-0L0.169,-0.581L0.169,-0L0.076,-0L0.076,-0.717Z" style="fill-rule:nonzero;"/>
                        </g>
                    </g>
                    <g transform="matrix(1,0,0,1,25.9355,32.8594)">
                        <g transform="matrix(8,0,0,8,34.0268,49.1846)">
                            <path d="M0.079,-0.717L0.177,-0.717L0.177,-0.421L0.55,-0.421L0.55,-0.717L0.648,-0.717L0.648,-0L0.55,-0L0.55,-0.335L0.177,-0.335L0.177,-0L0.079,-0L0.079,-0.717Z" style="fill-rule:nonzero;"/>
                        </g>
                    </g>
                    <g transform="matrix(1,0,0,1,25.9355,32.8594)">
                        <g transform="matrix(8,0,0,8,34.0268,22.7675)">
                            <path d="M0.076,-0.717L0.191,-0.717L0.553,-0.136L0.553,-0.717L0.646,-0.717L0.646,-0L0.537,-0L0.169,-0.581L0.169,-0L0.076,-0L0.076,-0.717Z" style="fill-rule:nonzero;"/>
                        </g>
                    </g>
                    <g transform="matrix(1,0,0,1,25.9355,44.6676)">
                        <path d="M3.98,15.981L4.58,15.981L4.58,23.864L3.98,24.211L3.98,15.981Z" style="fill-rule:nonzero;"/>
                    </g>
                    <g transform="matrix(0.866022,-0.500006,-0.500006,-0.866022,34.0611,86.6445)">
                        <path d="M5.293,17.459L5.986,17.459L9.582,11.231L9.062,10.931L5.293,17.459Z" style="fill-rule:nonzero;"/>
                    </g>
                    <g transform="matrix(0.499979,-0.866038,-0.866038,-0.499979,44.2553,84.8029)">
                        <rect x="8.811" y="12.843" width="0.6" height="6.101"/>
                    </g>
                    <g transform="matrix(1,0,0,1,25.9355,56.3885)">
                        <path d="M19.001,16.327L18.701,15.808L25.048,12.143L25.348,12.317L25.383,12.643L19.001,16.327Z" style="fill-rule:nonzero;"/>
                    </g>
                    <g transform="matrix(1,0,0,1,25.9355,40.3848)">
                        <path d="M25.648,28.102L25.348,28.32L25.048,28.147L25.048,16.327L25.348,16.154L25.648,16.372L25.648,28.102Z" style="fill-rule:nonzero;"/>
                    </g>
                    <g transform="matrix(1,0,0,1,25.9355,40.3848)">
                        <rect x="22.858" y="17.419" width="0.6" height="9.637"/>
                    </g>
                    <g transform="matrix(1,0,0,1,25.9355,21.9639)">
                        <path d="M25.383,34.249L25.348,34.575L25.048,34.748L14.814,28.84L14.814,28.147L25.383,34.249Z" style="fill-rule:nonzero;"/>
                    </g>
                    <g transform="matrix(0,1,1,0,4.85622,40.7993)">
                        <path d="M9.312,35.893L10.005,35.893L13.669,29.546L13.149,29.246L9.312,35.893Z" style="fill-rule:nonzero;"/>
                    </g>
                    <g transform="matrix(0.499972,0.866042,0.866042,-0.499972,5.73884,59.2112)">
                        <rect x="11.813" y="27.195" width="0.6" height="6.238"/>
                    </g>
                    <g transform="matrix(1,0,0,1,25.9355,55.0694)">
                        <path d="M25.383,13.962L25.348,13.636L25.648,13.418L32.989,15.802L32.804,16.372L25.383,13.962Z" style="fill-rule:nonzero;"/>
                    </g>
                    <g transform="matrix(-0.8089,-0.587946,-0.587946,0.8089,113.256,74.7566)">
                        <path d="M41.822,22.804L42.422,22.804L42.422,15.831L41.822,15.395L41.822,22.804Z" style="fill-rule:nonzero;"/>
                    </g>
                    <g transform="matrix(-1,6.74063e-05,6.74063e-05,1,109.912,34.3071)">
                        <path d="M39.539,28.311L40.281,28.311L44.439,22.591L43.954,22.239L39.539,28.311Z" style="fill-rule:nonzero;"/>
                    </g>
                    <g transform="matrix(-0.808816,0.588062,0.588062,0.808816,83.288,17.1282)">
                        <rect x="39.386" y="21.694" width="0.6" height="5.697"/>
                    </g>
                    <g transform="matrix(1,0,0,1,25.9355,25.7208)">
                        <path d="M32.74,28.102L32.926,28.673L25.648,31.036L25.348,30.818L25.383,30.492L32.74,28.102Z" style="fill-rule:nonzero;"/>
                    </g>
                </g>
                <g transform="matrix(1,0,0,1,-18.1398,-30.7898)">
                    <g transform="matrix(8,0,0,8,57.4127,126.859)">
                        <path d="M0.085,-0.717L0.408,-0.717C0.472,-0.717 0.523,-0.699 0.563,-0.663C0.602,-0.627 0.621,-0.577 0.621,-0.512C0.621,-0.456 0.604,-0.407 0.569,-0.365C0.534,-0.324 0.48,-0.303 0.408,-0.303L0.183,-0.303L0.183,-0L0.085,-0L0.085,-0.717ZM0.523,-0.511C0.523,-0.564 0.503,-0.6 0.464,-0.619C0.443,-0.629 0.413,-0.634 0.376,-0.634L0.183,-0.634L0.183,-0.385L0.376,-0.385C0.42,-0.385 0.455,-0.395 0.482,-0.413C0.509,-0.432 0.523,-0.464 0.523,-0.511Z" style="fill-rule:nonzero;"/>
                    </g>
                    <g transform="matrix(8,0,0,8,62.7486,126.859)">
                        <path d="M0.152,-0.523L0.152,-0.176C0.152,-0.149 0.157,-0.127 0.165,-0.11C0.181,-0.079 0.21,-0.063 0.252,-0.063C0.314,-0.063 0.355,-0.091 0.377,-0.146C0.389,-0.175 0.396,-0.215 0.396,-0.266L0.396,-0.523L0.483,-0.523L0.483,-0L0.4,-0L0.401,-0.077C0.39,-0.057 0.376,-0.041 0.359,-0.027C0.325,0 0.285,0.014 0.237,0.014C0.162,0.014 0.111,-0.011 0.084,-0.061C0.07,-0.087 0.063,-0.123 0.063,-0.167L0.063,-0.523L0.152,-0.523Z" style="fill-rule:nonzero;"/>
                    </g>
                    <g transform="matrix(8,0,0,8,67.1978,126.859)">
                        <path d="M0.067,-0.523L0.15,-0.523L0.15,-0.433C0.157,-0.45 0.174,-0.472 0.201,-0.497C0.227,-0.522 0.258,-0.535 0.293,-0.535C0.295,-0.535 0.297,-0.535 0.301,-0.534C0.305,-0.534 0.312,-0.533 0.321,-0.532L0.321,-0.439C0.316,-0.44 0.311,-0.441 0.307,-0.441C0.302,-0.442 0.298,-0.442 0.292,-0.442C0.248,-0.442 0.214,-0.428 0.19,-0.399C0.167,-0.371 0.155,-0.338 0.155,-0.301L0.155,-0L0.067,-0L0.067,-0.523Z" style="fill-rule:nonzero;"/>
                    </g>
                    <g transform="matrix(8,0,0,8,69.8619,126.859)">
                        <path d="M0.064,-0.521L0.154,-0.521L0.154,-0L0.064,-0L0.064,-0.521ZM0.064,-0.717L0.154,-0.717L0.154,-0.618L0.064,-0.618L0.064,-0.717Z" style="fill-rule:nonzero;"/>
                    </g>
                    <g transform="matrix(8,0,0,8,71.6392,126.859)">
                        <path d="M0.064,-0.523L0.148,-0.523L0.148,-0.449C0.173,-0.479 0.199,-0.501 0.227,-0.515C0.254,-0.528 0.285,-0.535 0.319,-0.535C0.393,-0.535 0.443,-0.509 0.469,-0.457C0.484,-0.429 0.491,-0.388 0.491,-0.335L0.491,-0L0.401,-0L0.401,-0.33C0.401,-0.361 0.397,-0.387 0.387,-0.407C0.372,-0.439 0.343,-0.456 0.302,-0.456C0.281,-0.456 0.264,-0.453 0.251,-0.449C0.227,-0.442 0.206,-0.428 0.188,-0.406C0.173,-0.389 0.163,-0.371 0.159,-0.353C0.155,-0.334 0.152,-0.308 0.152,-0.274L0.152,-0L0.064,-0L0.064,-0.523Z" style="fill-rule:nonzero;"/>
                    </g>
                    <g transform="matrix(8,0,0,8,76.0884,126.859)">
                        <path d="M0.282,-0.535C0.319,-0.535 0.355,-0.526 0.39,-0.509C0.425,-0.491 0.451,-0.469 0.47,-0.441C0.487,-0.415 0.499,-0.384 0.505,-0.349C0.51,-0.325 0.513,-0.286 0.513,-0.233L0.129,-0.233C0.131,-0.18 0.144,-0.138 0.167,-0.106C0.19,-0.074 0.227,-0.058 0.276,-0.058C0.322,-0.058 0.358,-0.073 0.386,-0.103C0.401,-0.121 0.412,-0.141 0.419,-0.164L0.505,-0.164C0.503,-0.145 0.496,-0.123 0.483,-0.1C0.47,-0.076 0.455,-0.057 0.439,-0.042C0.413,-0.016 0.38,0.002 0.34,0.011C0.319,0.016 0.295,0.019 0.269,0.019C0.203,0.019 0.148,-0.005 0.103,-0.052C0.058,-0.1 0.035,-0.166 0.035,-0.251C0.035,-0.335 0.058,-0.404 0.104,-0.456C0.149,-0.508 0.209,-0.535 0.282,-0.535ZM0.422,-0.303C0.419,-0.341 0.41,-0.372 0.397,-0.395C0.373,-0.437 0.333,-0.458 0.277,-0.458C0.236,-0.458 0.203,-0.443 0.175,-0.414C0.148,-0.385 0.133,-0.348 0.132,-0.303L0.422,-0.303Z" style="fill-rule:nonzero;"/>
                    </g>
                </g>
                <g transform="matrix(1,0,0,1,0.172533,-27.6295)">
                    <g transform="matrix(8,0,0,8,106.609,123.695)">
                        <path d="M0.386,-0.736C0.454,-0.736 0.512,-0.723 0.561,-0.697C0.632,-0.659 0.676,-0.594 0.692,-0.5L0.596,-0.5C0.584,-0.552 0.56,-0.591 0.523,-0.615C0.486,-0.638 0.44,-0.65 0.384,-0.65C0.317,-0.65 0.261,-0.625 0.216,-0.576C0.171,-0.526 0.148,-0.452 0.148,-0.353C0.148,-0.268 0.167,-0.198 0.204,-0.145C0.242,-0.091 0.303,-0.064 0.387,-0.064C0.452,-0.064 0.506,-0.083 0.548,-0.121C0.591,-0.158 0.612,-0.219 0.613,-0.303L0.389,-0.303L0.389,-0.384L0.704,-0.384L0.704,-0L0.641,-0L0.618,-0.092C0.585,-0.056 0.556,-0.031 0.53,-0.017C0.488,0.007 0.433,0.019 0.368,0.019C0.283,0.019 0.21,-0.008 0.148,-0.063C0.082,-0.132 0.048,-0.227 0.048,-0.348C0.048,-0.468 0.081,-0.563 0.146,-0.634C0.208,-0.702 0.288,-0.736 0.386,-0.736Z" style="fill-rule:nonzero;"/>
                    </g>
                    <g transform="matrix(8,0,0,8,112.832,123.695)">
                        <path d="M0.152,-0.523L0.152,-0.176C0.152,-0.149 0.157,-0.127 0.165,-0.11C0.181,-0.079 0.21,-0.063 0.252,-0.063C0.314,-0.063 0.355,-0.091 0.377,-0.146C0.389,-0.175 0.396,-0.215 0.396,-0.266L0.396,-0.523L0.483,-0.523L0.483,-0L0.4,-0L0.401,-0.077C0.39,-0.057 0.376,-0.041 0.359,-0.027C0.325,0 0.285,0.014 0.237,0.014C0.162,0.014 0.111,-0.011 0.084,-0.061C0.07,-0.087 0.063,-0.123 0.063,-0.167L0.063,-0.523L0.152,-0.523Z" style="fill-rule:nonzero;"/>
                    </g>
                    <g transform="matrix(8,0,0,8,117.281,123.695)">
                        <path d="M0.132,-0.139C0.132,-0.114 0.141,-0.094 0.16,-0.079C0.178,-0.064 0.2,-0.057 0.226,-0.057C0.257,-0.057 0.286,-0.064 0.315,-0.079C0.364,-0.102 0.389,-0.141 0.389,-0.195L0.389,-0.266C0.378,-0.259 0.364,-0.254 0.347,-0.249C0.33,-0.244 0.314,-0.241 0.297,-0.239L0.244,-0.232C0.212,-0.228 0.188,-0.222 0.172,-0.212C0.145,-0.197 0.132,-0.173 0.132,-0.139ZM0.345,-0.317C0.365,-0.319 0.378,-0.328 0.385,-0.342C0.389,-0.35 0.391,-0.361 0.391,-0.376C0.391,-0.406 0.38,-0.428 0.359,-0.441C0.338,-0.455 0.307,-0.461 0.268,-0.461C0.222,-0.461 0.189,-0.449 0.17,-0.424C0.159,-0.411 0.152,-0.39 0.149,-0.363L0.067,-0.363C0.069,-0.428 0.089,-0.473 0.13,-0.498C0.17,-0.523 0.216,-0.536 0.27,-0.536C0.331,-0.536 0.381,-0.524 0.419,-0.5C0.458,-0.477 0.477,-0.441 0.477,-0.391L0.477,-0.09C0.477,-0.081 0.478,-0.073 0.482,-0.068C0.486,-0.062 0.494,-0.06 0.506,-0.06C0.51,-0.06 0.514,-0.06 0.519,-0.06C0.524,-0.061 0.529,-0.062 0.535,-0.063L0.535,0.002C0.521,0.006 0.511,0.009 0.503,0.01C0.496,0.011 0.486,0.011 0.474,0.011C0.444,0.011 0.422,0 0.408,-0.021C0.401,-0.032 0.396,-0.049 0.393,-0.069C0.375,-0.046 0.349,-0.026 0.316,-0.008C0.282,0.009 0.245,0.018 0.205,0.018C0.157,0.018 0.117,0.003 0.086,-0.027C0.055,-0.056 0.04,-0.093 0.04,-0.137C0.04,-0.186 0.055,-0.223 0.085,-0.25C0.116,-0.277 0.155,-0.293 0.205,-0.299L0.345,-0.317Z" style="fill-rule:nonzero;"/>
                    </g>
                    <g transform="matrix(8,0,0,8,121.73,123.695)">
                        <path d="M0.064,-0.523L0.148,-0.523L0.148,-0.449C0.173,-0.479 0.199,-0.501 0.227,-0.515C0.254,-0.528 0.285,-0.535 0.319,-0.535C0.393,-0.535 0.443,-0.509 0.469,-0.457C0.484,-0.429 0.491,-0.388 0.491,-0.335L0.491,-0L0.401,-0L0.401,-0.33C0.401,-0.361 0.397,-0.387 0.387,-0.407C0.372,-0.439 0.343,-0.456 0.302,-0.456C0.281,-0.456 0.264,-0.453 0.251,-0.449C0.227,-0.442 0.206,-0.428 0.188,-0.406C0.173,-0.389 0.163,-0.371 0.159,-0.353C0.155,-0.334 0.152,-0.308 0.152,-0.274L0.152,-0L0.064,-0L0.064,-0.523Z" style="fill-rule:nonzero;"/>
                    </g>
                    <g transform="matrix(8,0,0,8,126.179,123.695)">
                        <path d="M0.064,-0.521L0.154,-0.521L0.154,-0L0.064,-0L0.064,-0.521ZM0.064,-0.717L0.154,-0.717L0.154,-0.618L0.064,-0.618L0.064,-0.717Z" style="fill-rule:nonzero;"/>
                    </g>
                    <g transform="matrix(8,0,0,8,127.957,123.695)">
                        <path d="M0.064,-0.523L0.148,-0.523L0.148,-0.449C0.173,-0.479 0.199,-0.501 0.227,-0.515C0.254,-0.528 0.285,-0.535 0.319,-0.535C0.393,-0.535 0.443,-0.509 0.469,-0.457C0.484,-0.429 0.491,-0.388 0.491,-0.335L0.491,-0L0.401,-0L0.401,-0.33C0.401,-0.361 0.397,-0.387 0.387,-0.407C0.372,-0.439 0.343,-0.456 0.302,-0.456C0.281,-0.456 0.264,-0.453 0.251,-0.449C0.227,-0.442 0.206,-0.428 0.188,-0.406C0.173,-0.389 0.163,-0.371 0.159,-0.353C0.155,-0.334 0.152,-0.308 0.152,-0.274L0.152,-0L0.064,-0L0.064,-0.523Z" style="fill-rule:nonzero;"/>
                    </g>
                    <g transform="matrix(8,0,0,8,132.406,123.695)">
                        <path d="M0.282,-0.535C0.319,-0.535 0.355,-0.526 0.39,-0.509C0.425,-0.491 0.451,-0.469 0.47,-0.441C0.487,-0.415 0.499,-0.384 0.505,-0.349C0.51,-0.325 0.513,-0.286 0.513,-0.233L0.129,-0.233C0.131,-0.18 0.144,-0.138 0.167,-0.106C0.19,-0.074 0.227,-0.058 0.276,-0.058C0.322,-0.058 0.358,-0.073 0.386,-0.103C0.401,-0.121 0.412,-0.141 0.419,-0.164L0.505,-0.164C0.503,-0.145 0.496,-0.123 0.483,-0.1C0.47,-0.076 0.455,-0.057 0.439,-0.042C0.413,-0.016 0.38,0.002 0.34,0.011C0.319,0.016 0.295,0.019 0.269,0.019C0.203,0.019 0.148,-0.005 0.103,-0.052C0.058,-0.1 0.035,-0.166 0.035,-0.251C0.035,-0.335 0.058,-0.404 0.104,-0.456C0.149,-0.508 0.209,-0.535 0.282,-0.535ZM0.422,-0.303C0.419,-0.341 0.41,-0.372 0.397,-0.395C0.373,-0.437 0.333,-0.458 0.277,-0.458C0.236,-0.458 0.203,-0.443 0.175,-0.414C0.148,-0.385 0.133,-0.348 0.132,-0.303L0.422,-0.303Z" style="fill-rule:nonzero;"/>
                    </g>
                </g>
                <g transform="matrix(1,0,0,1,9.88222,-28.7368)">
                    <g transform="matrix(8,0,0,8,167.345,124.806)">
                        <path d="M0.444,-0.294L0.335,-0.611L0.22,-0.294L0.444,-0.294ZM0.285,-0.717L0.395,-0.717L0.655,-0L0.548,-0L0.476,-0.215L0.192,-0.215L0.114,-0L0.015,-0L0.285,-0.717Z" style="fill-rule:nonzero;"/>
                    </g>
                    <g transform="matrix(8,0,0,8,172.681,124.806)">
                        <path d="M0.12,-0.255C0.12,-0.199 0.132,-0.153 0.156,-0.115C0.18,-0.077 0.218,-0.058 0.27,-0.058C0.311,-0.058 0.344,-0.076 0.37,-0.111C0.397,-0.146 0.41,-0.196 0.41,-0.261C0.41,-0.327 0.396,-0.376 0.369,-0.408C0.342,-0.44 0.309,-0.456 0.269,-0.456C0.225,-0.456 0.189,-0.439 0.161,-0.405C0.134,-0.371 0.12,-0.321 0.12,-0.255ZM0.252,-0.532C0.292,-0.532 0.326,-0.524 0.353,-0.507C0.369,-0.497 0.386,-0.48 0.406,-0.456L0.406,-0.72L0.491,-0.72L0.491,-0L0.412,-0L0.412,-0.073C0.391,-0.041 0.367,-0.017 0.339,-0.003C0.311,0.011 0.279,0.019 0.243,0.019C0.184,0.019 0.134,-0.006 0.091,-0.055C0.049,-0.104 0.027,-0.169 0.027,-0.25C0.027,-0.327 0.047,-0.393 0.086,-0.448C0.125,-0.504 0.18,-0.532 0.252,-0.532Z" style="fill-rule:nonzero;"/>
                    </g>
                    <g transform="matrix(8,0,0,8,177.13,124.806)">
                        <path d="M0.282,-0.535C0.319,-0.535 0.355,-0.526 0.39,-0.509C0.425,-0.491 0.451,-0.469 0.47,-0.441C0.487,-0.415 0.499,-0.384 0.505,-0.349C0.51,-0.325 0.513,-0.286 0.513,-0.233L0.129,-0.233C0.131,-0.18 0.144,-0.138 0.167,-0.106C0.19,-0.074 0.227,-0.058 0.276,-0.058C0.322,-0.058 0.358,-0.073 0.386,-0.103C0.401,-0.121 0.412,-0.141 0.419,-0.164L0.505,-0.164C0.503,-0.145 0.496,-0.123 0.483,-0.1C0.47,-0.076 0.455,-0.057 0.439,-0.042C0.413,-0.016 0.38,0.002 0.34,0.011C0.319,0.016 0.295,0.019 0.269,0.019C0.203,0.019 0.148,-0.005 0.103,-0.052C0.058,-0.1 0.035,-0.166 0.035,-0.251C0.035,-0.335 0.058,-0.404 0.104,-0.456C0.149,-0.508 0.209,-0.535 0.282,-0.535ZM0.422,-0.303C0.419,-0.341 0.41,-0.372 0.397,-0.395C0.373,-0.437 0.333,-0.458 0.277,-0.458C0.236,-0.458 0.203,-0.443 0.175,-0.414C0.148,-0.385 0.133,-0.348 0.132,-0.303L0.422,-0.303Z" style="fill-rule:nonzero;"/>
                    </g>
                    <g transform="matrix(8,0,0,8,181.579,124.806)">
                        <path d="M0.064,-0.523L0.148,-0.523L0.148,-0.449C0.173,-0.479 0.199,-0.501 0.227,-0.515C0.254,-0.528 0.285,-0.535 0.319,-0.535C0.393,-0.535 0.443,-0.509 0.469,-0.457C0.484,-0.429 0.491,-0.388 0.491,-0.335L0.491,-0L0.401,-0L0.401,-0.33C0.401,-0.361 0.397,-0.387 0.387,-0.407C0.372,-0.439 0.343,-0.456 0.302,-0.456C0.281,-0.456 0.264,-0.453 0.251,-0.449C0.227,-0.442 0.206,-0.428 0.188,-0.406C0.173,-0.389 0.163,-0.371 0.159,-0.353C0.155,-0.334 0.152,-0.308 0.152,-0.274L0.152,-0L0.064,-0L0.064,-0.523Z" style="fill-rule:nonzero;"/>
                    </g>
                    <g transform="matrix(8,0,0,8,186.029,124.806)">
                        <path d="M0.064,-0.521L0.154,-0.521L0.154,-0L0.064,-0L0.064,-0.521ZM0.064,-0.717L0.154,-0.717L0.154,-0.618L0.064,-0.618L0.064,-0.717Z" style="fill-rule:nonzero;"/>
                    </g>
                    <g transform="matrix(8,0,0,8,187.806,124.806)">
                        <path d="M0.064,-0.523L0.148,-0.523L0.148,-0.449C0.173,-0.479 0.199,-0.501 0.227,-0.515C0.254,-0.528 0.285,-0.535 0.319,-0.535C0.393,-0.535 0.443,-0.509 0.469,-0.457C0.484,-0.429 0.491,-0.388 0.491,-0.335L0.491,-0L0.401,-0L0.401,-0.33C0.401,-0.361 0.397,-0.387 0.387,-0.407C0.372,-0.439 0.343,-0.456 0.302,-0.456C0.281,-0.456 0.264,-0.453 0.251,-0.449C0.227,-0.442 0.206,-0.428 0.188,-0.406C0.173,-0.389 0.163,-0.371 0.159,-0.353C0.155,-0.334 0.152,-0.308 0.152,-0.274L0.152,-0L0.064,-0L0.064,-0.523Z" style="fill-rule:nonzero;"/>
                    </g>
                    <g transform="matrix(8,0,0,8,192.255,124.806)">
                        <path d="M0.282,-0.535C0.319,-0.535 0.355,-0.526 0.39,-0.509C0.425,-0.491 0.451,-0.469 0.47,-0.441C0.487,-0.415 0.499,-0.384 0.505,-0.349C0.51,-0.325 0.513,-0.286 0.513,-0.233L0.129,-0.233C0.131,-0.18 0.144,-0.138 0.167,-0.106C0.19,-0.074 0.227,-0.058 0.276,-0.058C0.322,-0.058 0.358,-0.073 0.386,-0.103C0.401,-0.121 0.412,-0.141 0.419,-0.164L0.505,-0.164C0.503,-0.145 0.496,-0.123 0.483,-0.1C0.47,-0.076 0.455,-0.057 0.439,-0.042C0.413,-0.016 0.38,0.002 0.34,0.011C0.319,0.016 0.295,0.019 0.269,0.019C0.203,0.019 0.148,-0.005 0.103,-0.052C0.058,-0.1 0.035,-0.166 0.035,-0.251C0.035,-0.335 0.058,-0.404 0.104,-0.456C0.149,-0.508 0.209,-0.535 0.282,-0.535ZM0.422,-0.303C0.419,-0.341 0.41,-0.372 0.397,-0.395C0.373,-0.437 0.333,-0.458 0.277,-0.458C0.236,-0.458 0.203,-0.443 0.175,-0.414C0.148,-0.385 0.133,-0.348 0.132,-0.303L0.422,-0.303Z" style="fill-rule:nonzero;"/>
                    </g>
                </g>
            </g>
        </g>
    </g>
</svg>
