<?xml version="1.0" encoding="UTF-8" standalone="no"?>
<!DOCTYPE svg PUBLIC "-//W3C//DTD SVG 1.1//EN" "http://www.w3.org/Graphics/SVG/1.1/DTD/svg11.dtd">
<svg width="376px" height="170px" viewBox="0 0 376 170" version="1.1" xmlns="http://www.w3.org/2000/svg" xmlns:xlink="http://www.w3.org/1999/xlink" xml:space="preserve" xmlns:serif="http://www.serif.com/" style="fill-rule:evenodd;clip-rule:evenodd;stroke-linejoin:round;stroke-miterlimit:2;">
    <g id="Artboard1" transform="matrix(1.60605,0,0,0.724944,0,0)">
        <rect x="0" y="0" width="234" height="234" style="fill:white;"/>
        <g transform="matrix(0.933967,0,0,2.06913,-2.47905,-5.03489)">
            <g transform="matrix(-0.866034,0.499984,0.499984,0.866034,-2.44065,-82.3461)">
                <path d="M28.873,106.735L29.566,106.735L22.193,93.965L21.847,94.565L28.873,106.735Z" style="fill-rule:nonzero;"/>
            </g>
            <g transform="matrix(1,0,0,1,0,-83)">
                <rect x="27.912" y="94.796" width="0.6" height="11.407"/>
            </g>
            <g transform="matrix(0,1,1,0,-57.9084,-3.3184)">
                <path d="M34.872,95.998L35.565,95.998L28.192,83.228L27.845,83.828L34.872,95.998Z" style="fill-rule:nonzero;"/>
            </g>
            <g transform="matrix(0.866034,0.499984,0.499984,-0.866034,-38.8472,83.7581)">
                <path d="M47.555,95.849L48.248,95.849L40.875,83.078L40.529,83.678L47.555,95.849Z" style="fill-rule:nonzero;"/>
            </g>
            <g transform="matrix(0.500024,0.866012,0.866012,-0.500024,-58.1116,34.7662)">
                <rect x="42.729" y="86.241" width="0.6" height="11.406"/>
            </g>
            <g transform="matrix(0.866028,-0.499995,-0.499995,-0.866028,57.0231,129.816)">
                <path d="M53.814,106.735L54.506,106.735L47.133,93.965L46.787,94.565L53.814,106.735Z" style="fill-rule:nonzero;"/>
            </g>
            <g transform="matrix(0,-1,-1,0,155.862,51.0884)">
                <path d="M47.642,117.772L48.335,117.772L40.962,105.002L40.615,105.602L47.642,117.772Z" style="fill-rule:nonzero;"/>
            </g>
            <g transform="matrix(0.500024,-0.866012,-0.866012,-0.500024,115.957,100.739)">
                <rect x="42.729" y="103.352" width="0.6" height="11.406"/>
            </g>
            <g transform="matrix(-0.866028,-0.499995,-0.499995,0.866028,114.855,-73.9982)">
                <path d="M34.785,117.622L35.478,117.622L28.105,104.851L27.759,105.451L34.785,117.622Z" style="fill-rule:nonzero;"/>
            </g>
            <g transform="matrix(-0.866034,0.499984,0.499984,0.866034,103.401,-110.705)">
                <path d="M85.593,106.735L86.286,106.735L78.913,93.965L78.567,94.565L85.593,106.735Z" style="fill-rule:nonzero;"/>
            </g>
            <g transform="matrix(1,0,0,1,0,-83)">
                <rect x="84.632" y="94.796" width="0.6" height="11.407"/>
            </g>
            <g transform="matrix(0,1,1,0,-1.1884,-60.0384)">
                <path d="M91.592,95.998L92.285,95.998L84.912,83.228L84.565,83.828L91.592,95.998Z" style="fill-rule:nonzero;"/>
            </g>
            <g transform="matrix(1,0,0,1,0,-61.2268)">
                <path d="M106.98,85.754L107.28,85.927L107.28,86.273L94.81,93.473L94.81,92.78L106.98,85.754Z" style="fill-rule:nonzero;"/>
            </g>
            <g transform="matrix(0.500011,0.866019,0.866019,-0.500011,-29.7524,-14.3559)">
                <rect x="99.449" y="86.241" width="0.6" height="11.406"/>
            </g>
            <g transform="matrix(1,0,0,1,0,-83)">
                <path d="M106.98,93.473L107.28,93.3L107.58,93.473L107.58,107.527L107.28,107.7L106.98,107.527L106.98,93.473Z" style="fill-rule:nonzero;"/>
            </g>
            <g transform="matrix(1,0,0,1,0,-104.773)">
                <path d="M94.81,108.22L94.81,107.527L107.28,114.727L107.28,115.073L106.98,115.246L94.81,108.22Z" style="fill-rule:nonzero;"/>
            </g>
            <g transform="matrix(0.500024,-0.866012,-0.866012,-0.500024,144.315,149.859)">
                <rect x="99.449" y="103.352" width="0.6" height="11.406"/>
            </g>
            <g transform="matrix(-0.866028,-0.499995,-0.499995,0.866028,220.696,-45.6385)">
                <path d="M91.505,117.622L92.198,117.622L84.825,104.851L84.479,105.451L91.505,117.622Z" style="fill-rule:nonzero;"/>
            </g>
            <g transform="matrix(1,0,0,1,0,-61.2268)">
                <path d="M119.75,92.78L119.75,93.473L107.28,86.273L107.28,85.927L107.58,85.754L119.75,92.78Z" style="fill-rule:nonzero;"/>
            </g>
            <g transform="matrix(0.866038,0.499978,0.499978,-0.866038,-27.9074,42.9305)">
                <path d="M129.215,95.849L129.908,95.849L122.535,83.078L122.189,83.678L129.215,95.849Z" style="fill-rule:nonzero;"/>
            </g>
            <g transform="matrix(0.500011,0.866019,0.866019,-0.500011,-17.2827,-35.9544)">
                <rect x="124.389" y="86.241" width="0.6" height="11.406"/>
            </g>
            <g transform="matrix(0.866032,-0.499989,-0.499989,-0.866032,67.9622,170.645)">
                <path d="M135.474,106.735L136.166,106.735L128.793,93.965L128.447,94.565L135.474,106.735Z" style="fill-rule:nonzero;"/>
            </g>
            <g transform="matrix(0,-1,-1,0,237.522,132.748)">
                <path d="M129.302,117.772L129.995,117.772L122.622,105.002L122.275,105.602L129.302,117.772Z" style="fill-rule:nonzero;"/>
            </g>
            <g transform="matrix(0.500011,-0.866019,-0.866019,-0.500011,156.787,171.457)">
                <rect x="124.389" y="103.352" width="0.6" height="11.406"/>
            </g>
            <g transform="matrix(1,0,0,1,0,-104.773)">
                <path d="M107.58,115.246L107.28,115.073L107.28,114.727L119.75,107.527L119.75,108.22L107.58,115.246Z" style="fill-rule:nonzero;"/>
            </g>
            <g transform="matrix(-0.866038,0.499978,0.499978,0.866038,251.547,-150.398)">
                <path d="M164.983,106.735L165.676,106.735L158.303,93.965L157.957,94.565L164.983,106.735Z" style="fill-rule:nonzero;"/>
            </g>
            <g transform="matrix(1,0,0,1,0,-83)">
                <rect x="164.022" y="94.796" width="0.6" height="11.407"/>
            </g>
            <g transform="matrix(0,1,1,0,78.2016,-139.428)">
                <path d="M170.982,95.998L171.675,95.998L164.302,83.228L163.955,83.828L170.982,95.998Z" style="fill-rule:nonzero;"/>
            </g>
            <g transform="matrix(1,0,0,1,0,-61.2268)">
                <path d="M186.37,85.754L186.67,85.927L186.67,86.273L174.2,93.473L174.2,92.78L186.37,85.754Z" style="fill-rule:nonzero;"/>
            </g>
            <g transform="matrix(0.500011,0.866019,0.866019,-0.500011,9.94174,-83.1091)">
                <rect x="178.839" y="86.241" width="0.6" height="11.406"/>
            </g>
            <g transform="matrix(1,0,0,1,0,-83)">
                <path d="M186.37,93.473L186.67,93.3L186.97,93.473L186.97,107.527L186.67,107.7L186.37,107.527L186.37,93.473Z" style="fill-rule:nonzero;"/>
            </g>
            <g transform="matrix(1,0,0,1,0,-104.773)">
                <path d="M174.2,108.22L174.2,107.527L186.67,114.727L186.67,115.073L186.37,115.246L174.2,108.22Z" style="fill-rule:nonzero;"/>
            </g>
            <g transform="matrix(0.500011,-0.866019,-0.866019,-0.500011,184.012,218.611)">
                <rect x="178.839" y="103.352" width="0.6" height="11.406"/>
            </g>
            <g transform="matrix(-0.866032,-0.499989,-0.499989,0.866032,368.84,-5.94528)">
                <path d="M170.895,117.622L171.588,117.622L164.215,104.851L163.869,105.451L170.895,117.622Z" style="fill-rule:nonzero;"/>
            </g>
            <g transform="matrix(1,0,0,1,0,-61.2268)">
                <path d="M199.14,92.78L199.14,93.473L186.67,86.273L186.67,85.927L186.97,85.754L199.14,92.78Z" style="fill-rule:nonzero;"/>
            </g>
            <g transform="matrix(1,0,0,1,0,-61.2268)">
                <path d="M211.31,85.754L211.61,85.927L211.61,86.273L199.14,93.473L199.14,92.78L211.31,85.754Z" style="fill-rule:nonzero;"/>
            </g>
            <g transform="matrix(0.500011,0.866019,0.866019,-0.500011,22.4115,-104.708)">
                <rect x="203.779" y="86.241" width="0.6" height="11.406"/>
            </g>
            <g transform="matrix(1,0,0,1,0,-83)">
                <path d="M211.31,93.473L211.61,93.3L211.91,93.473L211.91,107.527L211.61,107.7L211.31,107.527L211.31,93.473Z" style="fill-rule:nonzero;"/>
            </g>
            <g transform="matrix(1,0,0,1,0,-104.773)">
                <path d="M199.14,108.22L199.14,107.527L211.61,114.727L211.61,115.073L211.31,115.246L199.14,108.22Z" style="fill-rule:nonzero;"/>
            </g>
            <g transform="matrix(0.500011,-0.866019,-0.866019,-0.500011,196.481,240.21)">
                <rect x="203.779" y="103.352" width="0.6" height="11.406"/>
            </g>
            <g transform="matrix(1,0,0,1,0,-104.773)">
                <path d="M186.97,115.246L186.67,115.073L186.67,114.727L199.14,107.527L199.14,108.22L186.97,115.246Z" style="fill-rule:nonzero;"/>
            </g>
            <g transform="matrix(1,0,0,1,0,-61.2268)">
                <path d="M224.08,92.78L224.08,93.473L211.61,86.273L211.61,85.927L211.91,85.754L224.08,92.78Z" style="fill-rule:nonzero;"/>
            </g>
            <g transform="matrix(0.866125,0.499827,0.499827,-0.866125,-13.9384,-9.18695)">
                <path d="M233.537,95.845L234.23,95.845L226.863,83.081L226.517,83.681L233.537,95.845Z" style="fill-rule:nonzero;"/>
            </g>
            <g transform="matrix(0.500333,0.865833,0.865833,-0.500333,34.8236,-126.229)">
                <rect x="228.715" y="86.243" width="0.6" height="11.4"/>
            </g>
            <g transform="matrix(0.866157,-0.499772,-0.499772,-0.866157,81.8864,222.765)">
                <path d="M239.792,106.736L240.485,106.736L233.115,93.964L232.768,94.564L239.792,106.736Z" style="fill-rule:nonzero;"/>
            </g>
            <g transform="matrix(0.000144321,-1,-1,-0.000144321,341.813,237.089)">
                <path d="M233.626,117.767L234.319,117.767L226.947,105.006L226.601,105.606L233.626,117.767Z" style="fill-rule:nonzero;"/>
            </g>
            <g transform="matrix(0.500333,-0.865833,-0.865833,-0.500333,208.856,261.796)">
                <rect x="228.715" y="103.357" width="0.6" height="11.4"/>
            </g>
            <g transform="matrix(1,0,0,1,0,-104.773)">
                <path d="M211.91,115.247L211.61,115.073L211.61,114.727L224.08,107.527L224.08,108.22L211.91,115.247Z" style="fill-rule:nonzero;"/>
            </g>
            <g transform="matrix(-0.866034,0.499984,0.499984,0.866034,-9.77821,57.6199)">
                <path d="M6.453,37.735L7.146,37.735L-0.227,24.965L-0.573,25.565L6.453,37.735Z" style="fill-rule:nonzero;"/>
            </g>
            <g transform="matrix(1,0,0,1,0,55)">
                <rect x="5.492" y="25.796" width="0.6" height="11.407"/>
            </g>
            <g transform="matrix(0,1,1,0,-11.3284,88.1016)">
                <path d="M12.452,26.998L13.145,26.998L5.772,14.228L5.425,14.828L12.452,26.998Z" style="fill-rule:nonzero;"/>
            </g>
            <g transform="matrix(1,0,0,1,0,76.7732)">
                <path d="M27.84,16.754L28.14,16.927L28.14,17.273L15.67,24.473L15.67,23.78L27.84,16.754Z" style="fill-rule:nonzero;"/>
            </g>
            <g transform="matrix(0.500024,0.866012,0.866012,-0.500024,-9.56629,88.6805)">
                <rect x="20.309" y="17.241" width="0.6" height="11.406"/>
            </g>
            <g transform="matrix(1,0,0,1,0,55)">
                <path d="M27.84,24.473L28.14,24.3L28.44,24.473L28.44,38.527L28.14,38.7L27.84,38.527L27.84,24.473Z" style="fill-rule:nonzero;"/>
            </g>
            <g transform="matrix(1,0,0,1,0,33.2268)">
                <path d="M15.67,39.22L15.67,38.527L28.14,45.727L28.14,46.073L27.84,46.246L15.67,39.22Z" style="fill-rule:nonzero;"/>
            </g>
            <g transform="matrix(0.500024,-0.866012,-0.866012,-0.500024,44.9925,115.821)">
                <rect x="20.309" y="34.352" width="0.6" height="11.406"/>
            </g>
            <g transform="matrix(-0.866034,-0.499984,-0.499984,0.866034,38.5188,43.5475)">
                <path d="M12.365,48.622L13.058,48.622L5.685,35.852L5.339,36.452L12.365,48.622Z" style="fill-rule:nonzero;"/>
            </g>
            <g transform="matrix(1,0,0,1,0,76.7732)">
                <path d="M40.61,23.78L40.61,24.473L28.14,17.273L28.14,16.927L28.44,16.754L40.61,23.78Z" style="fill-rule:nonzero;"/>
            </g>
            <g transform="matrix(1,0,0,1,0,76.7733)">
                <path d="M52.77,16.754L53.07,16.927L53.07,17.273L40.61,24.473L40.61,23.78L52.77,16.754Z" style="fill-rule:nonzero;"/>
            </g>
            <g transform="matrix(0.500321,0.86584,0.86584,-0.500321,2.89259,67.1015)">
                <rect x="45.245" y="17.243" width="0.6" height="11.4"/>
            </g>
            <g transform="matrix(1,0,0,1,0,55)">
                <path d="M52.77,24.473L53.07,24.3L53.37,24.473L53.37,38.527L53.07,38.7L52.77,38.527L52.77,24.473Z" style="fill-rule:nonzero;"/>
            </g>
            <g transform="matrix(1,0,0,1,0,33.2267)">
                <path d="M40.61,39.22L40.61,38.527L53.07,45.727L53.07,46.073L52.77,46.246L40.61,39.22Z" style="fill-rule:nonzero;"/>
            </g>
            <g transform="matrix(0.500328,-0.865836,-0.865836,-0.500328,57.44,137.419)">
                <rect x="45.245" y="34.357" width="0.6" height="11.4"/>
            </g>
            <g transform="matrix(1,0,0,1,0,33.2267)">
                <path d="M28.44,46.246L28.14,46.073L28.14,45.727L40.61,38.527L40.61,39.22L28.44,46.246Z" style="fill-rule:nonzero;"/>
            </g>
            <g transform="matrix(1,0,0,1,0,76.7732)">
                <path d="M65.54,23.78L65.54,24.473L53.07,17.273L53.07,16.927L53.37,16.754L65.54,23.78Z" style="fill-rule:nonzero;"/>
            </g>
            <g transform="matrix(1,0,0,1,0,76.7732)">
                <path d="M77.71,16.754L78.01,16.927L78.01,17.273L65.54,24.473L65.54,23.78L77.71,16.754Z" style="fill-rule:nonzero;"/>
            </g>
            <g transform="matrix(0.500024,0.866012,0.866012,-0.500024,15.3675,45.4925)">
                <rect x="70.179" y="17.241" width="0.6" height="11.406"/>
            </g>
            <g transform="matrix(1,0,0,1,0,55)">
                <path d="M77.71,24.473L78.01,24.3L78.31,24.473L78.31,38.527L78.01,38.7L77.71,38.527L77.71,24.473Z" style="fill-rule:nonzero;"/>
            </g>
            <g transform="matrix(1,0,0,1,0,33.2268)">
                <path d="M65.54,39.22L65.54,38.527L78.01,45.727L78.01,46.073L77.71,46.246L65.54,39.22Z" style="fill-rule:nonzero;"/>
            </g>
            <g transform="matrix(0.500024,-0.866012,-0.866012,-0.500024,69.9263,159.009)">
                <rect x="70.179" y="34.352" width="0.6" height="11.406"/>
            </g>
            <g transform="matrix(1,0,0,1,0,33.2268)">
                <path d="M53.37,46.246L53.07,46.073L53.07,45.727L65.54,38.527L65.54,39.22L53.37,46.246Z" style="fill-rule:nonzero;"/>
            </g>
            <g transform="matrix(1,0,0,1,0,76.7732)">
                <path d="M90.48,23.78L90.48,24.473L78.01,17.273L78.01,16.927L78.31,16.754L90.48,23.78Z" style="fill-rule:nonzero;"/>
            </g>
            <g transform="matrix(0.866038,0.499978,0.499978,-0.866038,2.66998,66.8082)">
                <path d="M99.945,26.849L100.638,26.849L93.265,14.078L92.919,14.678L99.945,26.849Z" style="fill-rule:nonzero;"/>
            </g>
            <g transform="matrix(0.500011,0.866019,0.866019,-0.500011,27.838,23.8932)">
                <rect x="95.119" y="17.241" width="0.6" height="11.406"/>
            </g>
            <g transform="matrix(0.866038,-0.499978,-0.499978,-0.866038,29.5407,165.253)">
                <path d="M106.203,37.735L106.896,37.735L99.523,24.965L99.177,25.565L106.203,37.735Z" style="fill-rule:nonzero;"/>
            </g>
            <g transform="matrix(0,-1,-1,0,139.252,172.478)">
                <path d="M100.032,48.772L100.725,48.772L93.352,36.002L93.005,36.602L100.032,48.772Z" style="fill-rule:nonzero;"/>
            </g>
            <g transform="matrix(0.500024,-0.866012,-0.866012,-0.500024,82.3957,180.607)">
                <rect x="95.119" y="34.352" width="0.6" height="11.406"/>
            </g>
            <g transform="matrix(1,0,0,1,0,33.2268)">
                <path d="M78.31,46.246L78.01,46.073L78.01,45.727L90.48,38.527L90.48,39.22L78.31,46.246Z" style="fill-rule:nonzero;"/>
            </g>
            <g transform="matrix(-0.866038,0.499978,0.499978,0.866038,222.898,-4.72242)">
                <path d="M131.143,37.735L131.836,37.735L124.463,24.965L124.117,25.565L131.143,37.735Z" style="fill-rule:nonzero;"/>
            </g>
            <g transform="matrix(1,0,0,1,0,55)">
                <rect x="130.182" y="25.796" width="0.6" height="11.407"/>
            </g>
            <g transform="matrix(0,1,1,0,113.362,-36.5884)">
                <path d="M137.142,26.998L137.835,26.998L130.462,14.228L130.115,14.828L137.142,26.998Z" style="fill-rule:nonzero;"/>
            </g>
            <g transform="matrix(1,0,0,1,0,76.7732)">
                <path d="M152.53,16.754L152.83,16.927L152.83,17.273L140.36,24.473L140.36,23.78L152.53,16.754Z" style="fill-rule:nonzero;"/>
            </g>
            <g transform="matrix(0.500011,0.866019,0.866019,-0.500011,52.7774,-19.3038)">
                <rect x="144.999" y="17.241" width="0.6" height="11.406"/>
            </g>
            <g transform="matrix(1,0,0,1,0,55)">
                <path d="M152.53,24.473L152.83,24.3L153.13,24.473L153.13,38.527L152.83,38.7L152.53,38.527L152.53,24.473Z" style="fill-rule:nonzero;"/>
            </g>
            <g transform="matrix(1,0,0,1,0,33.2268)">
                <path d="M140.36,39.22L140.36,38.527L152.83,45.727L152.83,46.073L152.53,46.246L140.36,39.22Z" style="fill-rule:nonzero;"/>
            </g>
            <g transform="matrix(0.500011,-0.866019,-0.866019,-0.500011,107.337,223.804)">
                <rect x="144.999" y="34.352" width="0.6" height="11.406"/>
            </g>
            <g transform="matrix(-0.866038,-0.499978,-0.499978,0.866038,271.195,105.89)">
                <path d="M137.055,48.622L137.748,48.622L130.375,35.852L130.029,36.452L137.055,48.622Z" style="fill-rule:nonzero;"/>
            </g>
            <g transform="matrix(1,0,0,1,0,76.7732)">
                <path d="M165.3,23.78L165.3,24.473L152.83,17.273L152.83,16.927L153.13,16.754L165.3,23.78Z" style="fill-rule:nonzero;"/>
            </g>
            <g transform="matrix(1,0,0,1,0,76.7732)">
                <path d="M177.47,16.754L177.77,16.927L177.77,17.273L165.3,24.473L165.3,23.78L177.47,16.754Z" style="fill-rule:nonzero;"/>
            </g>
            <g transform="matrix(0.500011,0.866019,0.866019,-0.500011,65.2472,-40.9023)">
                <rect x="169.939" y="17.241" width="0.6" height="11.406"/>
            </g>
            <g transform="matrix(1,0,0,1,0,55)">
                <path d="M177.47,24.473L177.77,24.3L178.07,24.473L178.07,38.527L177.77,38.7L177.47,38.527L177.47,24.473Z" style="fill-rule:nonzero;"/>
            </g>
            <g transform="matrix(1,0,0,1,0,33.2268)">
                <path d="M165.3,39.22L165.3,38.527L177.77,45.727L177.77,46.073L177.47,46.246L165.3,39.22Z" style="fill-rule:nonzero;"/>
            </g>
            <g transform="matrix(0.500011,-0.866019,-0.866019,-0.500011,119.806,245.403)">
                <rect x="169.939" y="34.352" width="0.6" height="11.406"/>
            </g>
            <g transform="matrix(1,0,0,1,0,33.2268)">
                <path d="M153.13,46.246L152.83,46.073L152.83,45.727L165.3,38.527L165.3,39.22L153.13,46.246Z" style="fill-rule:nonzero;"/>
            </g>
            <g transform="matrix(1,0,0,1,0,76.7732)">
                <path d="M190.24,23.78L190.24,24.473L177.77,17.273L177.77,16.927L178.07,16.754L190.24,23.78Z" style="fill-rule:nonzero;"/>
            </g>
            <g transform="matrix(1,0,0,1,0,76.7732)">
                <path d="M202.41,16.754L202.71,16.927L202.71,17.273L190.24,24.473L190.24,23.78L202.41,16.754Z" style="fill-rule:nonzero;"/>
            </g>
            <g transform="matrix(0.500011,0.866019,0.866019,-0.500011,77.7169,-62.5008)">
                <rect x="194.879" y="17.241" width="0.6" height="11.406"/>
            </g>
            <g transform="matrix(1,0,0,1,0,55)">
                <path d="M202.41,24.473L202.71,24.3L203.01,24.473L203.01,38.527L202.71,38.7L202.41,38.527L202.41,24.473Z" style="fill-rule:nonzero;"/>
            </g>
            <g transform="matrix(1,0,0,1,0,33.2268)">
                <path d="M190.24,39.22L190.24,38.527L202.71,45.727L202.71,46.073L202.41,46.246L190.24,39.22Z" style="fill-rule:nonzero;"/>
            </g>
            <g transform="matrix(0.500011,-0.866019,-0.866019,-0.500011,132.276,267.002)">
                <rect x="194.879" y="34.352" width="0.6" height="11.406"/>
            </g>
            <g transform="matrix(1,0,0,1,0,33.2268)">
                <path d="M178.07,46.246L177.77,46.073L177.77,45.727L190.24,38.527L190.24,39.22L178.07,46.246Z" style="fill-rule:nonzero;"/>
            </g>
            <g transform="matrix(1,0,0,1,0,76.7733)">
                <path d="M215.17,23.78L215.17,24.473L202.71,17.273L202.71,16.927L203.01,16.754L215.17,23.78Z" style="fill-rule:nonzero;"/>
            </g>
            <g transform="matrix(1,0,0,1,0,76.7732)">
                <path d="M227.34,16.754L227.64,16.927L227.64,17.273L215.17,24.473L215.17,23.78L227.34,16.754Z" style="fill-rule:nonzero;"/>
            </g>
            <g transform="matrix(0.500011,0.866019,0.866019,-0.500011,90.1816,-84.091)">
                <rect x="219.809" y="17.242" width="0.6" height="11.406"/>
            </g>
            <g transform="matrix(1,0,0,1,0,55)">
                <path d="M227.34,24.473L227.64,24.3L227.94,24.473L227.94,38.527L227.64,38.7L227.34,38.527L227.34,24.473Z" style="fill-rule:nonzero;"/>
            </g>
            <g transform="matrix(1,0,0,1,0,33.2267)">
                <path d="M215.17,39.22L215.17,38.527L227.64,45.727L227.64,46.073L227.34,46.246L215.17,39.22Z" style="fill-rule:nonzero;"/>
            </g>
            <g transform="matrix(0.500011,-0.866019,-0.866019,-0.500011,144.741,288.592)">
                <rect x="219.809" y="34.352" width="0.6" height="11.406"/>
            </g>
            <g transform="matrix(1,0,0,1,0,33.2267)">
                <path d="M203.01,46.246L202.71,46.073L202.71,45.727L215.17,38.527L215.17,39.22L203.01,46.246Z" style="fill-rule:nonzero;"/>
            </g>
            <g transform="matrix(1,0,0,1,0,76.7732)">
                <path d="M240.11,23.78L240.11,24.473L227.64,17.273L227.64,16.927L227.94,16.754L240.11,23.78Z" style="fill-rule:nonzero;"/>
            </g>
            <g transform="matrix(0.866038,0.499978,0.499978,-0.866038,22.7147,-8.00353)">
                <path d="M249.575,26.849L250.268,26.849L242.895,14.078L242.549,14.678L249.575,26.849Z" style="fill-rule:nonzero;"/>
            </g>
            <g transform="matrix(0.500011,0.866019,0.866019,-0.500011,102.651,-105.689)">
                <rect x="244.749" y="17.241" width="0.6" height="11.406"/>
            </g>
            <g transform="matrix(0.866038,-0.499978,-0.499978,-0.866038,49.5854,240.065)">
                <path d="M255.833,37.735L256.526,37.735L249.153,24.965L248.807,25.565L255.833,37.735Z" style="fill-rule:nonzero;"/>
            </g>
            <g transform="matrix(0,-1,-1,0,288.882,322.108)">
                <path d="M249.662,48.772L250.355,48.772L242.982,36.002L242.635,36.602L249.662,48.772Z" style="fill-rule:nonzero;"/>
            </g>
            <g transform="matrix(0.500011,-0.866019,-0.866019,-0.500011,157.211,310.19)">
                <rect x="244.749" y="34.352" width="0.6" height="11.406"/>
            </g>
            <g transform="matrix(1,0,0,1,0,33.2268)">
                <path d="M227.94,46.246L227.64,46.073L227.64,45.727L240.11,38.527L240.11,39.22L227.94,46.246Z" style="fill-rule:nonzero;"/>
            </g>
            <g transform="matrix(10,0,0,10,18.2,45.965)">
                <path d="M0.346,-0.414C0.387,-0.414 0.419,-0.42 0.441,-0.431C0.477,-0.449 0.495,-0.481 0.495,-0.528C0.495,-0.575 0.476,-0.606 0.438,-0.623C0.417,-0.632 0.385,-0.636 0.342,-0.636L0.169,-0.636L0.169,-0.414L0.346,-0.414ZM0.378,-0.083C0.438,-0.083 0.48,-0.1 0.506,-0.135C0.522,-0.157 0.53,-0.183 0.53,-0.214C0.53,-0.266 0.507,-0.301 0.46,-0.32C0.435,-0.33 0.403,-0.335 0.362,-0.335L0.169,-0.335L0.169,-0.083L0.378,-0.083ZM0.074,-0.717L0.382,-0.717C0.466,-0.717 0.526,-0.692 0.561,-0.642C0.582,-0.612 0.592,-0.578 0.592,-0.54C0.592,-0.494 0.579,-0.457 0.554,-0.428C0.54,-0.413 0.521,-0.399 0.496,-0.386C0.533,-0.372 0.56,-0.356 0.579,-0.339C0.611,-0.308 0.627,-0.264 0.627,-0.209C0.627,-0.163 0.612,-0.121 0.583,-0.084C0.54,-0.028 0.471,-0 0.377,-0L0.074,-0L0.074,-0.717Z" style="fill-rule:nonzero;"/>
            </g>
            <g transform="matrix(10,0,0,10,24.8703,45.965)">
                <path d="M0.282,-0.535C0.319,-0.535 0.355,-0.526 0.39,-0.509C0.425,-0.491 0.451,-0.469 0.47,-0.441C0.487,-0.415 0.499,-0.384 0.505,-0.349C0.51,-0.325 0.513,-0.286 0.513,-0.233L0.129,-0.233C0.131,-0.18 0.144,-0.138 0.167,-0.106C0.19,-0.074 0.227,-0.058 0.276,-0.058C0.322,-0.058 0.358,-0.073 0.386,-0.103C0.401,-0.121 0.412,-0.141 0.419,-0.164L0.505,-0.164C0.503,-0.145 0.496,-0.123 0.483,-0.1C0.47,-0.076 0.455,-0.057 0.439,-0.042C0.413,-0.016 0.38,0.002 0.34,0.011C0.319,0.016 0.295,0.019 0.269,0.019C0.203,0.019 0.148,-0.005 0.103,-0.052C0.058,-0.1 0.035,-0.166 0.035,-0.251C0.035,-0.335 0.058,-0.404 0.104,-0.456C0.149,-0.508 0.209,-0.535 0.282,-0.535ZM0.422,-0.303C0.419,-0.341 0.41,-0.372 0.397,-0.395C0.373,-0.437 0.333,-0.458 0.277,-0.458C0.236,-0.458 0.203,-0.443 0.175,-0.414C0.148,-0.385 0.133,-0.348 0.132,-0.303L0.422,-0.303Z" style="fill-rule:nonzero;"/>
            </g>
            <g transform="matrix(10,0,0,10,30.4321,45.965)">
                <path d="M0.064,-0.523L0.148,-0.523L0.148,-0.449C0.173,-0.479 0.199,-0.501 0.227,-0.515C0.254,-0.528 0.285,-0.535 0.319,-0.535C0.393,-0.535 0.443,-0.509 0.469,-0.457C0.484,-0.429 0.491,-0.388 0.491,-0.335L0.491,-0L0.401,-0L0.401,-0.33C0.401,-0.361 0.397,-0.387 0.387,-0.407C0.372,-0.439 0.343,-0.456 0.302,-0.456C0.281,-0.456 0.264,-0.453 0.251,-0.449C0.227,-0.442 0.206,-0.428 0.188,-0.406C0.173,-0.389 0.163,-0.371 0.159,-0.353C0.155,-0.334 0.152,-0.308 0.152,-0.274L0.152,-0L0.064,-0L0.064,-0.523Z" style="fill-rule:nonzero;"/>
            </g>
            <g transform="matrix(10,0,0,10,35.994,45.965)">
                <path d="M0.025,-0.069L0.335,-0.444L0.048,-0.444L0.048,-0.523L0.454,-0.523L0.454,-0.451L0.146,-0.079L0.463,-0.079L0.463,-0L0.025,-0L0.025,-0.069Z" style="fill-rule:nonzero;"/>
            </g>
            <g transform="matrix(10,0,0,10,40.9943,45.965)">
                <path d="M0.282,-0.535C0.319,-0.535 0.355,-0.526 0.39,-0.509C0.425,-0.491 0.451,-0.469 0.47,-0.441C0.487,-0.415 0.499,-0.384 0.505,-0.349C0.51,-0.325 0.513,-0.286 0.513,-0.233L0.129,-0.233C0.131,-0.18 0.144,-0.138 0.167,-0.106C0.19,-0.074 0.227,-0.058 0.276,-0.058C0.322,-0.058 0.358,-0.073 0.386,-0.103C0.401,-0.121 0.412,-0.141 0.419,-0.164L0.505,-0.164C0.503,-0.145 0.496,-0.123 0.483,-0.1C0.47,-0.076 0.455,-0.057 0.439,-0.042C0.413,-0.016 0.38,0.002 0.34,0.011C0.319,0.016 0.295,0.019 0.269,0.019C0.203,0.019 0.148,-0.005 0.103,-0.052C0.058,-0.1 0.035,-0.166 0.035,-0.251C0.035,-0.335 0.058,-0.404 0.104,-0.456C0.149,-0.508 0.209,-0.535 0.282,-0.535ZM0.422,-0.303C0.419,-0.341 0.41,-0.372 0.397,-0.395C0.373,-0.437 0.333,-0.458 0.277,-0.458C0.236,-0.458 0.203,-0.443 0.175,-0.414C0.148,-0.385 0.133,-0.348 0.132,-0.303L0.422,-0.303Z" style="fill-rule:nonzero;"/>
            </g>
            <g transform="matrix(10,0,0,10,46.5561,45.965)">
                <path d="M0.064,-0.523L0.148,-0.523L0.148,-0.449C0.173,-0.479 0.199,-0.501 0.227,-0.515C0.254,-0.528 0.285,-0.535 0.319,-0.535C0.393,-0.535 0.443,-0.509 0.469,-0.457C0.484,-0.429 0.491,-0.388 0.491,-0.335L0.491,-0L0.401,-0L0.401,-0.33C0.401,-0.361 0.397,-0.387 0.387,-0.407C0.372,-0.439 0.343,-0.456 0.302,-0.456C0.281,-0.456 0.264,-0.453 0.251,-0.449C0.227,-0.442 0.206,-0.428 0.188,-0.406C0.173,-0.389 0.163,-0.371 0.159,-0.353C0.155,-0.334 0.152,-0.308 0.152,-0.274L0.152,-0L0.064,-0L0.064,-0.523Z" style="fill-rule:nonzero;"/>
            </g>
            <g transform="matrix(10,0,0,10,52.118,45.965)">
                <path d="M0.282,-0.535C0.319,-0.535 0.355,-0.526 0.39,-0.509C0.425,-0.491 0.451,-0.469 0.47,-0.441C0.487,-0.415 0.499,-0.384 0.505,-0.349C0.51,-0.325 0.513,-0.286 0.513,-0.233L0.129,-0.233C0.131,-0.18 0.144,-0.138 0.167,-0.106C0.19,-0.074 0.227,-0.058 0.276,-0.058C0.322,-0.058 0.358,-0.073 0.386,-0.103C0.401,-0.121 0.412,-0.141 0.419,-0.164L0.505,-0.164C0.503,-0.145 0.496,-0.123 0.483,-0.1C0.47,-0.076 0.455,-0.057 0.439,-0.042C0.413,-0.016 0.38,0.002 0.34,0.011C0.319,0.016 0.295,0.019 0.269,0.019C0.203,0.019 0.148,-0.005 0.103,-0.052C0.058,-0.1 0.035,-0.166 0.035,-0.251C0.035,-0.335 0.058,-0.404 0.104,-0.456C0.149,-0.508 0.209,-0.535 0.282,-0.535ZM0.422,-0.303C0.419,-0.341 0.41,-0.372 0.397,-0.395C0.373,-0.437 0.333,-0.458 0.277,-0.458C0.236,-0.458 0.203,-0.443 0.175,-0.414C0.148,-0.385 0.133,-0.348 0.132,-0.303L0.422,-0.303Z" style="fill-rule:nonzero;"/>
            </g>
            <g transform="matrix(10,0,0,10,80.81,45.035)">
                <path d="M0.076,-0.717L0.191,-0.717L0.553,-0.136L0.553,-0.717L0.646,-0.717L0.646,-0L0.537,-0L0.169,-0.581L0.169,-0L0.076,-0L0.076,-0.717Z" style="fill-rule:nonzero;"/>
            </g>
            <g transform="matrix(10,0,0,10,88.0324,45.035)">
                <path d="M0.132,-0.139C0.132,-0.114 0.141,-0.094 0.16,-0.079C0.178,-0.064 0.2,-0.057 0.226,-0.057C0.257,-0.057 0.286,-0.064 0.315,-0.079C0.364,-0.102 0.389,-0.141 0.389,-0.195L0.389,-0.266C0.378,-0.259 0.364,-0.254 0.347,-0.249C0.33,-0.244 0.314,-0.241 0.297,-0.239L0.244,-0.232C0.212,-0.228 0.188,-0.222 0.172,-0.212C0.145,-0.197 0.132,-0.173 0.132,-0.139ZM0.345,-0.317C0.365,-0.319 0.378,-0.328 0.385,-0.342C0.389,-0.35 0.391,-0.361 0.391,-0.376C0.391,-0.406 0.38,-0.428 0.359,-0.441C0.338,-0.455 0.307,-0.461 0.268,-0.461C0.222,-0.461 0.189,-0.449 0.17,-0.424C0.159,-0.411 0.152,-0.39 0.149,-0.363L0.067,-0.363C0.069,-0.428 0.089,-0.473 0.13,-0.498C0.17,-0.523 0.216,-0.536 0.27,-0.536C0.331,-0.536 0.381,-0.524 0.419,-0.5C0.458,-0.477 0.477,-0.441 0.477,-0.391L0.477,-0.09C0.477,-0.081 0.478,-0.073 0.482,-0.068C0.486,-0.062 0.494,-0.06 0.506,-0.06C0.51,-0.06 0.514,-0.06 0.519,-0.06C0.524,-0.061 0.529,-0.062 0.535,-0.063L0.535,0.002C0.521,0.006 0.511,0.009 0.503,0.01C0.496,0.011 0.486,0.011 0.474,0.011C0.444,0.011 0.422,0 0.408,-0.021C0.401,-0.032 0.396,-0.049 0.393,-0.069C0.375,-0.046 0.349,-0.026 0.316,-0.008C0.282,0.009 0.245,0.018 0.205,0.018C0.157,0.018 0.117,0.003 0.086,-0.027C0.055,-0.056 0.04,-0.093 0.04,-0.137C0.04,-0.186 0.055,-0.223 0.085,-0.25C0.116,-0.277 0.155,-0.293 0.205,-0.299L0.345,-0.317Z" style="fill-rule:nonzero;"/>
            </g>
            <g transform="matrix(10,0,0,10,93.5947,45.035)">
                <path d="M0.285,-0.059C0.326,-0.059 0.36,-0.076 0.387,-0.111C0.415,-0.145 0.428,-0.196 0.428,-0.265C0.428,-0.306 0.422,-0.342 0.41,-0.372C0.387,-0.43 0.346,-0.458 0.285,-0.458C0.224,-0.458 0.183,-0.428 0.16,-0.367C0.148,-0.335 0.142,-0.293 0.142,-0.243C0.142,-0.203 0.148,-0.168 0.16,-0.14C0.183,-0.086 0.225,-0.059 0.285,-0.059ZM0.058,-0.521L0.143,-0.521L0.143,-0.451C0.161,-0.475 0.18,-0.493 0.201,-0.506C0.23,-0.526 0.265,-0.536 0.305,-0.536C0.364,-0.536 0.415,-0.513 0.456,-0.468C0.497,-0.422 0.518,-0.357 0.518,-0.273C0.518,-0.159 0.488,-0.078 0.429,-0.029C0.391,0.002 0.347,0.018 0.297,0.018C0.257,0.018 0.224,0.009 0.198,-0.008C0.182,-0.018 0.165,-0.035 0.146,-0.059L0.146,0.208L0.058,0.208L0.058,-0.521Z" style="fill-rule:nonzero;"/>
            </g>
            <g transform="matrix(10,0,0,10,99.157,45.035)">
                <path d="M0.064,-0.72L0.152,-0.72L0.152,-0.452C0.173,-0.479 0.192,-0.497 0.208,-0.508C0.237,-0.526 0.272,-0.536 0.314,-0.536C0.39,-0.536 0.442,-0.509 0.469,-0.456C0.483,-0.427 0.491,-0.387 0.491,-0.335L0.491,-0L0.4,-0L0.4,-0.33C0.4,-0.368 0.396,-0.396 0.386,-0.414C0.37,-0.443 0.34,-0.457 0.296,-0.457C0.259,-0.457 0.226,-0.444 0.197,-0.419C0.167,-0.394 0.152,-0.347 0.152,-0.277L0.152,-0L0.064,-0L0.064,-0.72Z" style="fill-rule:nonzero;"/>
            </g>
            <g transform="matrix(10,0,0,10,104.719,45.035)">
                <path d="M0.082,-0.669L0.171,-0.669L0.171,-0.523L0.254,-0.523L0.254,-0.451L0.171,-0.451L0.171,-0.11C0.171,-0.092 0.177,-0.079 0.189,-0.073C0.196,-0.07 0.208,-0.068 0.224,-0.068C0.228,-0.068 0.232,-0.068 0.237,-0.068C0.242,-0.068 0.248,-0.069 0.254,-0.069L0.254,-0C0.244,0.003 0.234,0.005 0.223,0.006C0.212,0.008 0.2,0.008 0.188,0.008C0.146,0.008 0.119,-0.002 0.104,-0.023C0.089,-0.044 0.082,-0.071 0.082,-0.105L0.082,-0.451L0.011,-0.451L0.011,-0.523L0.082,-0.523L0.082,-0.669Z" style="fill-rule:nonzero;"/>
            </g>
            <g transform="matrix(10,0,0,10,107.498,45.035)">
                <path d="M0.064,-0.72L0.152,-0.72L0.152,-0.452C0.173,-0.479 0.192,-0.497 0.208,-0.508C0.237,-0.526 0.272,-0.536 0.314,-0.536C0.39,-0.536 0.442,-0.509 0.469,-0.456C0.483,-0.427 0.491,-0.387 0.491,-0.335L0.491,-0L0.4,-0L0.4,-0.33C0.4,-0.368 0.396,-0.396 0.386,-0.414C0.37,-0.443 0.34,-0.457 0.296,-0.457C0.259,-0.457 0.226,-0.444 0.197,-0.419C0.167,-0.394 0.152,-0.347 0.152,-0.277L0.152,-0L0.064,-0L0.064,-0.72Z" style="fill-rule:nonzero;"/>
            </g>
            <g transform="matrix(10,0,0,10,113.061,45.035)">
                <path d="M0.132,-0.139C0.132,-0.114 0.141,-0.094 0.16,-0.079C0.178,-0.064 0.2,-0.057 0.226,-0.057C0.257,-0.057 0.286,-0.064 0.315,-0.079C0.364,-0.102 0.389,-0.141 0.389,-0.195L0.389,-0.266C0.378,-0.259 0.364,-0.254 0.347,-0.249C0.33,-0.244 0.314,-0.241 0.297,-0.239L0.244,-0.232C0.212,-0.228 0.188,-0.222 0.172,-0.212C0.145,-0.197 0.132,-0.173 0.132,-0.139ZM0.345,-0.317C0.365,-0.319 0.378,-0.328 0.385,-0.342C0.389,-0.35 0.391,-0.361 0.391,-0.376C0.391,-0.406 0.38,-0.428 0.359,-0.441C0.338,-0.455 0.307,-0.461 0.268,-0.461C0.222,-0.461 0.189,-0.449 0.17,-0.424C0.159,-0.411 0.152,-0.39 0.149,-0.363L0.067,-0.363C0.069,-0.428 0.089,-0.473 0.13,-0.498C0.17,-0.523 0.216,-0.536 0.27,-0.536C0.331,-0.536 0.381,-0.524 0.419,-0.5C0.458,-0.477 0.477,-0.441 0.477,-0.391L0.477,-0.09C0.477,-0.081 0.478,-0.073 0.482,-0.068C0.486,-0.062 0.494,-0.06 0.506,-0.06C0.51,-0.06 0.514,-0.06 0.519,-0.06C0.524,-0.061 0.529,-0.062 0.535,-0.063L0.535,0.002C0.521,0.006 0.511,0.009 0.503,0.01C0.496,0.011 0.486,0.011 0.474,0.011C0.444,0.011 0.422,0 0.408,-0.021C0.401,-0.032 0.396,-0.049 0.393,-0.069C0.375,-0.046 0.349,-0.026 0.316,-0.008C0.282,0.009 0.245,0.018 0.205,0.018C0.157,0.018 0.117,0.003 0.086,-0.027C0.055,-0.056 0.04,-0.093 0.04,-0.137C0.04,-0.186 0.055,-0.223 0.085,-0.25C0.116,-0.277 0.155,-0.293 0.205,-0.299L0.345,-0.317Z" style="fill-rule:nonzero;"/>
            </g>
            <g transform="matrix(10,0,0,10,118.623,45.035)">
                <rect x="0.067" y="-0.717" width="0.088" height="0.717" style="fill-rule:nonzero;"/>
            </g>
            <g transform="matrix(10,0,0,10,120.845,45.035)">
                <path d="M0.282,-0.535C0.319,-0.535 0.355,-0.526 0.39,-0.509C0.425,-0.491 0.451,-0.469 0.47,-0.441C0.487,-0.415 0.499,-0.384 0.505,-0.349C0.51,-0.325 0.513,-0.286 0.513,-0.233L0.129,-0.233C0.131,-0.18 0.144,-0.138 0.167,-0.106C0.19,-0.074 0.227,-0.058 0.276,-0.058C0.322,-0.058 0.358,-0.073 0.386,-0.103C0.401,-0.121 0.412,-0.141 0.419,-0.164L0.505,-0.164C0.503,-0.145 0.496,-0.123 0.483,-0.1C0.47,-0.076 0.455,-0.057 0.439,-0.042C0.413,-0.016 0.38,0.002 0.34,0.011C0.319,0.016 0.295,0.019 0.269,0.019C0.203,0.019 0.148,-0.005 0.103,-0.052C0.058,-0.1 0.035,-0.166 0.035,-0.251C0.035,-0.335 0.058,-0.404 0.104,-0.456C0.149,-0.508 0.209,-0.535 0.282,-0.535ZM0.422,-0.303C0.419,-0.341 0.41,-0.372 0.397,-0.395C0.373,-0.437 0.333,-0.458 0.277,-0.458C0.236,-0.458 0.203,-0.443 0.175,-0.414C0.148,-0.385 0.133,-0.348 0.132,-0.303L0.422,-0.303Z" style="fill-rule:nonzero;"/>
            </g>
            <g transform="matrix(10,0,0,10,126.408,45.035)">
                <path d="M0.064,-0.523L0.148,-0.523L0.148,-0.449C0.173,-0.479 0.199,-0.501 0.227,-0.515C0.254,-0.528 0.285,-0.535 0.319,-0.535C0.393,-0.535 0.443,-0.509 0.469,-0.457C0.484,-0.429 0.491,-0.388 0.491,-0.335L0.491,-0L0.401,-0L0.401,-0.33C0.401,-0.361 0.397,-0.387 0.387,-0.407C0.372,-0.439 0.343,-0.456 0.302,-0.456C0.281,-0.456 0.264,-0.453 0.251,-0.449C0.227,-0.442 0.206,-0.428 0.188,-0.406C0.173,-0.389 0.163,-0.371 0.159,-0.353C0.155,-0.334 0.152,-0.308 0.152,-0.274L0.152,-0L0.064,-0L0.064,-0.523Z" style="fill-rule:nonzero;"/>
            </g>
            <g transform="matrix(10,0,0,10,131.97,45.035)">
                <path d="M0.282,-0.535C0.319,-0.535 0.355,-0.526 0.39,-0.509C0.425,-0.491 0.451,-0.469 0.47,-0.441C0.487,-0.415 0.499,-0.384 0.505,-0.349C0.51,-0.325 0.513,-0.286 0.513,-0.233L0.129,-0.233C0.131,-0.18 0.144,-0.138 0.167,-0.106C0.19,-0.074 0.227,-0.058 0.276,-0.058C0.322,-0.058 0.358,-0.073 0.386,-0.103C0.401,-0.121 0.412,-0.141 0.419,-0.164L0.505,-0.164C0.503,-0.145 0.496,-0.123 0.483,-0.1C0.47,-0.076 0.455,-0.057 0.439,-0.042C0.413,-0.016 0.38,0.002 0.34,0.011C0.319,0.016 0.295,0.019 0.269,0.019C0.203,0.019 0.148,-0.005 0.103,-0.052C0.058,-0.1 0.035,-0.166 0.035,-0.251C0.035,-0.335 0.058,-0.404 0.104,-0.456C0.149,-0.508 0.209,-0.535 0.282,-0.535ZM0.422,-0.303C0.419,-0.341 0.41,-0.372 0.397,-0.395C0.373,-0.437 0.333,-0.458 0.277,-0.458C0.236,-0.458 0.203,-0.443 0.175,-0.414C0.148,-0.385 0.133,-0.348 0.132,-0.303L0.422,-0.303Z" style="fill-rule:nonzero;"/>
            </g>
            <g transform="matrix(10,0,0,10,175.2,45.985)">
                <path d="M0.444,-0.294L0.335,-0.611L0.22,-0.294L0.444,-0.294ZM0.285,-0.717L0.395,-0.717L0.655,-0L0.548,-0L0.476,-0.215L0.192,-0.215L0.114,-0L0.015,-0L0.285,-0.717Z" style="fill-rule:nonzero;"/>
            </g>
            <g transform="matrix(10,0,0,10,181.87,45.985)">
                <path d="M0.064,-0.523L0.148,-0.523L0.148,-0.449C0.173,-0.479 0.199,-0.501 0.227,-0.515C0.254,-0.528 0.285,-0.535 0.319,-0.535C0.393,-0.535 0.443,-0.509 0.469,-0.457C0.484,-0.429 0.491,-0.388 0.491,-0.335L0.491,-0L0.401,-0L0.401,-0.33C0.401,-0.361 0.397,-0.387 0.387,-0.407C0.372,-0.439 0.343,-0.456 0.302,-0.456C0.281,-0.456 0.264,-0.453 0.251,-0.449C0.227,-0.442 0.206,-0.428 0.188,-0.406C0.173,-0.389 0.163,-0.371 0.159,-0.353C0.155,-0.334 0.152,-0.308 0.152,-0.274L0.152,-0L0.064,-0L0.064,-0.523Z" style="fill-rule:nonzero;"/>
            </g>
            <g transform="matrix(10,0,0,10,187.432,45.985)">
                <path d="M0.082,-0.669L0.171,-0.669L0.171,-0.523L0.254,-0.523L0.254,-0.451L0.171,-0.451L0.171,-0.11C0.171,-0.092 0.177,-0.079 0.189,-0.073C0.196,-0.07 0.208,-0.068 0.224,-0.068C0.228,-0.068 0.232,-0.068 0.237,-0.068C0.242,-0.068 0.248,-0.069 0.254,-0.069L0.254,-0C0.244,0.003 0.234,0.005 0.223,0.006C0.212,0.008 0.2,0.008 0.188,0.008C0.146,0.008 0.119,-0.002 0.104,-0.023C0.089,-0.044 0.082,-0.071 0.082,-0.105L0.082,-0.451L0.011,-0.451L0.011,-0.523L0.082,-0.523L0.082,-0.669Z" style="fill-rule:nonzero;"/>
            </g>
            <g transform="matrix(10,0,0,10,190.21,45.985)">
                <path d="M0.064,-0.72L0.152,-0.72L0.152,-0.452C0.173,-0.479 0.192,-0.497 0.208,-0.508C0.237,-0.526 0.272,-0.536 0.314,-0.536C0.39,-0.536 0.442,-0.509 0.469,-0.456C0.483,-0.427 0.491,-0.387 0.491,-0.335L0.491,-0L0.4,-0L0.4,-0.33C0.4,-0.368 0.396,-0.396 0.386,-0.414C0.37,-0.443 0.34,-0.457 0.296,-0.457C0.259,-0.457 0.226,-0.444 0.197,-0.419C0.167,-0.394 0.152,-0.347 0.152,-0.277L0.152,-0L0.064,-0L0.064,-0.72Z" style="fill-rule:nonzero;"/>
            </g>
            <g transform="matrix(10,0,0,10,195.772,45.985)">
                <path d="M0.067,-0.523L0.15,-0.523L0.15,-0.433C0.157,-0.45 0.174,-0.472 0.201,-0.497C0.227,-0.522 0.258,-0.535 0.293,-0.535C0.295,-0.535 0.297,-0.535 0.301,-0.534C0.305,-0.534 0.312,-0.533 0.321,-0.532L0.321,-0.439C0.316,-0.44 0.311,-0.441 0.307,-0.441C0.302,-0.442 0.298,-0.442 0.292,-0.442C0.248,-0.442 0.214,-0.428 0.19,-0.399C0.167,-0.371 0.155,-0.338 0.155,-0.301L0.155,-0L0.067,-0L0.067,-0.523Z" style="fill-rule:nonzero;"/>
            </g>
            <g transform="matrix(10,0,0,10,199.103,45.985)">
                <path d="M0.132,-0.139C0.132,-0.114 0.141,-0.094 0.16,-0.079C0.178,-0.064 0.2,-0.057 0.226,-0.057C0.257,-0.057 0.286,-0.064 0.315,-0.079C0.364,-0.102 0.389,-0.141 0.389,-0.195L0.389,-0.266C0.378,-0.259 0.364,-0.254 0.347,-0.249C0.33,-0.244 0.314,-0.241 0.297,-0.239L0.244,-0.232C0.212,-0.228 0.188,-0.222 0.172,-0.212C0.145,-0.197 0.132,-0.173 0.132,-0.139ZM0.345,-0.317C0.365,-0.319 0.378,-0.328 0.385,-0.342C0.389,-0.35 0.391,-0.361 0.391,-0.376C0.391,-0.406 0.38,-0.428 0.359,-0.441C0.338,-0.455 0.307,-0.461 0.268,-0.461C0.222,-0.461 0.189,-0.449 0.17,-0.424C0.159,-0.411 0.152,-0.39 0.149,-0.363L0.067,-0.363C0.069,-0.428 0.089,-0.473 0.13,-0.498C0.17,-0.523 0.216,-0.536 0.27,-0.536C0.331,-0.536 0.381,-0.524 0.419,-0.5C0.458,-0.477 0.477,-0.441 0.477,-0.391L0.477,-0.09C0.477,-0.081 0.478,-0.073 0.482,-0.068C0.486,-0.062 0.494,-0.06 0.506,-0.06C0.51,-0.06 0.514,-0.06 0.519,-0.06C0.524,-0.061 0.529,-0.062 0.535,-0.063L0.535,0.002C0.521,0.006 0.511,0.009 0.503,0.01C0.496,0.011 0.486,0.011 0.474,0.011C0.444,0.011 0.422,0 0.408,-0.021C0.401,-0.032 0.396,-0.049 0.393,-0.069C0.375,-0.046 0.349,-0.026 0.316,-0.008C0.282,0.009 0.245,0.018 0.205,0.018C0.157,0.018 0.117,0.003 0.086,-0.027C0.055,-0.056 0.04,-0.093 0.04,-0.137C0.04,-0.186 0.055,-0.223 0.085,-0.25C0.116,-0.277 0.155,-0.293 0.205,-0.299L0.345,-0.317Z" style="fill-rule:nonzero;"/>
            </g>
            <g transform="matrix(10,0,0,10,204.664,45.985)">
                <path d="M0.266,-0.538C0.325,-0.538 0.373,-0.524 0.41,-0.495C0.447,-0.466 0.469,-0.417 0.477,-0.347L0.391,-0.347C0.386,-0.379 0.374,-0.406 0.355,-0.427C0.337,-0.449 0.307,-0.459 0.266,-0.459C0.21,-0.459 0.17,-0.432 0.146,-0.377C0.13,-0.342 0.123,-0.298 0.123,-0.246C0.123,-0.194 0.134,-0.15 0.156,-0.114C0.178,-0.078 0.213,-0.06 0.26,-0.06C0.297,-0.06 0.326,-0.071 0.347,-0.094C0.368,-0.116 0.383,-0.146 0.391,-0.185L0.477,-0.185C0.467,-0.116 0.442,-0.065 0.403,-0.033C0.364,-0.001 0.314,0.015 0.253,0.015C0.185,0.015 0.131,-0.01 0.09,-0.06C0.049,-0.11 0.029,-0.172 0.029,-0.247C0.029,-0.339 0.051,-0.41 0.096,-0.461C0.14,-0.513 0.197,-0.538 0.266,-0.538Z" style="fill-rule:nonzero;"/>
            </g>
            <g transform="matrix(10,0,0,10,209.664,45.985)">
                <path d="M0.282,-0.535C0.319,-0.535 0.355,-0.526 0.39,-0.509C0.425,-0.491 0.451,-0.469 0.47,-0.441C0.487,-0.415 0.499,-0.384 0.505,-0.349C0.51,-0.325 0.513,-0.286 0.513,-0.233L0.129,-0.233C0.131,-0.18 0.144,-0.138 0.167,-0.106C0.19,-0.074 0.227,-0.058 0.276,-0.058C0.322,-0.058 0.358,-0.073 0.386,-0.103C0.401,-0.121 0.412,-0.141 0.419,-0.164L0.505,-0.164C0.503,-0.145 0.496,-0.123 0.483,-0.1C0.47,-0.076 0.455,-0.057 0.439,-0.042C0.413,-0.016 0.38,0.002 0.34,0.011C0.319,0.016 0.295,0.019 0.269,0.019C0.203,0.019 0.148,-0.005 0.103,-0.052C0.058,-0.1 0.035,-0.166 0.035,-0.251C0.035,-0.335 0.058,-0.404 0.104,-0.456C0.149,-0.508 0.209,-0.535 0.282,-0.535ZM0.422,-0.303C0.419,-0.341 0.41,-0.372 0.397,-0.395C0.373,-0.437 0.333,-0.458 0.277,-0.458C0.236,-0.458 0.203,-0.443 0.175,-0.414C0.148,-0.385 0.133,-0.348 0.132,-0.303L0.422,-0.303Z" style="fill-rule:nonzero;"/>
            </g>
            <g transform="matrix(10,0,0,10,215.226,45.985)">
                <path d="M0.064,-0.523L0.148,-0.523L0.148,-0.449C0.173,-0.479 0.199,-0.501 0.227,-0.515C0.254,-0.528 0.285,-0.535 0.319,-0.535C0.393,-0.535 0.443,-0.509 0.469,-0.457C0.484,-0.429 0.491,-0.388 0.491,-0.335L0.491,-0L0.401,-0L0.401,-0.33C0.401,-0.361 0.397,-0.387 0.387,-0.407C0.372,-0.439 0.343,-0.456 0.302,-0.456C0.281,-0.456 0.264,-0.453 0.251,-0.449C0.227,-0.442 0.206,-0.428 0.188,-0.406C0.173,-0.389 0.163,-0.371 0.159,-0.353C0.155,-0.334 0.152,-0.308 0.152,-0.274L0.152,-0L0.064,-0L0.064,-0.523Z" style="fill-rule:nonzero;"/>
            </g>
            <g transform="matrix(10,0,0,10,220.788,45.985)">
                <path d="M0.282,-0.535C0.319,-0.535 0.355,-0.526 0.39,-0.509C0.425,-0.491 0.451,-0.469 0.47,-0.441C0.487,-0.415 0.499,-0.384 0.505,-0.349C0.51,-0.325 0.513,-0.286 0.513,-0.233L0.129,-0.233C0.131,-0.18 0.144,-0.138 0.167,-0.106C0.19,-0.074 0.227,-0.058 0.276,-0.058C0.322,-0.058 0.358,-0.073 0.386,-0.103C0.401,-0.121 0.412,-0.141 0.419,-0.164L0.505,-0.164C0.503,-0.145 0.496,-0.123 0.483,-0.1C0.47,-0.076 0.455,-0.057 0.439,-0.042C0.413,-0.016 0.38,0.002 0.34,0.011C0.319,0.016 0.295,0.019 0.269,0.019C0.203,0.019 0.148,-0.005 0.103,-0.052C0.058,-0.1 0.035,-0.166 0.035,-0.251C0.035,-0.335 0.058,-0.404 0.104,-0.456C0.149,-0.508 0.209,-0.535 0.282,-0.535ZM0.422,-0.303C0.419,-0.341 0.41,-0.372 0.397,-0.395C0.373,-0.437 0.333,-0.458 0.277,-0.458C0.236,-0.458 0.203,-0.443 0.175,-0.414C0.148,-0.385 0.133,-0.348 0.132,-0.303L0.422,-0.303Z" style="fill-rule:nonzero;"/>
            </g>
            <g transform="matrix(10,0,0,10,26.67,114.965)">
                <path d="M0.598,-0.717L0.598,-0.632L0.356,-0.632L0.356,-0L0.258,-0L0.258,-0.632L0.016,-0.632L0.016,-0.717L0.598,-0.717Z" style="fill-rule:nonzero;"/>
            </g>
            <g transform="matrix(10,0,0,10,31.6702,114.965)">
                <path d="M0.282,-0.535C0.319,-0.535 0.355,-0.526 0.39,-0.509C0.425,-0.491 0.451,-0.469 0.47,-0.441C0.487,-0.415 0.499,-0.384 0.505,-0.349C0.51,-0.325 0.513,-0.286 0.513,-0.233L0.129,-0.233C0.131,-0.18 0.144,-0.138 0.167,-0.106C0.19,-0.074 0.227,-0.058 0.276,-0.058C0.322,-0.058 0.358,-0.073 0.386,-0.103C0.401,-0.121 0.412,-0.141 0.419,-0.164L0.505,-0.164C0.503,-0.145 0.496,-0.123 0.483,-0.1C0.47,-0.076 0.455,-0.057 0.439,-0.042C0.413,-0.016 0.38,0.002 0.34,0.011C0.319,0.016 0.295,0.019 0.269,0.019C0.203,0.019 0.148,-0.005 0.103,-0.052C0.058,-0.1 0.035,-0.166 0.035,-0.251C0.035,-0.335 0.058,-0.404 0.104,-0.456C0.149,-0.508 0.209,-0.535 0.282,-0.535ZM0.422,-0.303C0.419,-0.341 0.41,-0.372 0.397,-0.395C0.373,-0.437 0.333,-0.458 0.277,-0.458C0.236,-0.458 0.203,-0.443 0.175,-0.414C0.148,-0.385 0.133,-0.348 0.132,-0.303L0.422,-0.303Z" style="fill-rule:nonzero;"/>
            </g>
            <g transform="matrix(10,0,0,10,37.2319,114.965)">
                <path d="M0.082,-0.669L0.171,-0.669L0.171,-0.523L0.254,-0.523L0.254,-0.451L0.171,-0.451L0.171,-0.11C0.171,-0.092 0.177,-0.079 0.189,-0.073C0.196,-0.07 0.208,-0.068 0.224,-0.068C0.228,-0.068 0.232,-0.068 0.237,-0.068C0.242,-0.068 0.248,-0.069 0.254,-0.069L0.254,-0C0.244,0.003 0.234,0.005 0.223,0.006C0.212,0.008 0.2,0.008 0.188,0.008C0.146,0.008 0.119,-0.002 0.104,-0.023C0.089,-0.044 0.082,-0.071 0.082,-0.105L0.082,-0.451L0.011,-0.451L0.011,-0.523L0.082,-0.523L0.082,-0.669Z" style="fill-rule:nonzero;"/>
            </g>
            <g transform="matrix(10,0,0,10,40.0104,114.965)">
                <path d="M0.067,-0.523L0.15,-0.523L0.15,-0.433C0.157,-0.45 0.174,-0.472 0.201,-0.497C0.227,-0.522 0.258,-0.535 0.293,-0.535C0.295,-0.535 0.297,-0.535 0.301,-0.534C0.305,-0.534 0.312,-0.533 0.321,-0.532L0.321,-0.439C0.316,-0.44 0.311,-0.441 0.307,-0.441C0.302,-0.442 0.298,-0.442 0.292,-0.442C0.248,-0.442 0.214,-0.428 0.19,-0.399C0.167,-0.371 0.155,-0.338 0.155,-0.301L0.155,-0L0.067,-0L0.067,-0.523Z" style="fill-rule:nonzero;"/>
            </g>
            <g transform="matrix(10,0,0,10,43.3407,114.965)">
                <path d="M0.132,-0.139C0.132,-0.114 0.141,-0.094 0.16,-0.079C0.178,-0.064 0.2,-0.057 0.226,-0.057C0.257,-0.057 0.286,-0.064 0.315,-0.079C0.364,-0.102 0.389,-0.141 0.389,-0.195L0.389,-0.266C0.378,-0.259 0.364,-0.254 0.347,-0.249C0.33,-0.244 0.314,-0.241 0.297,-0.239L0.244,-0.232C0.212,-0.228 0.188,-0.222 0.172,-0.212C0.145,-0.197 0.132,-0.173 0.132,-0.139ZM0.345,-0.317C0.365,-0.319 0.378,-0.328 0.385,-0.342C0.389,-0.35 0.391,-0.361 0.391,-0.376C0.391,-0.406 0.38,-0.428 0.359,-0.441C0.338,-0.455 0.307,-0.461 0.268,-0.461C0.222,-0.461 0.189,-0.449 0.17,-0.424C0.159,-0.411 0.152,-0.39 0.149,-0.363L0.067,-0.363C0.069,-0.428 0.089,-0.473 0.13,-0.498C0.17,-0.523 0.216,-0.536 0.27,-0.536C0.331,-0.536 0.381,-0.524 0.419,-0.5C0.458,-0.477 0.477,-0.441 0.477,-0.391L0.477,-0.09C0.477,-0.081 0.478,-0.073 0.482,-0.068C0.486,-0.062 0.494,-0.06 0.506,-0.06C0.51,-0.06 0.514,-0.06 0.519,-0.06C0.524,-0.061 0.529,-0.062 0.535,-0.063L0.535,0.002C0.521,0.006 0.511,0.009 0.503,0.01C0.496,0.011 0.486,0.011 0.474,0.011C0.444,0.011 0.422,0 0.408,-0.021C0.401,-0.032 0.396,-0.049 0.393,-0.069C0.375,-0.046 0.349,-0.026 0.316,-0.008C0.282,0.009 0.245,0.018 0.205,0.018C0.157,0.018 0.117,0.003 0.086,-0.027C0.055,-0.056 0.04,-0.093 0.04,-0.137C0.04,-0.186 0.055,-0.223 0.085,-0.25C0.116,-0.277 0.155,-0.293 0.205,-0.299L0.345,-0.317Z" style="fill-rule:nonzero;"/>
            </g>
            <g transform="matrix(10,0,0,10,48.9024,114.965)">
                <path d="M0.266,-0.538C0.325,-0.538 0.373,-0.524 0.41,-0.495C0.447,-0.466 0.469,-0.417 0.477,-0.347L0.391,-0.347C0.386,-0.379 0.374,-0.406 0.355,-0.427C0.337,-0.449 0.307,-0.459 0.266,-0.459C0.21,-0.459 0.17,-0.432 0.146,-0.377C0.13,-0.342 0.123,-0.298 0.123,-0.246C0.123,-0.194 0.134,-0.15 0.156,-0.114C0.178,-0.078 0.213,-0.06 0.26,-0.06C0.297,-0.06 0.326,-0.071 0.347,-0.094C0.368,-0.116 0.383,-0.146 0.391,-0.185L0.477,-0.185C0.467,-0.116 0.442,-0.065 0.403,-0.033C0.364,-0.001 0.314,0.015 0.253,0.015C0.185,0.015 0.131,-0.01 0.09,-0.06C0.049,-0.11 0.029,-0.172 0.029,-0.247C0.029,-0.339 0.051,-0.41 0.096,-0.461C0.14,-0.513 0.197,-0.538 0.266,-0.538Z" style="fill-rule:nonzero;"/>
            </g>
            <g transform="matrix(10,0,0,10,53.9026,114.965)">
                <path d="M0.282,-0.535C0.319,-0.535 0.355,-0.526 0.39,-0.509C0.425,-0.491 0.451,-0.469 0.47,-0.441C0.487,-0.415 0.499,-0.384 0.505,-0.349C0.51,-0.325 0.513,-0.286 0.513,-0.233L0.129,-0.233C0.131,-0.18 0.144,-0.138 0.167,-0.106C0.19,-0.074 0.227,-0.058 0.276,-0.058C0.322,-0.058 0.358,-0.073 0.386,-0.103C0.401,-0.121 0.412,-0.141 0.419,-0.164L0.505,-0.164C0.503,-0.145 0.496,-0.123 0.483,-0.1C0.47,-0.076 0.455,-0.057 0.439,-0.042C0.413,-0.016 0.38,0.002 0.34,0.011C0.319,0.016 0.295,0.019 0.269,0.019C0.203,0.019 0.148,-0.005 0.103,-0.052C0.058,-0.1 0.035,-0.166 0.035,-0.251C0.035,-0.335 0.058,-0.404 0.104,-0.456C0.149,-0.508 0.209,-0.535 0.282,-0.535ZM0.422,-0.303C0.419,-0.341 0.41,-0.372 0.397,-0.395C0.373,-0.437 0.333,-0.458 0.277,-0.458C0.236,-0.458 0.203,-0.443 0.175,-0.414C0.148,-0.385 0.133,-0.348 0.132,-0.303L0.422,-0.303Z" style="fill-rule:nonzero;"/>
            </g>
            <g transform="matrix(10,0,0,10,59.4643,114.965)">
                <path d="M0.064,-0.523L0.148,-0.523L0.148,-0.449C0.173,-0.479 0.199,-0.501 0.227,-0.515C0.254,-0.528 0.285,-0.535 0.319,-0.535C0.393,-0.535 0.443,-0.509 0.469,-0.457C0.484,-0.429 0.491,-0.388 0.491,-0.335L0.491,-0L0.401,-0L0.401,-0.33C0.401,-0.361 0.397,-0.387 0.387,-0.407C0.372,-0.439 0.343,-0.456 0.302,-0.456C0.281,-0.456 0.264,-0.453 0.251,-0.449C0.227,-0.442 0.206,-0.428 0.188,-0.406C0.173,-0.389 0.163,-0.371 0.159,-0.353C0.155,-0.334 0.152,-0.308 0.152,-0.274L0.152,-0L0.064,-0L0.064,-0.523Z" style="fill-rule:nonzero;"/>
            </g>
            <g transform="matrix(10,0,0,10,65.026,114.965)">
                <path d="M0.282,-0.535C0.319,-0.535 0.355,-0.526 0.39,-0.509C0.425,-0.491 0.451,-0.469 0.47,-0.441C0.487,-0.415 0.499,-0.384 0.505,-0.349C0.51,-0.325 0.513,-0.286 0.513,-0.233L0.129,-0.233C0.131,-0.18 0.144,-0.138 0.167,-0.106C0.19,-0.074 0.227,-0.058 0.276,-0.058C0.322,-0.058 0.358,-0.073 0.386,-0.103C0.401,-0.121 0.412,-0.141 0.419,-0.164L0.505,-0.164C0.503,-0.145 0.496,-0.123 0.483,-0.1C0.47,-0.076 0.455,-0.057 0.439,-0.042C0.413,-0.016 0.38,0.002 0.34,0.011C0.319,0.016 0.295,0.019 0.269,0.019C0.203,0.019 0.148,-0.005 0.103,-0.052C0.058,-0.1 0.035,-0.166 0.035,-0.251C0.035,-0.335 0.058,-0.404 0.104,-0.456C0.149,-0.508 0.209,-0.535 0.282,-0.535ZM0.422,-0.303C0.419,-0.341 0.41,-0.372 0.397,-0.395C0.373,-0.437 0.333,-0.458 0.277,-0.458C0.236,-0.458 0.203,-0.443 0.175,-0.414C0.148,-0.385 0.133,-0.348 0.132,-0.303L0.422,-0.303Z" style="fill-rule:nonzero;"/>
            </g>
            <g transform="matrix(10,0,0,10,166.36,114.965)">
                <path d="M0.085,-0.717L0.408,-0.717C0.472,-0.717 0.523,-0.699 0.563,-0.663C0.602,-0.627 0.621,-0.577 0.621,-0.512C0.621,-0.456 0.604,-0.407 0.569,-0.365C0.534,-0.324 0.48,-0.303 0.408,-0.303L0.183,-0.303L0.183,-0L0.085,-0L0.085,-0.717ZM0.523,-0.511C0.523,-0.564 0.503,-0.6 0.464,-0.619C0.443,-0.629 0.413,-0.634 0.376,-0.634L0.183,-0.634L0.183,-0.385L0.376,-0.385C0.42,-0.385 0.455,-0.395 0.482,-0.413C0.509,-0.432 0.523,-0.464 0.523,-0.511Z" style="fill-rule:nonzero;"/>
            </g>
            <g transform="matrix(10,0,0,10,173.03,114.965)">
                <path d="M0.282,-0.535C0.319,-0.535 0.355,-0.526 0.39,-0.509C0.425,-0.491 0.451,-0.469 0.47,-0.441C0.487,-0.415 0.499,-0.384 0.505,-0.349C0.51,-0.325 0.513,-0.286 0.513,-0.233L0.129,-0.233C0.131,-0.18 0.144,-0.138 0.167,-0.106C0.19,-0.074 0.227,-0.058 0.276,-0.058C0.322,-0.058 0.358,-0.073 0.386,-0.103C0.401,-0.121 0.412,-0.141 0.419,-0.164L0.505,-0.164C0.503,-0.145 0.496,-0.123 0.483,-0.1C0.47,-0.076 0.455,-0.057 0.439,-0.042C0.413,-0.016 0.38,0.002 0.34,0.011C0.319,0.016 0.295,0.019 0.269,0.019C0.203,0.019 0.148,-0.005 0.103,-0.052C0.058,-0.1 0.035,-0.166 0.035,-0.251C0.035,-0.335 0.058,-0.404 0.104,-0.456C0.149,-0.508 0.209,-0.535 0.282,-0.535ZM0.422,-0.303C0.419,-0.341 0.41,-0.372 0.397,-0.395C0.373,-0.437 0.333,-0.458 0.277,-0.458C0.236,-0.458 0.203,-0.443 0.175,-0.414C0.148,-0.385 0.133,-0.348 0.132,-0.303L0.422,-0.303Z" style="fill-rule:nonzero;"/>
            </g>
            <g transform="matrix(10,0,0,10,178.592,114.965)">
                <path d="M0.064,-0.523L0.148,-0.523L0.148,-0.449C0.173,-0.479 0.199,-0.501 0.227,-0.515C0.254,-0.528 0.285,-0.535 0.319,-0.535C0.393,-0.535 0.443,-0.509 0.469,-0.457C0.484,-0.429 0.491,-0.388 0.491,-0.335L0.491,-0L0.401,-0L0.401,-0.33C0.401,-0.361 0.397,-0.387 0.387,-0.407C0.372,-0.439 0.343,-0.456 0.302,-0.456C0.281,-0.456 0.264,-0.453 0.251,-0.449C0.227,-0.442 0.206,-0.428 0.188,-0.406C0.173,-0.389 0.163,-0.371 0.159,-0.353C0.155,-0.334 0.152,-0.308 0.152,-0.274L0.152,-0L0.064,-0L0.064,-0.523Z" style="fill-rule:nonzero;"/>
            </g>
            <g transform="matrix(10,0,0,10,184.154,114.965)">
                <path d="M0.082,-0.669L0.171,-0.669L0.171,-0.523L0.254,-0.523L0.254,-0.451L0.171,-0.451L0.171,-0.11C0.171,-0.092 0.177,-0.079 0.189,-0.073C0.196,-0.07 0.208,-0.068 0.224,-0.068C0.228,-0.068 0.232,-0.068 0.237,-0.068C0.242,-0.068 0.248,-0.069 0.254,-0.069L0.254,-0C0.244,0.003 0.234,0.005 0.223,0.006C0.212,0.008 0.2,0.008 0.188,0.008C0.146,0.008 0.119,-0.002 0.104,-0.023C0.089,-0.044 0.082,-0.071 0.082,-0.105L0.082,-0.451L0.011,-0.451L0.011,-0.523L0.082,-0.523L0.082,-0.669Z" style="fill-rule:nonzero;"/>
            </g>
            <g transform="matrix(10,0,0,10,186.932,114.965)">
                <path d="M0.132,-0.139C0.132,-0.114 0.141,-0.094 0.16,-0.079C0.178,-0.064 0.2,-0.057 0.226,-0.057C0.257,-0.057 0.286,-0.064 0.315,-0.079C0.364,-0.102 0.389,-0.141 0.389,-0.195L0.389,-0.266C0.378,-0.259 0.364,-0.254 0.347,-0.249C0.33,-0.244 0.314,-0.241 0.297,-0.239L0.244,-0.232C0.212,-0.228 0.188,-0.222 0.172,-0.212C0.145,-0.197 0.132,-0.173 0.132,-0.139ZM0.345,-0.317C0.365,-0.319 0.378,-0.328 0.385,-0.342C0.389,-0.35 0.391,-0.361 0.391,-0.376C0.391,-0.406 0.38,-0.428 0.359,-0.441C0.338,-0.455 0.307,-0.461 0.268,-0.461C0.222,-0.461 0.189,-0.449 0.17,-0.424C0.159,-0.411 0.152,-0.39 0.149,-0.363L0.067,-0.363C0.069,-0.428 0.089,-0.473 0.13,-0.498C0.17,-0.523 0.216,-0.536 0.27,-0.536C0.331,-0.536 0.381,-0.524 0.419,-0.5C0.458,-0.477 0.477,-0.441 0.477,-0.391L0.477,-0.09C0.477,-0.081 0.478,-0.073 0.482,-0.068C0.486,-0.062 0.494,-0.06 0.506,-0.06C0.51,-0.06 0.514,-0.06 0.519,-0.06C0.524,-0.061 0.529,-0.062 0.535,-0.063L0.535,0.002C0.521,0.006 0.511,0.009 0.503,0.01C0.496,0.011 0.486,0.011 0.474,0.011C0.444,0.011 0.422,0 0.408,-0.021C0.401,-0.032 0.396,-0.049 0.393,-0.069C0.375,-0.046 0.349,-0.026 0.316,-0.008C0.282,0.009 0.245,0.018 0.205,0.018C0.157,0.018 0.117,0.003 0.086,-0.027C0.055,-0.056 0.04,-0.093 0.04,-0.137C0.04,-0.186 0.055,-0.223 0.085,-0.25C0.116,-0.277 0.155,-0.293 0.205,-0.299L0.345,-0.317Z" style="fill-rule:nonzero;"/>
            </g>
            <g transform="matrix(10,0,0,10,192.494,114.965)">
                <path d="M0.266,-0.538C0.325,-0.538 0.373,-0.524 0.41,-0.495C0.447,-0.466 0.469,-0.417 0.477,-0.347L0.391,-0.347C0.386,-0.379 0.374,-0.406 0.355,-0.427C0.337,-0.449 0.307,-0.459 0.266,-0.459C0.21,-0.459 0.17,-0.432 0.146,-0.377C0.13,-0.342 0.123,-0.298 0.123,-0.246C0.123,-0.194 0.134,-0.15 0.156,-0.114C0.178,-0.078 0.213,-0.06 0.26,-0.06C0.297,-0.06 0.326,-0.071 0.347,-0.094C0.368,-0.116 0.383,-0.146 0.391,-0.185L0.477,-0.185C0.467,-0.116 0.442,-0.065 0.403,-0.033C0.364,-0.001 0.314,0.015 0.253,0.015C0.185,0.015 0.131,-0.01 0.09,-0.06C0.049,-0.11 0.029,-0.172 0.029,-0.247C0.029,-0.339 0.051,-0.41 0.096,-0.461C0.14,-0.513 0.197,-0.538 0.266,-0.538Z" style="fill-rule:nonzero;"/>
            </g>
            <g transform="matrix(10,0,0,10,197.494,114.965)">
                <path d="M0.282,-0.535C0.319,-0.535 0.355,-0.526 0.39,-0.509C0.425,-0.491 0.451,-0.469 0.47,-0.441C0.487,-0.415 0.499,-0.384 0.505,-0.349C0.51,-0.325 0.513,-0.286 0.513,-0.233L0.129,-0.233C0.131,-0.18 0.144,-0.138 0.167,-0.106C0.19,-0.074 0.227,-0.058 0.276,-0.058C0.322,-0.058 0.358,-0.073 0.386,-0.103C0.401,-0.121 0.412,-0.141 0.419,-0.164L0.505,-0.164C0.503,-0.145 0.496,-0.123 0.483,-0.1C0.47,-0.076 0.455,-0.057 0.439,-0.042C0.413,-0.016 0.38,0.002 0.34,0.011C0.319,0.016 0.295,0.019 0.269,0.019C0.203,0.019 0.148,-0.005 0.103,-0.052C0.058,-0.1 0.035,-0.166 0.035,-0.251C0.035,-0.335 0.058,-0.404 0.104,-0.456C0.149,-0.508 0.209,-0.535 0.282,-0.535ZM0.422,-0.303C0.419,-0.341 0.41,-0.372 0.397,-0.395C0.373,-0.437 0.333,-0.458 0.277,-0.458C0.236,-0.458 0.203,-0.443 0.175,-0.414C0.148,-0.385 0.133,-0.348 0.132,-0.303L0.422,-0.303Z" style="fill-rule:nonzero;"/>
            </g>
            <g transform="matrix(10,0,0,10,203.056,114.965)">
                <path d="M0.064,-0.523L0.148,-0.523L0.148,-0.449C0.173,-0.479 0.199,-0.501 0.227,-0.515C0.254,-0.528 0.285,-0.535 0.319,-0.535C0.393,-0.535 0.443,-0.509 0.469,-0.457C0.484,-0.429 0.491,-0.388 0.491,-0.335L0.491,-0L0.401,-0L0.401,-0.33C0.401,-0.361 0.397,-0.387 0.387,-0.407C0.372,-0.439 0.343,-0.456 0.302,-0.456C0.281,-0.456 0.264,-0.453 0.251,-0.449C0.227,-0.442 0.206,-0.428 0.188,-0.406C0.173,-0.389 0.163,-0.371 0.159,-0.353C0.155,-0.334 0.152,-0.308 0.152,-0.274L0.152,-0L0.064,-0L0.064,-0.523Z" style="fill-rule:nonzero;"/>
            </g>
            <g transform="matrix(10,0,0,10,208.618,114.965)">
                <path d="M0.282,-0.535C0.319,-0.535 0.355,-0.526 0.39,-0.509C0.425,-0.491 0.451,-0.469 0.47,-0.441C0.487,-0.415 0.499,-0.384 0.505,-0.349C0.51,-0.325 0.513,-0.286 0.513,-0.233L0.129,-0.233C0.131,-0.18 0.144,-0.138 0.167,-0.106C0.19,-0.074 0.227,-0.058 0.276,-0.058C0.322,-0.058 0.358,-0.073 0.386,-0.103C0.401,-0.121 0.412,-0.141 0.419,-0.164L0.505,-0.164C0.503,-0.145 0.496,-0.123 0.483,-0.1C0.47,-0.076 0.455,-0.057 0.439,-0.042C0.413,-0.016 0.38,0.002 0.34,0.011C0.319,0.016 0.295,0.019 0.269,0.019C0.203,0.019 0.148,-0.005 0.103,-0.052C0.058,-0.1 0.035,-0.166 0.035,-0.251C0.035,-0.335 0.058,-0.404 0.104,-0.456C0.149,-0.508 0.209,-0.535 0.282,-0.535ZM0.422,-0.303C0.419,-0.341 0.41,-0.372 0.397,-0.395C0.373,-0.437 0.333,-0.458 0.277,-0.458C0.236,-0.458 0.203,-0.443 0.175,-0.414C0.148,-0.385 0.133,-0.348 0.132,-0.303L0.422,-0.303Z" style="fill-rule:nonzero;"/>
            </g>
        </g>
    </g>
</svg>
