<?xml version="1.0" encoding="UTF-8" standalone="no"?>
<!DOCTYPE svg PUBLIC "-//W3C//DTD SVG 1.1//EN" "http://www.w3.org/Graphics/SVG/1.1/DTD/svg11.dtd">
<svg width="451" height="162" viewBox="0 0 451 162" version="1.1" xmlns="http://www.w3.org/2000/svg" xmlns:xlink="http://www.w3.org/1999/xlink" xml:space="preserve" xmlns:serif="http://www.serif.com/" style="fill-rule:evenodd;clip-rule:evenodd;stroke-linejoin:round;stroke-miterlimit:1.5;">
    <g id="Artboard1" transform="matrix(0.231138,0,0,0.082708,0,0)">
        <g>
            <rect x="0" y="0" width="1950" height="1950" style="fill:white;"/>
            <g transform="matrix(1.038339,0,0,2.901786,-21.668477,-676.116071)">
                <g transform="matrix(7.216849,4.166717,4.166717,-7.216849,-275.524319,1043.556331)">
                    <path d="M9.675,74.57L10.368,74.57L15.955,64.894L15.608,64.294L9.675,74.57Z" style="fill-rule:nonzero;"/>
                </g>
                <g transform="matrix(8.333333,0,0,8.333333,0,15.299967)">
                    <rect x="14.675" y="65.019" width="0.6" height="9.126"/>
                </g>
                <g transform="matrix(8.333333,0,0,8.333333,0,159.299833)">
                    <path d="M12.601,58.235L13.201,57.889L22.878,63.476L22.878,63.822L22.578,63.995L12.601,58.235Z" style="fill-rule:nonzero;"/>
                </g>
                <g transform="matrix(8.333333,0,0,8.333333,0,159.299833)">
                    <path d="M23.178,63.995L22.878,63.822L22.878,63.476L32.555,57.889L33.155,58.235L23.178,63.995Z" style="fill-rule:nonzero;"/>
                </g>
                <g transform="matrix(-4.166698,-7.21686,-7.21686,4.166698,788.139489,584.400334)">
                    <rect x="26.53" y="58.175" width="0.6" height="9.126"/>
                </g>
                <g transform="matrix(-7.216849,-4.166717,-4.166717,7.216849,800.823625,229.883054)">
                    <path d="M29.628,74.57L30.321,74.57L35.908,64.894L35.561,64.294L29.628,74.57Z" style="fill-rule:nonzero;"/>
                </g>
                <g transform="matrix(8.333333,0,0,8.333333,0,-128.699833)">
                    <path d="M33.155,80.929L32.555,81.275L22.878,75.688L22.878,75.342L23.178,75.169L33.155,80.929Z" style="fill-rule:nonzero;"/>
                </g>
                <g transform="matrix(-4.166594,7.21692,7.21692,4.166594,-216.195029,26.051626)">
                    <rect x="26.53" y="71.863" width="0.6" height="9.126"/>
                </g>
                <g transform="matrix(8.333333,0,0,8.333333,0,-128.699833)">
                    <path d="M22.578,75.169L22.878,75.342L22.878,75.688L13.201,81.275L12.601,80.929L22.578,75.169Z" style="fill-rule:nonzero;"/>
                </g>
                <g transform="matrix(8.333333,0,0,8.333333,0,0)">
                    <text x="19.989px" y="51.222px" style="font-family:'Helvetica';font-size:8px;">NH</text>
                </g>
                <g transform="matrix(8.333333,0,0,8.333333,0,0)">
                    <text x="9.79px" y="34.02px" style="font-family:'Helvetica';font-size:8px;">O</text>
                </g>
                <g transform="matrix(8.333333,0,0,8.333333,0,0)">
                    <text x="19.767px" y="97.38px" style="font-family:'Helvetica';font-size:8px;">O</text>
                </g>
                <g transform="matrix(8.333333,0,0,8.333333,0,-238.45325)">
                    <path d="M23.178,88.339L22.878,88.512L22.578,88.339L22.578,81.102L23.178,81.102L23.178,88.339Z" style="fill-rule:nonzero;"/>
                </g>
                <g transform="matrix(-4.166698,7.21686,7.21686,4.166698,-499.297618,-148.967757)">
                    <path d="M15.68,100.073L16.28,100.073L16.281,93.482L15.681,93.135L15.68,100.073Z" style="fill-rule:nonzero;"/>
                </g>
                <g transform="matrix(0,8.333333,8.333333,0,-730.893142,313.471892)">
                    <path d="M4.655,100.609L5.348,100.609L11.021,90.782L10.502,90.482L4.655,100.609Z" style="fill-rule:nonzero;"/>
                </g>
                <g transform="matrix(8.333333,0,0,8.333333,0,-519.199117)">
                    <rect x="11.565" y="97.783" width="0.6" height="7.737"/>
                </g>
                <g transform="matrix(8.333333,0,0,8.333333,0,-519.199117)">
                    <rect x="13.638" y="97.783" width="0.6" height="7.737"/>
                </g>
                <g transform="matrix(8.333333,0,0,8.333333,0,267.666583)">
                    <path d="M22.578,50.991L22.878,50.818L23.178,50.991L23.178,58.062L22.578,58.062L22.578,50.991Z" style="fill-rule:nonzero;"/>
                </g>
                <g transform="matrix(4.166698,7.21686,7.21686,-4.166698,-239.937832,881.736363)">
                    <path d="M15.706,46.072L16.306,46.072L16.306,38.73L15.706,39.076L15.706,46.072Z" style="fill-rule:nonzero;"/>
                </g>
                <g transform="matrix(0,8.333333,8.333333,0,-298.171892,746.193142)">
                    <path d="M10.328,48.682L11.021,48.682L5.175,38.555L4.655,38.855L10.328,48.682Z" style="fill-rule:nonzero;"/>
                </g>
            </g>
            <g transform="matrix(1.038339,0,0,2.901786,-115.857908,-873.917349)">
                <g transform="matrix(8.333333,0,0,8.333333,60.209115,511.174518)">
                    <text x="48.186px" y="8.123px" style="font-family:'Helvetica';font-size:8px;">HNO</text>
                    <text x="65.964px" y="9.963px" style="font-family:'Helvetica';font-size:6px;">3</text>
                    <text x="69.301px" y="8.123px" style="font-family:'Helvetica';font-size:8px;">(aq)</text>
                </g>
                <g transform="matrix(8.333333,0,0,8.333333,-12.419932,-472.33724)">
                    <text x="64.17px" y="137.993px" style="font-family:'Helvetica';font-size:8px;">AcOH</text>
                </g>
                <g transform="matrix(0.95679,0,0,0.5,-900.715469,-576.172775)">
                    <g transform="matrix(4.354837,-0,-0,8.333333,1058.011775,1754.676276)">
                        <path d="M156.778,70.956L167.578,74.556L156.778,78.156L156.778,70.956Z"/>
                        <path d="M81.301,74.556L158.938,74.556" style="fill:none;stroke:black;stroke-width:1.2px;"/>
                    </g>
                </g>
            </g>
            <g transform="matrix(1.038339,0,0,2.901786,-237.539971,-806.585435)">
                <g transform="matrix(8.333333,0,0,8.333333,0,0)">
                    <text x="138.456px" y="56.618px" style="font-family:'Helvetica';font-size:8px;">NH</text>
                </g>
                <g transform="matrix(8.333333,0,0,8.333333,0,0)">
                    <text x="128.256px" y="39.416px" style="font-family:'Helvetica';font-size:8px;">O</text>
                </g>
                <g transform="matrix(8.333333,0,0,8.333333,0,0)">
                    <text x="138.233px" y="102.776px" style="font-family:'Helvetica';font-size:8px;">O</text>
                </g>
                <g transform="matrix(8.333333,0,0,8.333333,0,0)">
                    <text x="158.409px" y="68.216px" style="font-family:'Helvetica';font-size:8px;">NO</text>
                    <text x="170.409px" y="70.056px" style="font-family:'Helvetica';font-size:6px;">2</text>
                </g>
                <g transform="matrix(7.216931,4.166575,4.166575,-7.216931,-120.77901,555.988602)">
                    <path d="M128.141,69.175L128.834,69.175L134.421,59.498L134.074,58.898L128.141,69.175Z" style="fill-rule:nonzero;"/>
                </g>
                <g transform="matrix(8.333333,0,0,8.333333,0,105.2238)">
                    <rect x="133.141" y="59.624" width="0.6" height="9.126"/>
                </g>
                <g transform="matrix(8.333333,0,0,8.333333,0,249.223667)">
                    <path d="M131.068,52.84L131.668,52.493L141.344,58.08L141.344,58.427L141.044,58.6L131.068,52.84Z" style="fill-rule:nonzero;"/>
                </g>
                <g transform="matrix(8.333333,0,0,8.333333,0,249.223667)">
                    <path d="M141.644,58.6L141.344,58.427L141.344,58.08L151.021,52.493L151.621,52.84L141.644,58.6Z" style="fill-rule:nonzero;"/>
                </g>
                <g transform="matrix(-4.166698,-7.21686,-7.21686,4.166698,2230.033983,1506.797975)">
                    <rect x="144.996" y="52.78" width="0.6" height="9.126"/>
                </g>
                <g transform="matrix(8.333333,0,0,8.333333,0,106.667083)">
                    <path d="M151.621,69.947L151.021,69.6L151.021,58.427L151.321,58.253L151.621,58.427L151.621,69.947Z" style="fill-rule:nonzero;"/>
                </g>
                <g transform="matrix(8.333333,0,0,8.333333,0,-38.776167)">
                    <path d="M151.321,75.36L151.321,75.707L151.021,75.88L141.344,70.293L141.344,69.947L141.644,69.773L151.321,75.36Z" style="fill-rule:nonzero;"/>
                </g>
                <g transform="matrix(-4.166698,7.21686,7.21686,4.166698,1303.58291,-761.466398)">
                    <rect x="144.996" y="66.468" width="0.6" height="9.126"/>
                </g>
                <g transform="matrix(8.333333,0,0,8.333333,0,-38.776167)">
                    <path d="M141.044,69.773L141.344,69.947L141.344,70.293L131.668,75.88L131.068,75.533L141.044,69.773Z" style="fill-rule:nonzero;"/>
                </g>
                <g transform="matrix(8.333333,0,0,8.333333,0,-148.5295)">
                    <path d="M141.644,82.944L141.344,83.117L141.044,82.944L141.044,75.707L141.644,75.707L141.644,82.944Z" style="fill-rule:nonzero;"/>
                </g>
                <g transform="matrix(-4.166758,7.216825,7.216825,4.166758,1020.484148,-936.480322)">
                    <path d="M134.147,94.678L134.747,94.678L134.747,88.086L134.147,87.74L134.147,94.678Z" style="fill-rule:nonzero;"/>
                </g>
                <g transform="matrix(0,8.333333,8.333333,0,301.287917,-628.785417)">
                    <path d="M123.121,95.213L123.814,95.213L129.488,85.387L128.968,85.087L123.121,95.213Z" style="fill-rule:nonzero;"/>
                </g>
                <g transform="matrix(8.333333,0,0,8.333333,0,-429.275283)">
                    <rect x="130.031" y="92.388" width="0.6" height="7.737"/>
                </g>
                <g transform="matrix(8.333333,0,0,8.333333,0,-429.275275)">
                    <rect x="132.104" y="92.388" width="0.6" height="7.737"/>
                </g>
                <g transform="matrix(8.333333,0,0,8.333333,0,357.59025)">
                    <path d="M141.044,45.596L141.344,45.423L141.644,45.596L141.644,52.667L141.044,52.667L141.044,45.596Z" style="fill-rule:nonzero;"/>
                </g>
                <g transform="matrix(4.166698,7.21686,7.21686,-4.166698,292.60607,49.26228)">
                    <path d="M134.172,40.677L134.772,40.677L134.772,33.334L134.172,33.681L134.172,40.677Z" style="fill-rule:nonzero;"/>
                </g>
                <g transform="matrix(0,8.333333,8.333333,0,734.009167,-196.064167)">
                    <path d="M128.795,43.287L129.488,43.287L123.641,33.16L123.121,33.46L128.795,43.287Z" style="fill-rule:nonzero;"/>
                </g>
                <g transform="matrix(8.333333,0,0,8.333333,0,-19.613167)">
                    <path d="M151.621,73.58L151.321,73.407L151.321,73.061L157.015,69.773L157.315,70.293L151.621,73.58Z" style="fill-rule:nonzero;"/>
                </g>
            </g>
            <g transform="matrix(1.038339,0,0,2.901786,-378.361758,-772.745536)">
                <g transform="matrix(8.333333,0,0,8.333333,0,0)">
                    <text x="233.775px" y="55.218px" style="font-family:'Helvetica';font-size:8px;">NH</text>
                </g>
                <g transform="matrix(8.333333,0,0,8.333333,0,0)">
                    <text x="223.576px" y="38.016px" style="font-family:'Helvetica';font-size:8px;">O</text>
                </g>
                <g transform="matrix(8.333333,0,0,8.333333,0,0)">
                    <text x="233.553px" y="101.376px" style="font-family:'Helvetica';font-size:8px;">O</text>
                </g>
                <g transform="matrix(8.333333,0,0,8.333333,0,0)">
                    <text x="253.728px" y="89.856px" style="font-family:'Helvetica';font-size:8px;">NO</text>
                    <text x="265.728px" y="91.696px" style="font-family:'Helvetica';font-size:6px;">2</text>
                </g>
                <g transform="matrix(7.216879,4.166665,4.166665,-7.216879,-20.188821,157.245737)">
                    <path d="M223.461,70.574L224.154,70.574L229.741,60.898L229.394,60.298L223.461,70.574Z" style="fill-rule:nonzero;"/>
                </g>
                <g transform="matrix(8.333333,0,0,8.333333,0,81.899967)">
                    <rect x="228.461" y="61.023" width="0.6" height="9.126"/>
                </g>
                <g transform="matrix(8.333333,0,0,8.333333,0,225.899833)">
                    <path d="M226.387,54.239L226.987,53.893L236.664,59.48L236.664,59.826L236.364,59.999L226.387,54.239Z" style="fill-rule:nonzero;"/>
                </g>
                <g transform="matrix(8.333333,0,0,8.333333,0,225.899833)">
                    <path d="M236.964,59.999L236.664,59.826L236.664,59.48L246.341,53.893L246.641,54.066L246.641,54.412L236.964,59.999Z" style="fill-rule:nonzero;"/>
                </g>
                <g transform="matrix(-4.166698,-7.21686,-7.21686,4.166698,3431.632656,2177.214127)">
                    <rect x="240.316" y="54.179" width="0.6" height="9.126"/>
                </g>
                <g transform="matrix(8.333333,0,0,8.333333,0,80.456583)">
                    <path d="M246.941,71.346L246.641,71.519L246.341,71.346L246.341,60.172L246.941,59.826L246.941,71.346Z" style="fill-rule:nonzero;"/>
                </g>
                <g transform="matrix(8.333333,0,0,8.333333,0,-62.099833)">
                    <path d="M246.941,76.933L246.341,77.279L236.664,71.692L236.664,71.346L236.964,71.173L246.941,76.933Z" style="fill-rule:nonzero;"/>
                </g>
                <g transform="matrix(-4.166698,7.21686,7.21686,4.166698,2484.982675,-1466.868262)">
                    <rect x="240.315" y="67.867" width="0.6" height="9.126"/>
                </g>
                <g transform="matrix(8.333333,0,0,8.333333,0,-62.099833)">
                    <path d="M236.364,71.173L236.664,71.346L236.664,71.692L226.987,77.279L226.387,76.933L236.364,71.173Z" style="fill-rule:nonzero;"/>
                </g>
                <g transform="matrix(8.333333,0,0,8.333333,0,-171.85325)">
                    <path d="M236.964,84.343L236.664,84.516L236.364,84.343L236.364,77.106L236.964,77.106L236.964,84.343Z" style="fill-rule:nonzero;"/>
                </g>
                <g transform="matrix(-4.166698,7.21686,7.21686,4.166698,2201.872695,-1641.881297)">
                    <path d="M229.466,96.077L230.066,96.077L230.067,89.486L229.467,89.139L229.466,96.077Z" style="fill-rule:nonzero;"/>
                </g>
                <g transform="matrix(0,8.333333,8.333333,0,1083.956833,-1434.778167)">
                    <path d="M218.441,96.613L219.134,96.613L224.807,86.786L224.288,86.486L218.441,96.613Z" style="fill-rule:nonzero;"/>
                </g>
                <g transform="matrix(8.333333,0,0,8.333333,0,-452.599117)">
                    <rect x="225.351" y="93.787" width="0.6" height="7.737"/>
                </g>
                <g transform="matrix(8.333333,0,0,8.333333,0,-452.599108)">
                    <rect x="227.424" y="93.787" width="0.6" height="7.737"/>
                </g>
                <g transform="matrix(8.333333,0,0,8.333333,0,334.2665)">
                    <path d="M236.364,46.995L236.664,46.822L236.964,46.995L236.964,54.066L236.364,54.066L236.364,46.995Z" style="fill-rule:nonzero;"/>
                </g>
                <g transform="matrix(4.166698,7.21686,7.21686,-4.166698,679.669063,-644.477538)">
                    <path d="M229.492,42.076L230.092,42.076L230.092,34.734L229.492,35.08L229.492,42.076Z" style="fill-rule:nonzero;"/>
                </g>
                <g transform="matrix(0,8.333333,8.333333,0,1516.678125,-1002.056875)">
                    <path d="M224.114,44.686L224.807,44.686L218.961,34.559L218.441,34.859L224.114,44.686Z" style="fill-rule:nonzero;"/>
                </g>
                <g transform="matrix(8.333333,0,0,8.333333,0,207.06075)">
                    <path d="M246.641,56.673L246.641,56.327L246.941,56.154L252.702,59.48L252.402,59.999L246.641,56.673Z" style="fill-rule:nonzero;"/>
                </g>
            </g>
            <g transform="matrix(8.652822,0,0,24.181548,-290.4241,-957.389407)">
                <text x="189.378px" y="78.053px" style="font-family:'Helvetica';font-size:8px;">or</text>
            </g>
            <g transform="matrix(1.038339,0,0,2.901786,-44.673435,-1250.128192)">
                <g transform="matrix(66.666667,0,0,66.666667,1066.059286,1100.498429)">
                </g>
                <text x="1017.915px" y="1100.498px" style="font-family:'Helvetica-Bold', 'Helvetica';font-weight:700;font-size:66.667px;">A</text>
            </g>
            <g transform="matrix(1.038339,0,0,2.901786,638.646987,-1250.128434)">
                <g transform="matrix(66.666667,0,0,66.666667,1066.059286,1100.498429)">
                </g>
                <text x="1017.915px" y="1100.498px" style="font-family:'Helvetica-Bold', 'Helvetica';font-weight:700;font-size:66.667px;">B</text>
            </g>
            <g transform="matrix(1.038339,0,0,2.901786,-37.380192,-705.133929)">
            </g>
            <g transform="matrix(1.038339,0,0,2.901786,-37.380192,-705.133929)">
            </g>
        </g>
    </g>
</svg>
